<?xml version="1.0" standalone="no"?>
<!DOCTYPE svg PUBLIC "-//W3C//DTD SVG 1.1//EN" "http://www.w3.org/Graphics/SVG/1.1/DTD/svg11.dtd" >
<svg xmlns="http://www.w3.org/2000/svg">
<metadata></metadata>
<defs>
<font id="ag_book_roundedregular" horiz-adv-x="1193" >
<font-face units-per-em="2048" ascent="1638" descent="-410" />
<missing-glyph horiz-adv-x="598" />
<glyph horiz-adv-x="0" />
<glyph horiz-adv-x="682" />
<glyph horiz-adv-x="598" d="M-27 1417q0 47 28 71.5t62 24.5q37 0 59.5 -18t33.5 -33q33 -41 60.5 -63.5t80.5 -22.5t81 22.5t60 63.5q10 14 32 32.5t62 18.5q47 0 70 -28.5t23 -65.5q0 -33 -19.5 -74.5t-59.5 -78.5t-102.5 -62.5t-148.5 -25.5t-147.5 24.5t-99.5 61t-56.5 77.5t-18.5 76z" />
<glyph horiz-adv-x="598" d="M127 1382q0 70 49 120t121 50t122 -49t50 -121t-50 -122t-122 -50q-70 0 -120 50.5t-50 121.5z" />
<glyph horiz-adv-x="598" d="M86 1391q0 43 16.5 81.5t46 68.5t68.5 46.5t82 16.5t81 -16.5t67.5 -45.5t46 -67.5t16.5 -83.5q0 -43 -16.5 -82t-45 -68t-67.5 -45t-82 -16q-45 0 -84 16t-67.5 46t-45 68t-16.5 81zM213 1393q0 -35 24.5 -60.5t59.5 -25.5q37 0 61.5 25.5t24.5 60.5t-25.5 59.5 t-60.5 24.5t-59.5 -24.5t-24.5 -59.5z" />
<glyph unicode="&#xa;" horiz-adv-x="598" d="M-143 1239q0 10 2 21.5t6 21.5l49 154q14 39 38.5 68.5t96.5 29.5h162q16 -2 33.5 -5t31.5 -13q25 -23 25 -54q0 -14 -5 -24.5t-13 -20.5l-146 -178q-33 -35 -53.5 -46t-58.5 -13h-86q-10 0 -24.5 2t-27 7t-21.5 16.5t-9 33.5zM295 1239q0 10 3 21.5t7 21.5l49 154 q14 39 39 68.5t96 29.5h162q16 -2 32.5 -5t33.5 -13q25 -23 24 -54q0 -14 -5 -24.5t-15 -20.5l-143 -178q-33 -35 -53.5 -46t-59.5 -13h-88q-10 0 -24.5 2t-27 7t-21.5 16.5t-9 33.5z" />
<glyph horiz-adv-x="598" d="M84 -254q0 70 38 129t109 150h218q-10 -14 -20.5 -25.5t-20.5 -26.5q-20 -23 -48 -61.5t-28 -71.5q0 -35 23.5 -41t64.5 -6q31 0 49 -10t27.5 -23.5t12.5 -29t3 -25.5q0 -8 -5 -30.5t-24.5 -47t-60.5 -43t-113 -18.5q-47 0 -90 10t-78 39q-25 20 -41 54t-16 77z" />
<glyph horiz-adv-x="598" d="M0 1440q0 47 36 81.5t83 34.5q61 0 99 -63.5t79 -161.5q18 45 36.5 86t40 72t48.5 49t61 18q41 0 77 -29.5t36 -82.5q0 -10 -2 -21.5t-8 -26t-18.5 -36t-32.5 -51.5q-29 -43 -50.5 -71t-45 -43t-52.5 -21.5t-74 -6.5q-61 0 -99 7.5t-65.5 26t-51 50t-54.5 80.5 q-20 31 -31.5 54.5t-11.5 54.5z" />
<glyph unicode="&#xd;" horiz-adv-x="598" />
<glyph horiz-adv-x="1280" d="M-12 936q0 49 22.5 73.5t38.5 32.5q23 12 42.5 14.5t53.5 2.5q0 68 2.5 119t16.5 96q25 70 71 108.5t98 57t100 22.5t77 4q35 0 62.5 -3t50.5 -7q86 -18 122.5 -62t36.5 -96q0 -14 -5 -33.5t-17 -38t-35 -30.5t-57 -12q-8 0 -34 3t-34 3q-25 0 -39 -9.5t-20 -19.5 q-10 -12 -11.5 -28.5t-1.5 -69.5q66 0 93.5 -1t50.5 -7q53 -16 70.5 -52t17.5 -71q0 -47 -37 -86t-133 -39q-14 0 -28.5 1t-31.5 1v-592q0 -35 -3 -69.5t-23 -71.5q-2 -4 -12.5 -19.5t-31 -32t-50 -29.5t-70.5 -13q-37 0 -64.5 9t-44.5 21q-33 20 -50 47t-25.5 56.5 t-10.5 61.5t-2 65v565q-20 2 -38.5 3t-41.5 11q-18 8 -46.5 35t-28.5 80zM807 195v665q2 35 7 66.5t32 70.5q23 31 59.5 55.5t95.5 24.5q37 0 71 -13t61.5 -40t44 -69t16.5 -97v-643q-2 -35 -5 -69.5t-26 -69.5q-18 -33 -40.5 -51.5t-45 -27.5t-43 -12t-33.5 -3 q-59 0 -103 27.5t-67 66.5q-16 31 -19 62.5t-5 56.5zM807 1348q0 39 15.5 74.5t42 61t61.5 41t75 15.5q80 0 136.5 -56.5t56.5 -135.5q0 -41 -15.5 -77t-41 -61.5t-61.5 -41t-75 -15.5q-41 0 -75.5 15.5t-61 41t-42 61.5t-15.5 77z" />
<glyph horiz-adv-x="1280" d="M-12 936q0 49 22.5 73.5t38.5 32.5q23 12 42.5 14.5t53.5 2.5q0 68 2.5 119t16.5 96q25 70 71 108.5t98 57t100 22.5t77 4q35 0 62.5 -3t52.5 -7q86 -18 122.5 -62t36.5 -96q0 -14 -5 -33.5t-17 -38t-34.5 -30.5t-59.5 -12q-8 0 -34 3t-34 3q-25 0 -39 -9.5t-20 -19.5 q-10 -12 -11.5 -28.5t-1.5 -69.5q66 0 93.5 -1t50.5 -7q53 -16 71.5 -52t18.5 -71q0 -47 -37 -86t-133 -39q-16 0 -30.5 1t-31.5 1v-592q0 -35 -3 -69.5t-23 -71.5q-2 -4 -12.5 -19.5t-31 -32t-50 -29.5t-70.5 -13q-37 0 -64.5 9t-44.5 21q-33 20 -50 47t-25.5 56.5 t-10.5 61.5t-2 65v565q-20 2 -38.5 3t-41.5 11q-18 8 -46.5 35t-28.5 80zM811 209v1032q2 39 10 84t49 88q25 27 61 41t77 14q53 0 91 -23.5t60 -51.5q29 -41 34 -78t5 -72v-1032q0 -18 -3 -46t-12 -56.5t-28.5 -56t-52.5 -46.5q-25 -14 -50.5 -19t-47.5 -5q-37 0 -67 11 t-52 27q-29 20 -43.5 46t-21.5 51.5t-8 49t-1 42.5z" />
<glyph horiz-adv-x="1150" d="M-49 393q0 53 27.5 88t46.5 51l69 60v614q0 23 1 48.5t7.5 52t18.5 53t35 51.5q25 27 59.5 42t81.5 15q35 0 66.5 -9t58.5 -32q29 -23 46 -51t25.5 -59t10.5 -61.5t2 -57.5v-260l127 106q23 16 48.5 32t63.5 16q57 0 100.5 -42t43.5 -100q0 -47 -20.5 -71.5t-39.5 -40.5 l-323 -273v-248h432q35 0 67.5 -4t67.5 -22q29 -16 44.5 -37t22.5 -39t8 -32.5t1 -20.5q0 -23 -5 -41.5t-14 -34.5q-16 -31 -39.5 -48.5t-49 -25.5t-51 -10t-44.5 -2h-655q-18 0 -42 2t-48.5 11.5t-46 28.5t-37.5 52q-16 35 -19.5 70t-3.5 98q-23 0 -50.5 5t-55.5 36 q-37 39 -37 90z" />
<glyph horiz-adv-x="555" d="M-14 596q0 29 10 53.5t25.5 45t33 35.5t29.5 26v485q2 39 10 84t49 88q55 55 138 55q53 0 91 -23.5t60 -51.5q29 -41 34 -78t5 -72v-254q37 -14 56.5 -33.5t29.5 -40t12 -36t2 -21.5q0 -23 -9 -48.5t-25 -45.5q-8 -10 -18.5 -19.5t-47.5 -39.5v-496q0 -18 -3 -46 t-12.5 -56.5t-28.5 -55t-52 -47.5q-25 -14 -50.5 -18t-48.5 -4q-37 0 -66.5 11t-51.5 27q-29 20 -43.5 46t-21.5 51.5t-8 49t-1 42.5v260q-49 16 -73.5 54t-24.5 73z" />
<glyph horiz-adv-x="1280" d="M8 186q0 59 23.5 99.5t62.5 87.5l649 755h-436q-55 0 -82.5 2.5t-56.5 14.5q-59 23 -78.5 65.5t-19.5 75.5q0 39 18 75t53 58q29 16 62 22.5t73 6.5h746q31 -2 73 -6t80.5 -23.5t66.5 -58.5t28 -109q0 -68 -30 -117t-83 -110l-610 -709h485q39 0 74 -3t65 -15 q55 -23 78 -61.5t23 -75.5q0 -20 -5 -41t-14 -37q-16 -29 -38.5 -45.5t-46 -23.5t-48 -10t-43.5 -3h-837q-41 0 -79 4t-77 33q-23 14 -49.5 48t-26.5 101zM326 1788q0 49 40 72.5t80 23.5q47 0 86 -33q10 -10 18.5 -19t20 -24.5t26.5 -41t42 -70.5q16 25 32.5 49t33.5 49 q20 31 50.5 61.5t78.5 30.5q33 0 58.5 -12t37.5 -27q18 -20 22 -41.5t-1 -43t-17 -42t-25 -41.5q-29 -43 -53.5 -71.5t-50 -45t-54 -23.5t-63.5 -9q-90 -4 -133 3t-74 30q-10 6 -35.5 29.5t-52 56t-47 69.5t-20.5 70z" />
<glyph horiz-adv-x="1024" d="M-2 156q0 59 35 106t92 107l381 405h-320q-20 0 -38.5 3t-41.5 16q-23 12 -36 29.5t-20 34.5t-9 32.5t-2 25.5q0 18 5 43t22 48q31 41 75.5 49t83.5 8h580q35 0 67.5 -6t67.5 -31q6 -4 17.5 -13t21.5 -26.5t18.5 -42t8.5 -59.5q0 -57 -22.5 -93t-53.5 -69l-420 -432h332 q29 0 60.5 -4t62.5 -25q37 -27 47 -59.5t10 -55.5q0 -29 -10.5 -55t-30.5 -47q-33 -31 -75 -38t-91 -7h-612q-37 0 -78 7t-76 36q-51 41 -51 113zM227 1440q0 47 36 81.5t83 34.5q61 0 99 -63.5t79 -161.5q18 45 36.5 86t40 72t48.5 49t61 18q41 0 77 -29.5t36 -82.5 q0 -10 -2 -21.5t-8 -26t-18.5 -36t-32.5 -51.5q-29 -43 -50.5 -71t-45 -43t-52.5 -21.5t-74 -6.5q-61 0 -99 7.5t-65.5 26t-51 50t-54.5 80.5q-20 31 -31.5 54.5t-11.5 54.5z" />
<glyph unicode=" "  horiz-adv-x="598" />
<glyph unicode="&#x09;" horiz-adv-x="598" />
<glyph unicode="&#xa0;" horiz-adv-x="598" />
<glyph unicode="!" horiz-adv-x="555" d="M125 172q0 82 56.5 138.5t137.5 56.5q39 0 75 -15.5t61.5 -41t41 -61.5t15.5 -77q0 -39 -15.5 -74t-41 -61.5t-61.5 -41.5t-75 -15q-41 0 -76.5 15t-61 41.5t-41 61.5t-15.5 74zM137 1028v205q0 27 3 56.5t14 60.5q16 45 42.5 68.5t54.5 34.5t49.5 13t29.5 2q47 0 84 -18 q35 -18 54 -47t29.5 -58.5t12.5 -57t2 -48.5v-211q0 -23 -1 -37t-2 -29.5t-4 -33t-7 -41.5l-39 -281q-4 -20 -9.5 -42.5t-21.5 -43.5q-18 -27 -48 -38t-58 -11q-14 0 -35 4t-42.5 17.5t-38 38t-22.5 65.5l-39 307q-2 18 -3 32.5t-2 27t-2 28t-1 37.5z" />
<glyph unicode="&#x22;" horiz-adv-x="980" d="M111 926v383q0 66 31.5 111.5t103.5 45.5t102.5 -46t30.5 -111v-383q0 -66 -32 -110t-103 -44q-43 0 -70 15.5t-41 39t-18 50t-4 49.5zM602 926v383q0 66 32 111.5t103 45.5q72 0 102.5 -46t30.5 -111v-383q0 -66 -31.5 -110t-103.5 -44q-43 0 -69.5 15.5t-41 39 t-18.5 50t-4 49.5z" />
<glyph unicode="$" horiz-adv-x="1236" d="M55 373q0 51 16.5 86t41 56.5t54.5 31.5t56 10q35 0 62.5 -12.5t47 -29.5t32 -36.5t18.5 -32.5q6 -14 11 -27t12 -26q6 -14 17 -34.5t33.5 -39t58.5 -31t89 -12.5q14 0 33.5 1.5t42.5 7.5q43 10 81 39.5t38 83.5q0 41 -18.5 63.5t-41.5 36.5q-10 8 -22 14t-36 14.5 t-65 22.5t-108 37q-61 20 -138 49t-142.5 77t-110.5 120.5t-45 179.5q0 31 6 75t26 93q35 86 87.5 132t103.5 73q63 35 110.5 44t98.5 15q-2 23 -4 55.5t-2 59.5q0 61 29.5 97t88.5 36q53 0 85 -35t32 -102v-22.5t-1 -34t-2 -34t-1 -24.5q39 -4 98.5 -18.5t124.5 -57.5 q68 -45 119 -121.5t51 -162.5q0 -92 -53 -137.5t-115 -45.5q-35 0 -62.5 12.5t-37.5 20.5q-23 16 -33 35.5t-26 60.5q-4 12 -14.5 35t-32 44.5t-56.5 36.5t-88 15q-47 0 -79.5 -10t-52 -27.5t-28 -39t-8.5 -41.5q0 -35 14.5 -57.5t40 -39t60.5 -28t74 -23.5 q31 -10 61.5 -19.5t58.5 -19.5q74 -27 121 -43t88 -37q18 -10 56.5 -33.5t76 -66.5t66.5 -110.5t29 -163.5q0 -47 -12.5 -98.5t-41 -101.5t-76.5 -96t-120 -79q-66 -31 -118 -38t-93 -11q4 -29 6 -66t2 -65q0 -20 -3 -45t-15.5 -46.5t-37 -36t-67.5 -14.5t-65.5 15.5 t-32.5 38t-12 47t-2 41.5q0 27 1 62.5t3 64.5q-131 6 -217 52t-136.5 106.5t-70 125t-19.5 109.5z" />
<glyph unicode="%" horiz-adv-x="1878" d="M49 995q0 20 2 61.5t13.5 92.5t35 105.5t68.5 101.5q14 14 35.5 31.5t52.5 33t71 26.5t89 11q35 0 73.5 -8t76.5 -27.5t72 -51.5t62 -81q37 -63 51.5 -137t14.5 -160q0 -104 -23.5 -192t-69.5 -150.5t-115 -97.5t-161 -35q-135 0 -227 94q-78 82 -99.5 183.5t-21.5 199.5 zM276 991q0 -37 3.5 -85t16.5 -92t38.5 -73.5t73.5 -29.5q43 0 69.5 25.5t39.5 64.5t17.5 87t4.5 91q0 133 -27.5 205.5t-99.5 72.5q-39 0 -66 -21.5t-42 -58t-21.5 -85t-6.5 -101.5zM500 66q0 18 6 33.5t14 27.5l686 1274q12 20 29.5 38.5t54.5 18.5q27 0 55.5 -18.5 t28.5 -63.5q0 -16 -4 -27.5t-10 -23.5l-688 -1280q-10 -16 -28.5 -37.5t-57.5 -21.5q-10 0 -25.5 4t-29 13t-22.5 24.5t-9 38.5zM1112 465q0 20 2 61t13.5 92.5t35 105.5t68.5 101q14 14 35.5 31.5t52.5 33t71 27t89 11.5q37 0 75.5 -8.5t76.5 -28t72 -51t62 -80.5 q37 -63 51.5 -137t14.5 -160q0 -104 -22.5 -192.5t-68.5 -151t-116 -98t-164 -35.5q-135 0 -227 94q-78 82 -99.5 183.5t-21.5 201.5zM1339 461q0 -37 3.5 -86t16.5 -93t39.5 -74t74.5 -30q43 0 69.5 25.5t39.5 65.5t17.5 88.5t4.5 91.5q0 135 -27.5 206.5t-99.5 71.5 q-41 0 -67 -21.5t-42 -58.5t-22.5 -85t-6.5 -101z" />
<glyph unicode="&#x26;" horiz-adv-x="1409" d="M33 430q0 96 33.5 165t82 115t98.5 72.5t83 40.5q-23 31 -53.5 87.5t-30.5 146.5q0 63 23.5 124.5t72.5 110.5t122 80t171 31q84 0 151.5 -27.5t114.5 -75t71.5 -110t24.5 -131.5q0 -16 -6 -63.5t-43 -108.5q-41 -70 -88 -101.5t-90 -54.5q25 -37 41 -60.5t30.5 -43 t29 -38t36.5 -42.5q4 8 9.5 16t9.5 19q4 10 9 23t11 26q29 59 71 79.5t75 20.5q66 0 105.5 -47t39.5 -106q0 -106 -127 -246q18 -10 34.5 -17.5t47.5 -15.5q29 -6 57.5 -13t50.5 -24q35 -23 47.5 -55.5t12.5 -61.5q0 -53 -41 -98t-129 -45q-25 0 -48.5 4t-45.5 8 q-70 16 -112 37t-79 43q-43 -29 -90 -53.5t-131 -44.5q-41 -10 -85 -17.5t-91 -7.5q-106 0 -193.5 37t-150 99.5t-97 146.5t-34.5 176zM369 430q0 -29 8 -57.5t28.5 -53t52 -40t79.5 -15.5q47 0 84.5 14.5t70.5 30.5q-43 51 -70.5 86t-50 63.5t-44 58.5t-50.5 73 q-41 -29 -74.5 -65t-33.5 -95zM557 1075q0 -25 14 -56.5t43 -78.5q33 16 52.5 36.5t27.5 39t10.5 34t2.5 21.5q0 23 -14.5 52.5t-59.5 29.5q-39 0 -57.5 -25.5t-18.5 -52.5z" />
<glyph unicode="'" horiz-adv-x="468" d="M100 926v383q0 66 32 111.5t104 45.5t102.5 -46t30.5 -111v-383q0 -66 -32 -110t-104 -44q-43 0 -69.5 15.5t-40.5 39t-18.5 50t-4.5 49.5z" />
<glyph unicode="(" horiz-adv-x="724" d="M94 543q0 186 67.5 392t215.5 406q47 63 84 92t84 29q61 0 101 -40t40 -93q0 -27 -9 -48t-22 -44q-86 -158 -137 -328t-51 -350q0 -100 15.5 -201.5t39 -193.5t52 -168t55.5 -125q23 -41 33 -66.5t10 -56.5q0 -33 -14.5 -55.5t-34 -37.5t-42 -22.5t-38.5 -7.5 q-59 0 -108.5 45t-106.5 137q-20 33 -59.5 100.5t-78 163t-67.5 215.5t-29 257z" />
<glyph unicode=")" horiz-adv-x="724" d="M41 -242q0 27 9 48.5t22 43.5q117 215 152.5 383t35.5 293q0 100 -15.5 202.5t-39 195t-52 168t-55.5 125.5q-23 41 -33 66.5t-10 55.5q0 33 13.5 55.5t34 38t43 22.5t38.5 7q18 0 45 -6t64 -39q33 -29 66.5 -76t61.5 -94t49.5 -87t29.5 -56q66 -137 99.5 -278.5 t33.5 -280.5q0 -188 -68.5 -394t-214.5 -405q-47 -63 -84 -92t-84 -29q-61 0 -101 40t-40 93z" />
<glyph unicode="*" horiz-adv-x="811" d="M45 1180q0 18 6 40.5t19.5 41t34 32t51.5 13.5q47 0 89 -26t60 -42q-4 25 -6 47.5t-2 44.5q0 66 27.5 100.5t87.5 34.5q14 0 34.5 -3t39 -15t31.5 -37t13 -65q0 -27 -5 -52.5t-9 -50.5q33 16 70 31.5t69 15.5q53 0 81 -41t28 -84q0 -39 -20.5 -62.5t-50 -36.5 t-62.5 -19.5t-58 -8.5q12 -10 31 -26.5t36 -37t28.5 -43t11.5 -46.5q0 -27 -12.5 -49.5t-31 -38t-38.5 -23.5t-37 -8q-51 0 -84 41t-71 108q-12 -35 -23.5 -58t-34.5 -52q-10 -10 -29.5 -27.5t-50.5 -17.5q-18 0 -39.5 7t-41 21.5t-33 36t-13.5 49.5q0 45 32 88.5t63 79.5 q-29 6 -62 16.5t-61.5 26t-48 39t-19.5 56.5z" />
<glyph unicode="," horiz-adv-x="468" d="M33 186q0 82 52 138.5t132 56.5q43 0 83 -18.5t70.5 -56.5t49 -95t18.5 -135q0 -90 -25.5 -162t-67.5 -123t-92 -77.5t-99 -26.5q-51 0 -79 29.5t-28 66.5q0 14 7 35.5t34 40.5q12 10 25.5 15t25.5 11q51 27 61.5 62t10.5 55q-23 2 -44.5 6t-49.5 23q-10 6 -24.5 18 t-28 30.5t-22.5 45.5t-9 61z" />
<glyph unicode="-" horiz-adv-x="768" d="M45 598q0 39 21 72q14 25 35.5 38t44 20t44 10t35.5 3h320q25 0 52.5 -5t47.5 -15q41 -20 58.5 -56t17.5 -73q0 -25 -8 -45.5t-19 -36.5q-33 -41 -73.5 -49t-63.5 -8h-336q-23 2 -46 5t-48 13q-27 14 -54.5 44t-27.5 83z" />
<glyph unicode="." horiz-adv-x="468" d="M41 172q0 82 56.5 138.5t138.5 56.5q39 0 74.5 -15.5t61 -41t41 -61.5t15.5 -77q0 -39 -15.5 -74t-41 -61.5t-61 -41.5t-74.5 -15q-41 0 -77 15t-61.5 41.5t-41 61.5t-15.5 74z" />
<glyph unicode="/" horiz-adv-x="854" d="M-2 121q0 33 8 55.5t29 63.5l508 1081q12 27 27.5 54.5t35 51t46 38t63.5 14.5q59 0 101 -40t42 -104q0 -31 -8 -55.5t-19 -46.5l-530 -1124q-12 -23 -25.5 -47.5t-32 -44t-44 -32t-60.5 -12.5q-59 0 -100 42t-41 106z" />
<glyph unicode="0" horiz-adv-x="1236" d="M53 733q0 88 12.5 176t42 169t76.5 151.5t117 124.5q51 39 101.5 60.5t93.5 31.5t76 12t51 2q86 0 165.5 -22.5t147.5 -71.5q84 -61 134 -144t75.5 -172t33 -174t7.5 -153q0 -113 -12.5 -187.5t-24.5 -121.5q-35 -117 -98.5 -211t-155.5 -152q-61 -37 -137 -56.5 t-154 -19.5q-111 0 -201 37t-167 121q-37 39 -70 89t-57.5 121t-40 166t-15.5 224zM410 661.5q0 -22.5 2 -45.5q2 -35 10 -91t30.5 -110.5t63.5 -94t109 -39.5q76 0 116.5 51t60 120.5t22.5 140.5t3 112q0 80 -6 158.5t-27.5 141t-61 101.5t-105.5 39q-78 0 -124 -52.5 t-69 -144.5q-16 -59 -20 -120.5t-4 -120.5v-45.5z" />
<glyph unicode="1" horiz-adv-x="1236" d="M174 1057q0 18 5 38.5t20 39.5q23 35 55.5 44t91.5 19q74 12 113 39t69 76q10 12 16.5 25.5t16.5 25.5q14 23 50 53.5t106 30.5q27 0 72 -13.5t75 -66.5q18 -33 21.5 -60.5t3.5 -52.5v-1077q0 -31 -6 -61.5t-29 -63.5q-23 -35 -61.5 -54t-85.5 -19q-20 0 -42 4t-44 14 q-33 16 -51.5 39.5t-28 48.5t-11.5 49.5t-2 42.5v737h-163q-35 0 -76 5.5t-72 33.5q-43 37 -43 103z" />
<glyph unicode="2" horiz-adv-x="1236" d="M82 182q0 35 10 61.5t28.5 51t46.5 48.5t64 54q74 61 150 121t147 125q109 98 161 181t52 163q0 70 -42 110t-103 40q-43 0 -69.5 -12.5t-44 -33t-28 -44t-18.5 -46.5q-8 -18 -14 -35.5t-16 -33.5q-25 -37 -62 -59.5t-82 -22.5q-23 0 -50.5 8t-52 27.5t-41 53.5t-16.5 85 t27 125t87 142.5t155.5 116.5t234.5 48q131 0 226.5 -41t157 -106.5t91 -146.5t29.5 -161q0 -90 -31.5 -169.5t-84 -153.5t-122 -140.5t-145.5 -127.5q-35 -29 -68.5 -54.5t-68.5 -52.5l356 4q23 0 48.5 -3t54.5 -15q41 -20 62.5 -56t21.5 -79q0 -47 -19.5 -75t-32.5 -38 q-31 -29 -60.5 -34t-62.5 -7h-649q-35 2 -63.5 4t-55.5 12q-37 14 -58 37t-32.5 46.5t-14.5 46t-3 36.5z" />
<glyph unicode="3" horiz-adv-x="1236" d="M80 287q0 43 15.5 72.5t39 50t52 30t57.5 9.5q16 0 52 -8.5t77 -57.5q10 -12 19 -24.5t20 -22.5q47 -59 137 -60q35 0 68.5 5.5t62.5 21.5q41 20 59.5 53t18.5 72q0 10 -2 26.5t-11 39.5q-33 78 -141 90q-18 4 -36.5 4t-39.5 4q-41 6 -62.5 24.5t-31.5 38t-12 38t-2 24.5 q0 59 35 94q20 23 42.5 29t47.5 10q74 8 120 36.5t46 112.5q0 68 -42 108t-112 40q-41 0 -72.5 -16.5t-50.5 -38.5q-10 -14 -17 -28.5t-16 -29.5q-18 -29 -38.5 -44t-40 -22t-35 -8.5t-21.5 -1.5q-61 0 -113.5 41t-52.5 119q0 47 30 106.5t89.5 110.5t151.5 86t215 35 q152 0 246 -41t147 -106q35 -41 62.5 -103.5t27.5 -140.5q0 -84 -27.5 -139.5t-62.5 -89t-64.5 -48t-33.5 -16.5q-10 -4 -22.5 -6t-22.5 -6q37 -6 76.5 -21.5t70.5 -38.5q12 -8 34.5 -27.5t46 -53t41 -84t17.5 -119.5q0 -115 -47 -198t-125 -136t-177 -79t-202 -26 q-72 0 -126 9.5t-94 21.5t-64.5 24.5t-36.5 18.5q-66 37 -118 97.5t-52 138.5z" />
<glyph unicode="4" horiz-adv-x="1236" d="M57 487q0 39 2 65t10.5 48.5t24 47t41.5 61.5l467 645q12 18 28.5 34.5t38 31t51.5 22.5t71 8q33 0 69.5 -9t67 -34t51 -67t20.5 -105v-672q33 0 63 -2t56 -12q45 -18 64.5 -54t19.5 -73q0 -10 -2 -26.5t-10 -34t-24.5 -34t-43.5 -28.5q-31 -14 -62.5 -15t-62.5 -1v-90 q0 -31 -5 -67t-29 -71q-23 -35 -63 -54t-81 -19q-29 0 -61.5 11t-61.5 40q-39 39 -47 80t-8 75v95h-408q-29 0 -70.5 8t-74.5 55q-23 33 -27 70t-4 71zM381 563h272q2 59 3 116.5t6 117.5q4 55 7 110.5t7 110.5z" />
<glyph unicode="5" horiz-adv-x="1236" d="M88 295q0 39 15.5 68.5t40 50t56 32t62.5 11.5q49 0 80 -29t59 -63q10 -12 24.5 -29t36 -30t50.5 -23.5t68 -10.5q51 0 90 17.5t64.5 46.5t37.5 65.5t12 77.5q0 61 -19.5 103.5t-50 67t-67.5 35.5t-74 11q-72 0 -106.5 -23.5t-67.5 -58.5q-14 -16 -41.5 -35.5 t-76.5 -19.5q-29 0 -60 10.5t-55.5 32t-40.5 54t-16 79.5v21.5t2 21.5l49 486q4 31 12 57.5t35 54.5q35 37 76 44t75 10h551q14 0 44 -4.5t58.5 -18.5t51 -45t22.5 -84q0 -23 -8 -56.5t-47 -62.5q-29 -23 -55.5 -27t-50.5 -6h-469l-29 -229q14 10 34.5 24.5t50.5 27t72 20.5 t97 8q119 0 205 -41t143 -107.5t85 -149.5t28 -169q0 -104 -38 -200.5t-109.5 -171.5t-178 -119t-242.5 -44q-111 0 -199.5 29t-152 75t-98.5 103.5t-35 112.5z" />
<glyph unicode="6" horiz-adv-x="1236" d="M70 686q0 145 31.5 287.5t99.5 247.5q57 88 126.5 136t135 69.5t120 25.5t81.5 4q100 0 180 -25.5t136 -66.5t86 -91t30 -99q0 -37 -14.5 -66t-38 -48.5t-53 -29.5t-60.5 -10q-55 0 -85 26.5t-46 51.5q-27 35 -58.5 58.5t-97.5 23.5q-10 0 -29.5 -1t-44 -9.5t-50 -26 t-48.5 -49.5q-20 -29 -43 -94.5t-25 -182.5q20 18 49 39t66 38t86 29.5t113 12.5q100 0 183 -37t143.5 -99.5t93 -147.5t32.5 -181q0 -111 -42 -203t-115.5 -156.5t-172 -100.5t-210.5 -36q-66 0 -132.5 14.5t-125.5 45.5q-109 55 -169.5 144t-90 184.5t-35.5 182.5t-6 140z M444 449q0 -49 16.5 -84t44 -57.5t60.5 -34t68 -11.5q31 0 63.5 10.5t60 32t46 57t18.5 87.5q0 86 -54 132t-130 46q-35 0 -70 -10.5t-62.5 -32t-44 -55t-16.5 -80.5z" />
<glyph unicode="7" horiz-adv-x="1236" d="M102 1282q0 41 21 76q31 51 75 61.5t76 12.5h625q35 -2 65.5 -5.5t61.5 -25.5q41 -27 57.5 -71t16.5 -91q0 -33 -6.5 -59.5t-19.5 -56t-36.5 -67.5t-60.5 -93q-80 -123 -132 -227.5t-88 -200t-59.5 -187.5t-46.5 -192q-6 -23 -15 -51.5t-27.5 -55t-49.5 -45t-80 -18.5 q-37 0 -69.5 13t-57 38.5t-40 60.5t-15.5 78q0 35 18.5 122t67.5 213t135 284.5t221 339.5h-465q-23 2 -48 5t-52 19q-29 16 -50.5 47t-21.5 76z" />
<glyph unicode="8" horiz-adv-x="1236" d="M59 420q0 90 25 148.5t58.5 95t67.5 54t52 25.5q-16 12 -44 34t-53.5 57.5t-44 86t-18.5 119.5q0 66 27 146t96 143q59 53 159.5 91t231.5 38q111 0 206.5 -28.5t165 -81t108.5 -127t39 -168.5q0 -66 -18.5 -113t-37.5 -76q-29 -43 -58 -65.5t-60 -40.5q23 -12 57.5 -36 t67 -64t56 -99t23.5 -141q0 -78 -30.5 -157t-98 -142.5t-173 -102.5t-255.5 -39q-133 0 -235.5 36t-172 97.5t-105.5 141.5t-36 168zM412 444q0 -31 11 -59.5t28 -48.5q31 -35 73.5 -47.5t87.5 -12.5q14 0 35 1.5t44.5 7.5t47 19t41.5 38q20 27 26.5 55.5t6.5 51.5 q0 18 -7 45.5t-27.5 52t-60 43t-102.5 18.5q-55 0 -89.5 -12t-57.5 -29q-35 -29 -46 -61.5t-11 -61.5zM438 1016q0 -33 12.5 -57.5t28.5 -38.5q33 -31 74 -38.5t70 -7.5q47 0 80.5 13.5t55 34t32 46t10.5 50.5q0 53 -42 99t-138 46q-80 0 -131.5 -41t-51.5 -106z" />
<glyph unicode="9" horiz-adv-x="1236" d="M57 958q0 111 42 203t116 156.5t171 100.5t208 36q78 0 174 -24.5t186 -104.5q59 -51 98.5 -116.5t62 -139.5t31.5 -152.5t9 -158.5q0 -119 -23.5 -248t-76.5 -234q-57 -111 -133 -171t-150 -87.5t-134 -32.5t-85 -5q-104 0 -186 27.5t-137.5 70.5t-84 93t-28.5 95 q0 37 14 65.5t38 49t53.5 32t60.5 11.5q57 0 112 -45q16 -14 28.5 -28.5t27.5 -28.5q14 -12 42.5 -32t86.5 -20q41 0 69.5 12.5t46.5 24.5q39 27 61.5 63t35 76.5t16.5 83.5l8 86q-18 -16 -42.5 -37.5t-60.5 -40t-86 -30.5t-118 -12q-106 0 -190 37.5t-142.5 102 t-89.5 148.5t-31 174zM408 983q0 -47 17 -81t44 -55.5t60.5 -30.5t64.5 -9q37 0 70.5 11t60.5 33.5t43 55.5t16 76q0 74 -51 128t-135 54q-86 0 -138 -50t-52 -132z" />
<glyph unicode=":" horiz-adv-x="555" d="M123 172q0 82 56.5 138.5t137.5 56.5q39 0 75 -15.5t61.5 -41t41 -61.5t15.5 -77q0 -39 -15.5 -74t-41 -61.5t-61.5 -41.5t-75 -15q-41 0 -76.5 15t-61 41.5t-41 61.5t-15.5 74zM123 874q0 39 15.5 75t41 61.5t61 41t76.5 15.5q39 0 75 -15.5t61.5 -41t41 -61.5t15.5 -75 q0 -41 -15.5 -76.5t-41 -61t-61.5 -41t-75 -15.5q-82 0 -138 56.5t-56 137.5z" />
<glyph unicode=";" horiz-adv-x="555" d="M117 186q0 82 52 138.5t132 56.5q43 0 83 -18.5t70.5 -56.5t49 -95t18.5 -135q0 -90 -25.5 -162t-67.5 -123t-92 -77.5t-99 -26.5q-51 0 -79 29.5t-28 66.5q0 14 7 35.5t34 40.5q12 10 25.5 15t25.5 11q53 29 62.5 61.5t9.5 55.5q-23 2 -44.5 6t-49.5 23q-10 6 -24.5 18 t-28 30.5t-22.5 45.5t-9 61zM125 879q0 39 15.5 74.5t41 61t61.5 41t76 15.5q39 0 75 -15.5t61.5 -41t41 -61t15.5 -74.5q0 -41 -15.5 -77t-41 -61.5t-61.5 -41t-75 -15.5q-82 0 -138 56.5t-56 138.5z" />
<glyph unicode="?" d="M63 1102q0 72 52.5 156.5t148.5 142.5q68 41 161 64.5t191 23.5q100 0 172 -15.5t123.5 -39t84 -50t55.5 -49.5q20 -23 40.5 -48t37 -60t26.5 -79t10 -101q0 -78 -24.5 -140.5t-61.5 -109.5t-79 -83t-76 -61q-41 -29 -63.5 -51t-45.5 -63q-8 -16 -20.5 -36t-31 -36 t-45 -27.5t-63.5 -11.5q-74 0 -130 49t-56 133q0 33 11.5 68t37.5 70q10 12 19.5 22t23.5 22.5t38 30t63 45.5q20 14 42.5 32t42 39.5t32 46t12.5 54.5q0 31 -14.5 53.5t-26.5 32.5q-18 16 -49 29.5t-89 13.5q-47 0 -92 -13t-78 -48q-12 -12 -18 -23.5t-25 -50.5 q-6 -16 -19 -36.5t-32.5 -38t-47.5 -29.5t-64 -12q-76 0 -124.5 53t-48.5 131zM426 172q0 82 56.5 138.5t138.5 56.5q39 0 74.5 -15.5t61 -41t41 -61.5t15.5 -77q0 -39 -15.5 -74t-41 -61.5t-61 -41.5t-74.5 -15q-41 0 -77 15t-61.5 41.5t-41 61.5t-15.5 74z" />
<glyph unicode="A" horiz-adv-x="1323" d="M-4 172q0 33 7 61.5t17 59.5l357 1003q16 45 36.5 76t49.5 49.5t68.5 25.5t95.5 9q76 0 127 -4t85.5 -21.5t59.5 -53.5t47 -97l348 -981q10 -33 19.5 -62.5t9.5 -62.5q0 -51 -19.5 -88t-50 -60.5t-65.5 -34.5t-66 -11q-23 0 -53.5 8t-52.5 24q-47 31 -66.5 79t-36.5 97 l-22 80h-467l-31 -106q-8 -29 -20.5 -60.5t-34 -59.5t-55 -45t-84.5 -17q-35 0 -72 12t-65.5 35.5t-47 59.5t-18.5 85zM512 578h289l-146 495z" />
<glyph unicode="B" horiz-adv-x="1409" d="M94 209v1016q0 47 5 82.5t32 72.5q35 45 78 55.5t86 10.5h522q45 0 92 -2t95.5 -9.5t93.5 -23.5t84 -43q51 -35 78.5 -80t41 -87t16.5 -75.5t3 -46.5q0 -61 -19.5 -117.5t-54.5 -97.5q-41 -47 -91 -68.5t-114 -27.5q23 -4 51.5 -10t59.5 -17.5t61.5 -30t59.5 -46.5 q39 -41 64.5 -104.5t25.5 -151.5q0 -80 -25.5 -156t-81.5 -133q-41 -41 -88 -64.5t-98 -36t-105.5 -15.5t-109.5 -3h-569q-27 0 -63 8t-70 41q-43 41 -51.5 84t-8.5 76zM506 315h264q35 0 69.5 4.5t63.5 26.5q31 23 43 51.5t12 61.5t-10 55.5t-24 34.5q-29 29 -68 35t-108 6 h-242v-275zM508 885h221q61 0 98 5t64 28q14 12 24.5 34.5t10.5 53.5q0 41 -16.5 65.5t-37.5 34.5q-25 16 -55.5 18t-58.5 2h-250v-241z" />
<glyph unicode="C" horiz-adv-x="1409" d="M37 713q0 156 40 306t148 265q100 104 232.5 149.5t279.5 45.5q115 0 225.5 -21.5t206.5 -81.5q23 -14 57 -41.5t66.5 -67.5t55 -90.5t22.5 -111.5q0 -33 -12 -67.5t-35 -62.5t-58.5 -46.5t-80.5 -18.5q-43 0 -74 13.5t-51.5 30t-32.5 34t-18 27.5q-4 6 -10.5 19.5 t-14.5 29.5t-15 29.5t-12 19.5q-35 53 -88 72.5t-102 19.5q-86 0 -151.5 -40t-102.5 -113q-29 -55 -40 -130t-11 -147q0 -98 22.5 -197.5t81.5 -164.5q41 -45 93.5 -66.5t109.5 -21.5q68 0 113 17t71.5 41t41 48.5t20.5 40.5q8 20 15 41t18 39q6 10 17 26.5t29.5 33t46 27.5 t66.5 11q72 0 122 -50t50 -148q0 -70 -28.5 -140.5t-81.5 -126.5q-55 -61 -127 -97t-142.5 -54.5t-131 -23.5t-97.5 -5q-147 0 -285.5 41t-244.5 141q-68 63 -108 137t-61.5 149t-27.5 147t-6 133z" />
<glyph unicode="D" horiz-adv-x="1449" d="M98 217v1010q2 35 8.5 74.5t36.5 76.5q20 25 47 39.5t52.5 20.5t48 7t39.5 1h364q31 0 78 -3t101.5 -12.5t112.5 -29t114 -53.5q63 -39 118.5 -98.5t96.5 -137.5t65.5 -175t24.5 -212q0 -150 -49 -289t-154 -246q-68 -70 -139.5 -107.5t-150 -56t-164.5 -22.5t-183 -4 h-231q-35 0 -72 4t-74 25q-33 18 -50 42.5t-26.5 51.5t-11.5 51.5t-2 42.5zM510 326h115q47 0 93 4t88 18t77 44t59 81q25 51 35 124t10 130q0 117 -26.5 194.5t-59.5 114.5q-27 31 -59.5 48.5t-69.5 26.5t-73.5 11t-73.5 2h-115v-798z" />
<glyph unicode="E" horiz-adv-x="1236" d="M94 209v1028q0 29 5 65.5t24.5 68.5t61.5 54.5t120 22.5h686q39 -2 77 -4t73 -19q39 -20 62.5 -57t23.5 -84q0 -23 -11.5 -57.5t-46.5 -61.5q-35 -25 -78.5 -28.5t-103.5 -6.5h-483v-227h465q29 -2 57.5 -6t56.5 -20q35 -20 55.5 -52t20.5 -73q0 -43 -20 -74 q-16 -29 -40 -45.5t-48.5 -24.5t-47 -10t-36.5 -2h-463v-279h543q31 -2 68.5 -7t72.5 -31q29 -23 41 -53.5t12 -65.5q0 -41 -16.5 -69t-32.5 -42q-39 -35 -93.5 -41t-119.5 -8h-678q-35 2 -77 8t-77 37q-37 33 -44 78t-9 86z" />
<glyph unicode="F" horiz-adv-x="1236" d="M98 207v1020q2 29 4 58.5t17 60.5q18 39 42.5 59t51.5 29.5t51.5 11.5t42.5 2h752q23 -2 53.5 -7t58.5 -24q31 -20 49.5 -55t18.5 -74q0 -35 -16.5 -68.5t-44.5 -54.5q-29 -23 -61 -27.5t-58 -7.5h-551v-239h459q31 -2 64.5 -6t68.5 -27q23 -14 36 -31.5t19 -34t7 -29.5 t1 -22q0 -25 -5 -43t-11 -32q-14 -31 -35.5 -48.5t-44.5 -25.5t-43 -10t-35 -2h-483v-375q-2 -29 -7 -67t-30 -75q-20 -31 -62 -57t-108 -26q-104 0 -162 81q-29 41 -34 77t-5 69z" />
<glyph unicode="G" horiz-adv-x="1536" d="M39 717q0 170 51 311t146.5 242.5t231.5 158t306 56.5q133 0 242.5 -31t188.5 -83t123 -118.5t44 -136.5q0 -68 -50 -120t-130 -52q-45 0 -79 19.5t-54 42.5q-10 10 -18.5 23t-18.5 26q-6 8 -21.5 25.5t-42 35t-67.5 30.5t-96 13q-90 0 -156 -33.5t-109 -92t-63.5 -136.5 t-20.5 -164q0 -104 24 -185t67 -136.5t101 -84t128 -28.5q39 0 87 10t89 35q109 59 127 184h-137q-33 0 -68 3.5t-63 19.5q-39 20 -59.5 56t-20.5 79q0 41 18.5 71.5t46.5 51.5q29 18 53.5 22.5t53.5 6.5h377q29 0 57.5 -4.5t56.5 -20.5q41 -29 49.5 -73t10.5 -97v-420 q-2 -53 -5 -88t-14 -63q-16 -37 -49 -64.5t-86 -27.5q-43 0 -76 20q-47 29 -56 66.5t-13 68.5q-18 -20 -44 -44.5t-71 -51.5q-82 -47 -163 -59.5t-146 -12.5q-49 0 -103.5 6.5t-111.5 22.5t-116.5 48t-117.5 85q-68 59 -112.5 130t-71.5 146.5t-38 154.5t-11 157z" />
<glyph unicode="H" horiz-adv-x="1449" d="M94 233v990q2 35 7 74.5t32 80.5q20 35 61.5 62.5t104.5 27.5q31 0 66.5 -11t67.5 -38.5t52.5 -75t20.5 -118.5v-307h438v299q2 35 5 70.5t24 72.5q29 53 76 80.5t102 27.5q39 0 78 -15t71 -52q37 -41 44.5 -82t9.5 -78v-1003q-2 -33 -6.5 -68t-20.5 -74 q-18 -41 -42.5 -63.5t-49.5 -34.5t-48.5 -15t-37.5 -3q-45 0 -86 17t-68 50q-35 41 -42 89t-9 95v365h-438v-363q-2 -37 -7 -78.5t-32 -82.5q-29 -47 -75 -69.5t-95 -22.5q-94 0 -152 73q-37 47 -43 95.5t-8 84.5z" />
<glyph unicode="I" horiz-adv-x="598" d="M90 211v1018q0 43 10.5 95t63.5 99q23 20 56.5 33.5t72.5 13.5q41 0 79 -16t66.5 -47t46 -77t17.5 -107v-1012q0 -29 -7.5 -65.5t-29.5 -73.5q-29 -43 -72 -66.5t-96 -23.5q-47 0 -91 20.5t-73 60.5q-29 39 -36 76t-7 72z" />
<glyph unicode="J" horiz-adv-x="1110" d="M-4 371q0 92 51 150.5t143 58.5q51 0 84 -18.5t50 -35.5q25 -29 34 -55.5t13 -52.5q2 -16 8 -38t19.5 -43.5t35 -35.5t58.5 -14q41 0 63.5 14t33.5 35.5t13 45.5t2 42v805q0 37 7 84t40 88q16 23 53 46t99 23q23 0 57.5 -7t69.5 -29q84 -61 84 -213v-715q0 -43 -3 -90 t-12.5 -94.5t-27 -94.5t-47.5 -86q-70 -92 -185.5 -130t-244.5 -38q-61 0 -145.5 12.5t-155.5 51.5q-55 31 -92.5 72t-61 86t-33.5 91t-10 85z" />
<glyph unicode="K" horiz-adv-x="1323" d="M106 180v1059q2 35 5.5 71t25.5 70q29 45 76 66.5t98 21.5q86 0 142.5 -60t56.5 -165v-334l403 477q23 27 60 54.5t96 27.5q39 0 73 -15t58.5 -42t38.5 -59.5t14 -65.5q0 -49 -21.5 -85t-47.5 -64l-277 -303l385 -535q16 -23 29.5 -53.5t13.5 -73.5q0 -35 -12 -68.5 t-37.5 -61.5t-63.5 -45t-87 -17q-35 0 -61.5 9t-47 23.5t-36 30.5t-27.5 33l-353 512l-100 -80v-309q-2 -29 -7 -67t-28 -73q-23 -31 -63.5 -55t-102.5 -24q-25 0 -51.5 5t-52.5 19q-35 18 -53.5 43t-28.5 49.5t-13.5 47t-3.5 36.5z" />
<glyph unicode="L" horiz-adv-x="1150" d="M94 223v983q0 20 1 46t7.5 53.5t18.5 54t35 51.5q25 25 58.5 41t82.5 16q45 0 74.5 -12t50.5 -29q29 -23 46 -51t25.5 -59t10.5 -61.5t2 -57.5v-881h432q35 0 67.5 -4t67.5 -22q47 -27 61.5 -64t14.5 -65q0 -23 -5 -42.5t-14 -33.5q-16 -31 -39.5 -48.5t-49 -25.5 t-51 -10t-44.5 -2h-655q-25 0 -55.5 5t-59.5 22q-31 18 -47 42.5t-23.5 52.5t-9.5 53.5t-2 47.5z" />
<glyph unicode="M" horiz-adv-x="1878" d="M96 205v995q0 31 3 70t18.5 75.5t50.5 64.5t100 34q8 0 18.5 1t35 1h68.5h120q47 0 94 -8t88 -56q35 -41 54.5 -99t39.5 -150l123 -566q8 -41 12.5 -64.5t7.5 -44t7 -42t10 -56.5q16 82 29.5 145.5t27 121t25.5 115t27.5 126t35 152.5t46.5 194q18 80 41.5 127.5t56.5 70 t76 28.5t100 6h127q39 0 81 -4t77 -23.5t57.5 -59.5t22.5 -114v-1020q0 -35 -3.5 -69.5t-19.5 -71.5q-23 -51 -67 -76.5t-99 -25.5q-35 0 -64.5 10t-52.5 26q-53 35 -66 84.5t-13 96.5l14 938l-66 -293l-145 -578q-14 -59 -30.5 -110.5t-43 -90t-70.5 -61t-114 -22.5 q-63 0 -105.5 24.5t-71 65.5t-47 95t-34.5 114q-23 92 -41.5 163.5t-33.5 134t-28.5 122t-28 126t-31.5 144.5t-40 180l4 -944q0 -29 -2 -56.5t-18 -62.5q-31 -63 -81 -84.5t-91 -21.5q-33 0 -67 12t-62 41q-45 43 -53.5 89t-8.5 81z" />
<glyph unicode="N" horiz-adv-x="1449" d="M92 227v1035q0 33 9.5 76.5t50.5 82.5q37 35 80.5 42t84.5 7q43 0 74 -7t54.5 -20t41 -35t33.5 -48q55 -92 109.5 -181t107.5 -182q66 -111 127.5 -222t124.5 -222l-16 709q0 31 5 61.5t26 62.5q18 31 40.5 47.5t44 24.5t41 10t29.5 2q37 0 72 -13t65 -44 q41 -45 48.5 -93t9.5 -87v-1026q0 -18 -4 -55t-23.5 -75t-62.5 -65.5t-121 -27.5q-25 0 -53.5 6t-60.5 24.5t-67.5 51t-74.5 88.5q-29 39 -79 121.5t-110.5 186t-124 215t-116.5 206.5l16 -680q-2 -35 -5 -69t-26 -68q-27 -41 -68.5 -63.5t-88.5 -22.5t-90 24 q-37 18 -57.5 45t-31 57.5t-12.5 61.5t-2 59z" />
<glyph unicode="O" horiz-adv-x="1579" d="M33 731q0 111 22.5 205t62.5 173t93 139.5t115 103.5q92 66 214 100.5t253 34.5q78 0 167 -14.5t164 -47.5q86 -35 159 -94t120 -125q63 -90 101 -218t38 -279q0 -53 -7 -124t-30.5 -147t-69.5 -153.5t-124 -145.5q-31 -27 -75 -57.5t-106.5 -56t-147.5 -43t-196 -17.5 q-82 0 -161.5 12.5t-155.5 40.5q-117 45 -208 129t-144 195q-47 90 -65.5 188.5t-18.5 200.5zM449 739q0 -18 1 -36.5t3 -36.5q16 -168 96 -267.5t237 -99.5q172 0 257 120t85 318q0 20 -2 56t-12 81.5t-33.5 94.5t-66.5 94q-49 53 -105.5 71.5t-111.5 18.5q-102 0 -169 -39 t-107 -98.5t-56 -133t-16 -143.5z" />
<glyph unicode="P" horiz-adv-x="1280" d="M94 213v995q0 25 1 51.5t9.5 54t23.5 52.5t44 45q37 27 79 31t83 4h387q78 -4 161 -11.5t160 -45.5q102 -49 172 -154t70 -260q0 -100 -30.5 -188.5t-82.5 -147.5q-47 -53 -102 -83t-114.5 -44t-119 -17t-112.5 -3h-219v-287q0 -41 -8 -74q-4 -12 -14.5 -37.5t-33 -50.5 t-59.5 -44t-90 -19q-29 0 -71 12t-81 57q-35 43 -43 83t-10 81zM506 803h158q35 0 72.5 3t72.5 21q47 27 64.5 66t17.5 74t-12.5 66.5t-40.5 56.5q-37 33 -84 39t-101 6h-147v-332z" />
<glyph unicode="Q" horiz-adv-x="1579" d="M33 731q0 172 54 311.5t153.5 238.5t240 152.5t312.5 53.5q242 0 414.5 -101.5t254.5 -281.5q41 -88 60.5 -195.5t19.5 -203.5q0 -76 -13 -165t-54 -182q-25 -53 -46.5 -81.5t-44.5 -57.5l64 -51q16 -16 33.5 -39t17.5 -63q0 -29 -13 -54.5t-33.5 -44t-46.5 -30 t-48 -11.5q-37 0 -63.5 20.5t-51.5 43.5l-59 63q-20 -10 -53 -25.5t-81.5 -29.5t-114 -23.5t-149.5 -9.5q-199 0 -335 59.5t-230 163.5q-61 68 -98 140.5t-57.5 143.5t-26.5 137.5t-6 121.5zM449 725q0 -90 19 -167t61 -135t105.5 -91t151.5 -33q41 0 67 5t46 11 q-27 23 -52.5 49.5t-25.5 71.5q0 27 11.5 52.5t30 46t43 33t52.5 12.5q27 0 47.5 -8.5t36 -20.5t26.5 -26.5t19 -24.5q25 53 33 115.5t8 121.5q0 74 -11 127.5t-38 106.5q-18 37 -43.5 69.5t-59.5 57t-80 40t-103 15.5q-59 0 -114.5 -17.5t-100.5 -54.5q-68 -55 -98.5 -144 t-30.5 -212z" />
<glyph unicode="R" horiz-adv-x="1366" d="M90 221v1016q2 29 5 57.5t22 59.5q18 33 41.5 51t50.5 27.5t51.5 12.5t42.5 3h477q125 0 230.5 -18.5t189.5 -94.5q63 -57 90 -128.5t27 -155.5q0 -98 -32 -156.5t-54 -85.5q-53 -59 -105.5 -76.5t-91.5 -25.5q41 -6 82 -16.5t77 -40t63.5 -86t43.5 -154.5 q4 -35 12.5 -83t20.5 -79q10 -23 21.5 -47.5t11.5 -50.5q0 -37 -17.5 -68t-47 -54.5t-68.5 -35.5t-82 -12q-59 0 -93 21.5t-48 33.5q-61 55 -80 121.5t-31 152.5q-4 29 -10 56.5t-19 54.5q-18 37 -43.5 56.5t-54.5 28.5t-58.5 12t-54.5 3h-155v-303q0 -39 -7.5 -81 t-39.5 -83q-29 -35 -71 -54t-87 -19q-86 0 -147 65q-41 43 -51.5 90t-10.5 86zM504 836h213q37 0 79 5t72 31q18 14 32.5 41t14.5 68q0 43 -18 78q-31 51 -81 61t-97 13h-215v-297z" />
<glyph unicode="S" horiz-adv-x="1366" d="M35 391q0 88 55 140.5t131 52.5q41 0 76 -15q41 -20 63.5 -50t32.5 -56q8 -14 13.5 -28.5t11.5 -31.5q10 -18 23.5 -35.5t31.5 -31.5q27 -23 61.5 -35t67.5 -18.5t58.5 -7.5t35.5 -1q92 0 154.5 37t62.5 97q0 31 -14 51t-45 35.5t-78 30t-110 30.5q-104 29 -173 48.5 t-116 35.5t-79 34.5t-65 45.5q-86 68 -116.5 152.5t-30.5 156.5q0 76 30.5 156t98.5 145.5t176 108.5t266 43q76 0 152 -7.5t147 -29.5q68 -20 125.5 -55t100.5 -79t66.5 -94.5t23.5 -99.5q0 -45 -15.5 -78.5t-41 -57.5t-58.5 -36t-67 -12q-45 0 -86 21.5t-70 68.5 q-6 12 -12.5 25.5t-12.5 25.5q-6 10 -12 19.5t-14 17.5q-25 25 -57.5 38t-63.5 20.5t-55.5 8.5t-32.5 1q-84 0 -136.5 -31t-52.5 -88q0 -41 30 -60.5t65 -31.5q14 -6 48 -15.5t75.5 -20.5t89 -23.5t90.5 -24t77.5 -21.5t51.5 -16q145 -55 226 -158.5t81 -238.5 q0 -66 -21.5 -144t-74.5 -143q-45 -57 -103.5 -95t-125 -61.5t-139.5 -33t-144 -9.5q-190 0 -330.5 40t-233.5 134q-66 66 -89 137.5t-23 116.5z" />
<glyph unicode="T" horiz-adv-x="1236" d="M4 1294q0 31 12.5 63t46.5 56q29 23 56.5 28t54.5 5h832q47 0 95 -8t85 -45q25 -23 36 -50.5t11 -56.5q0 -39 -17.5 -70.5t-46.5 -52.5q-35 -25 -72.5 -30t-62.5 -5h-215v-905q0 -41 -8 -80t-37 -80q-20 -29 -43.5 -45t-45 -24t-40 -10t-31.5 -2q-45 0 -78.5 13t-58.5 36 q-49 45 -60 96t-11 96v907h-197q-31 0 -64.5 5.5t-66.5 25.5q-31 20 -52.5 54t-21.5 79z" />
<glyph unicode="U" horiz-adv-x="1449" d="M96 524v660q0 59 8.5 117.5t51.5 105.5q55 61 147 61q51 0 81 -15t50 -32q55 -47 66.5 -105.5t11.5 -121.5v-684q0 -27 2 -55.5t12 -55.5q23 -53 76 -81.5t125 -28.5q86 0 125 23.5t57 45.5q12 14 18.5 26.5t9.5 31t4 48.5t1 77v659q2 47 8 101.5t45 99.5q27 31 68 49 t84 18q39 0 78 -15t69 -50q45 -47 53.5 -102.5t8.5 -102.5v-620q0 -70 -3 -133.5t-17.5 -120t-41 -107.5t-75.5 -96q-59 -55 -131 -87t-143 -47.5t-130 -18.5t-94 -3q-111 0 -218.5 21.5t-199.5 81.5q-74 47 -115 107.5t-61.5 123.5t-25.5 121.5t-5 103.5z" />
<glyph unicode="V" horiz-adv-x="1236" d="M-2 1274q0 86 58.5 140t142.5 54q53 0 89 -18t58.5 -45t34.5 -57.5t20 -55.5l123 -436q18 -72 31.5 -121t23 -92t17.5 -88t20 -111q8 39 13.5 68t11.5 55.5t14.5 56t18.5 72.5l174 607q8 23 19.5 51t33 54t55 43t82.5 17q47 0 84 -16t62.5 -44t39 -62.5t13.5 -71.5 q0 -39 -11.5 -77t-23.5 -75l-332 -923q-20 -57 -37.5 -97.5t-45 -66t-70.5 -36.5t-113 -11q-61 0 -99 13t-63.5 37.5t-42 61.5t-34.5 86l-353 1008q-6 20 -10 38.5t-4 41.5z" />
<glyph unicode="W" horiz-adv-x="1835" d="M-4 1284q0 82 55 133t142 51q57 0 93 -21.5t58.5 -52t32.5 -63.5t14 -57l84 -379q12 -61 20.5 -104t14.5 -84t13 -90.5t18 -122.5q20 111 35.5 189.5t32 160.5t39 182t57.5 252q10 37 23 70.5t36.5 60.5t60.5 42t97 15q80 0 137 -34.5t80 -145.5l112 -526 q8 -39 13.5 -68.5t10.5 -57.5t8 -57.5t9 -66.5q6 33 10.5 56.5t8.5 44t8 42t10 49.5l121 576q6 29 16.5 61.5t34.5 63.5q14 16 48 40.5t93 24.5q37 0 72 -13t62.5 -37.5t44 -59.5t16.5 -78q0 -18 -2 -37.5t-6 -38.5l-279 -1046q-8 -31 -20 -61.5t-36 -55.5t-62.5 -40 t-102.5 -15q-111 0 -161 44t-74 154l-123 537q-10 39 -15.5 67.5t-10.5 55t-10 57.5t-11 74q-4 -31 -7.5 -52.5t-7.5 -42t-8 -45t-12 -61.5l-129 -565q-10 -45 -23.5 -85t-38 -70.5t-65.5 -49t-109 -18.5q-111 0 -162 46t-77 138l-275 1014q-6 25 -10 49t-4 51z" />
<glyph unicode="X" horiz-adv-x="1150" d="M-2 164q0 47 19.5 83t41.5 70l322 465l-270 379q-18 29 -33 58.5t-15 72.5q0 39 15.5 73t41 56.5t57.5 35.5t67 13q74 0 118 -43t68 -86l154 -260l143 256q12 20 27.5 44t37 43.5t52 32.5t71.5 13t75 -15t58.5 -39.5t38 -57.5t13.5 -66q0 -41 -13.5 -67.5t-23.5 -44.5 l-275 -400l314 -483q18 -29 33.5 -61.5t15.5 -77.5q0 -27 -11.5 -58.5t-35 -58.5t-58 -44t-83.5 -17q-41 0 -71 13t-53.5 32.5t-41 45t-31.5 50.5l-186 330l-213 -359q-8 -14 -22.5 -33.5t-37 -37t-53.5 -29.5t-72 -12q-43 0 -76.5 15t-57 41.5t-37 59.5t-13.5 68z" />
<glyph unicode="Y" d="M0 1282q0 43 15.5 78t41 59.5t58 37.5t69.5 13q43 0 74 -13t52.5 -31.5t35.5 -40t25 -39.5l229 -445l193 402q12 23 28.5 52t41 55t57 43t75.5 17q45 0 82 -16t61.5 -43t38 -60.5t13.5 -68.5q0 -41 -10.5 -65.5t-22.5 -47.5l-344 -600v-368q-2 -31 -7 -60.5t-26 -64.5 q-27 -41 -68.5 -67.5t-101.5 -26.5q-70 0 -129 43q-29 23 -45 49t-23 53t-9.5 52.5t-2.5 47.5v336l-370 608q-14 25 -22.5 48.5t-8.5 62.5z" />
<glyph unicode="Z" horiz-adv-x="1280" d="M8 186q0 59 23.5 99.5t62.5 87.5l649 755h-436q-55 0 -82.5 2.5t-56.5 14.5q-59 23 -78.5 65.5t-19.5 75.5q0 39 18 75t53 58q29 16 62 22.5t73 6.5h746q31 -2 73 -6t80.5 -23.5t66.5 -58.5t28 -109q0 -68 -30 -117t-83 -110l-610 -709h485q39 0 74 -3t65 -15 q55 -23 78 -61.5t23 -75.5q0 -20 -5 -41t-14 -37q-16 -29 -38.5 -45.5t-46 -23.5t-48 -10t-43.5 -3h-837q-41 0 -79 4t-77 33q-23 14 -49.5 48t-26.5 101z" />
<glyph unicode="[" horiz-adv-x="980" d="M221 -197v1475q2 33 6 61.5t33 57.5q31 35 65.5 41t61.5 8h379q25 0 52.5 -3t55.5 -18q43 -23 58.5 -59.5t15.5 -65.5q0 -31 -20.5 -70.5t-81.5 -60.5q-25 -8 -45.5 -9t-42.5 -1h-187v-1225h207q23 -2 46.5 -4t45.5 -12q33 -16 54.5 -50t21.5 -75t-18.5 -71.5 t-46.5 -47.5q-27 -16 -52.5 -19t-48.5 -3h-387q-29 0 -56.5 3t-55.5 23q-43 29 -50.5 64t-9.5 61z" />
<glyph unicode="]" horiz-adv-x="980" d="M37 -203q0 31 20.5 71t81.5 60q23 8 44.5 9.5t43.5 1.5h187v1224h-207q-23 2 -46.5 4t-45.5 13q-35 16 -55.5 50t-20.5 75t18.5 71.5t46.5 46.5q27 16 52.5 19.5t48.5 3.5h387q29 0 56.5 -3t56.5 -24q43 -29 50 -63.5t9 -61.5v-1474q-2 -33 -6 -61.5t-33 -57.5 q-33 -35 -66.5 -41t-60.5 -8h-379q-27 0 -53.5 3t-54.5 17q-45 23 -59.5 60t-14.5 65z" />
<glyph unicode="_" horiz-adv-x="1024" d="M-20 -154h1064v-102h-1064v102z" />
<glyph unicode="`" horiz-adv-x="598" d="M76 1460q0 31 26 53q14 10 32 13.5t34 5.5h162q35 0 57.5 -8t36.5 -21.5t23.5 -31t15.5 -37.5l49 -154q10 -25 10 -43q0 -23 -9 -34t-21.5 -16t-26.5 -7t-25 -2h-86q-20 0 -34.5 3t-26.5 9t-24.5 17.5t-26.5 29.5l-146 178q-8 10 -14 20.5t-6 24.5z" />
<glyph unicode="a" horiz-adv-x="1150" d="M18 297q0 90 32 149.5t81 97.5t106.5 58.5t110.5 32.5q14 2 52 10t81 16.5t81 15.5t54 11q20 4 48 17.5t28 54.5q0 35 -29.5 60.5t-95.5 25.5q-51 0 -91 -11.5t-66 -52.5q-6 -10 -12.5 -19t-12.5 -20q-16 -27 -52 -50t-85 -23q-31 0 -61.5 10t-54 28.5t-39 46t-15.5 62.5 q0 23 10 53.5t34.5 63.5t66.5 63.5t108 53.5t129 29.5t121 6.5q37 0 90 -3t110.5 -15t114 -35.5t100.5 -67.5t71.5 -109.5t27.5 -160.5v-536q0 -20 -4 -51t-20.5 -58.5t-50.5 -48t-93 -20.5q-49 0 -81 15t-50.5 37.5t-27.5 45t-15 39.5q-23 -23 -49.5 -48.5t-67.5 -47 t-97 -35t-136 -13.5q-164 0 -257.5 82t-93.5 240zM387 332q0 -4 2 -18.5t12.5 -30t33 -26.5t63.5 -11q72 0 121 29.5t83 58.5v158q-37 -12 -60.5 -21.5t-43.5 -15.5t-43 -12.5t-53 -14.5q-16 -4 -36 -10t-37 -17.5t-29.5 -28t-12.5 -40.5z" />
<glyph unicode="b" horiz-adv-x="1236" d="M84 205v995q2 74 8 118t35 81q35 47 78 60.5t71 13.5q33 0 67 -11.5t60.5 -35t43 -59.5t16.5 -85v-324q47 68 124 98.5t163 30.5q80 0 161.5 -31.5t148 -99t107.5 -174t41 -254.5q0 -123 -33.5 -225t-95 -175t-149.5 -113t-197 -40q-92 0 -162.5 26t-136.5 87 q-8 -14 -21.5 -32.5t-33 -35t-48 -27.5t-67.5 -11q-41 0 -80 18t-63 51q-29 37 -33 78t-4 76zM451 526q0 -27 3 -75t20.5 -96t52 -82.5t100.5 -34.5q31 0 60.5 11t51.5 34q41 41 55.5 114.5t14.5 139.5q0 131 -45 204q-27 45 -63.5 64.5t-75.5 19.5q-49 0 -88 -28 q-31 -23 -48.5 -59t-25.5 -73.5t-10 -74.5t-2 -64z" />
<glyph unicode="c" horiz-adv-x="1110" d="M33 516q0 135 33.5 229.5t76.5 147.5q25 33 67 68.5t100.5 65.5t133 49.5t164.5 19.5q109 0 197 -27t149.5 -71t95 -99t33.5 -113q0 -72 -46 -120t-128 -48q-29 0 -50 8.5t-35.5 18.5t-22.5 20.5t-10 14.5q-10 14 -16.5 29.5t-16.5 29.5q-4 6 -12.5 19.5t-24.5 26 t-43 22.5t-64 10q-66 0 -104.5 -27.5t-60 -70.5t-27.5 -94.5t-6 -96.5q0 -14 1 -35.5t4 -46t10 -51t18 -51.5q29 -61 71.5 -79.5t85.5 -18.5q72 0 105.5 30.5t54.5 69.5q8 14 14 28.5t17 26.5q27 37 61.5 52.5t75.5 15.5q68 0 113 -44t45 -122q0 -61 -32 -122.5 t-94.5 -108.5t-154.5 -77t-211 -30q-104 0 -204.5 26.5t-190.5 106.5q-61 51 -95 109.5t-51.5 115t-21.5 106.5t-4 87z" />
<glyph unicode="d" horiz-adv-x="1236" d="M35 514q0 104 26.5 205.5t83 181.5t143.5 129t210 49q78 0 153.5 -28.5t128.5 -106.5v297q0 29 3 59.5t16 59.5q23 55 66.5 81.5t97.5 26.5q43 0 73.5 -15t50.5 -34q49 -47 57.5 -98t8.5 -88v-973q0 -47 -4 -93t-23 -87q-27 -51 -71.5 -74.5t-91.5 -23.5q-25 0 -53.5 8 t-54.5 24.5t-44 44t-20 68.5q-14 -18 -37 -44t-60 -50.5t-90 -41t-127 -16.5q-90 0 -170 36t-140.5 104.5t-96 169t-35.5 229.5zM428 516q0 -70 8 -107.5t17 -54.5q16 -47 54 -85t101 -38q16 0 43 6.5t56 28.5q10 8 23 22.5t25.5 43t21.5 73t9 109.5q0 61 -9 118.5t-25 92.5 t-51.5 62.5t-86.5 27.5q-23 0 -64.5 -14.5t-76.5 -73.5q-27 -47 -36 -105.5t-9 -105.5z" />
<glyph unicode="e" horiz-adv-x="1150" d="M33 541q0 113 33.5 213t102.5 175t172 119t245 44q137 0 237.5 -44t165 -115t95 -160t30.5 -177q0 -68 -28.5 -112t-92.5 -44h-583q2 -16 8 -49t25.5 -65.5t56.5 -57t100 -24.5q66 0 111 32q23 14 41 33t41 35q16 14 40.5 26.5t59.5 12.5q66 0 114 -42t48 -101 q0 -37 -29 -84t-88 -89t-148.5 -71t-207.5 -29q-152 0 -256.5 50.5t-169 131t-94 184t-29.5 208.5zM408 647h340q-4 25 -8.5 47.5t-16.5 44.5q-4 6 -12.5 19.5t-24.5 26t-42 22.5t-60 10q-49 0 -82 -18q-43 -23 -64.5 -62t-29.5 -90z" />
<glyph unicode="f" horiz-adv-x="724" d="M-12 936q0 41 17.5 66.5t43.5 39.5q23 12 42.5 14.5t53.5 2.5q0 68 2.5 119t16.5 96q25 70 71 108.5t98 57t101 22.5t76 4q35 0 62.5 -3t52.5 -7q84 -18 121.5 -61t37.5 -97q0 -16 -5 -35.5t-18 -37t-36 -29.5t-57 -12q-8 0 -34 3t-34 3q-25 0 -39 -9.5t-20 -19.5 q-10 -12 -11.5 -28.5t-1.5 -69.5q66 0 94.5 -1t49.5 -7q47 -14 68.5 -47t21.5 -76q0 -47 -38 -86t-134 -39q-14 0 -28.5 1t-31.5 1v-592q0 -31 -3 -66.5t-23 -74.5q-4 -6 -15.5 -21.5t-32 -32t-49 -28.5t-67.5 -12q-37 0 -63.5 9t-45.5 21q-33 23 -50 49.5t-25.5 55 t-10.5 60.5t-2 65v565q-20 2 -38.5 3t-41.5 11q-18 8 -46.5 35t-28.5 80z" />
<glyph unicode="g" d="M35 584q0 104 32.5 195t90 160t137.5 107.5t172 38.5q53 0 93 -12t67 -24q59 -31 87.5 -68t45.5 -61q4 18 12 45.5t26.5 53t50.5 45t83 19.5q80 0 125 -49q39 -39 45 -83t6 -85v-755q0 -59 -4 -118t-23.5 -115t-58.5 -107.5t-111 -94.5q-74 -43 -159.5 -63.5 t-171.5 -20.5q-109 0 -196 27t-148.5 69t-95.5 94t-34 103q0 70 47.5 114t110.5 44q49 0 76 -23.5t47 -52.5q33 -41 66.5 -69.5t99.5 -28.5q35 0 62.5 8t46.5 21q27 18 43 41.5t24 61.5t10 94.5t2 137.5q-16 -23 -39.5 -49t-70.5 -55q-49 -29 -92 -38t-78 -9q-86 0 -164 37 t-136.5 103.5t-92 158.5t-33.5 203zM412 590q0 -68 18.5 -111t44 -67.5t53 -33.5t47.5 -9q23 0 52.5 10t55.5 35.5t44 67.5t18 108q0 109 -46.5 167t-116.5 58q-43 0 -75 -18.5t-53.5 -49t-31.5 -71.5t-10 -86z" />
<glyph unicode="h" d="M80 215v993q0 39 5 80t26 80q16 33 38.5 52.5t45 28.5t44 12t35.5 3q27 0 60 -10t62.5 -35.5t49 -69.5t19.5 -114v-295q14 16 40.5 41t63.5 48.5t86.5 39.5t112.5 16q33 0 75 -8t84 -27.5t79.5 -54t64.5 -86.5q29 -59 35 -114.5t6 -106.5v-485q0 -35 -7 -70t-32 -70 t-65.5 -58t-89.5 -23q-59 0 -109 32q-29 20 -45 45t-24.5 49.5t-10.5 47t-2 41.5v460q-2 23 -6 46.5t-23 46.5q-16 18 -40.5 30.5t-55.5 12.5q-41 0 -70 -21q-45 -29 -54 -72t-11 -82v-409q0 -29 -5 -60.5t-24 -66.5q-29 -57 -75 -78.5t-87 -21.5q-35 0 -67.5 11t-56.5 34 q-49 41 -60.5 95t-11.5 93z" />
<glyph unicode="i" horiz-adv-x="555" d="M82 195v667q2 33 7 66t32 69q14 20 50 51t105 31q37 0 71 -13t61.5 -40t44 -69t16.5 -97v-645q0 -35 -4 -69.5t-27 -71.5q-18 -31 -40.5 -49.5t-45 -27.5t-43 -12t-33.5 -3q-59 0 -103 27.5t-67 66.5q-16 31 -19 61.5t-5 57.5zM82 1348q0 39 15.5 74.5t42 61t61.5 41 t75 15.5q39 0 75 -15.5t61.5 -41t41 -61.5t15.5 -74q0 -41 -15.5 -77t-41 -61.5t-61.5 -41t-75 -15.5q-41 0 -75.5 15.5t-61 41t-42 61.5t-15.5 77z" />
<glyph unicode="j" horiz-adv-x="555" d="M-119 -186q0 51 16.5 80.5t39 45t43 19.5t30.5 4q25 2 39 6t21.5 17.5t9.5 37t2 64.5v768q2 35 8 76t41 82q35 43 75 54t68 11q31 0 66 -10t64.5 -35.5t48 -70.5t18.5 -115v-688q-2 -86 -5 -159t-19.5 -132t-49 -104.5t-94.5 -75.5q-31 -14 -64.5 -22.5t-64.5 -12.5 t-53.5 -5t-30.5 -1q-63 0 -103 14t-61 33q-25 23 -35 53.5t-10 65.5zM82 1348q0 39 15.5 74.5t42 61t61.5 41t75 15.5q39 0 75 -15.5t61.5 -41t41 -61.5t15.5 -74q0 -41 -15.5 -77t-41 -61.5t-61.5 -41t-75 -15.5q-41 0 -75.5 15.5t-61 41t-42 61.5t-15.5 77z" />
<glyph unicode="k" horiz-adv-x="1110" d="M82 193v1015q0 47 6 95.5t41 91.5q27 33 64.5 51t82.5 18q25 0 58 -8t63.5 -33.5t52 -72.5t21.5 -125v-527l268 299q31 35 67 62.5t93 27.5q37 0 65.5 -14t49 -36.5t31 -50.5t10.5 -54q0 -47 -23.5 -82t-48.5 -62l-147 -151l219 -330q20 -31 37.5 -64.5t17.5 -78.5 q0 -39 -15.5 -73t-40 -58.5t-58 -37.5t-70.5 -13q-35 0 -62.5 11t-49 27.5t-37 35t-27.5 34.5l-195 303l-86 -84v-121q-2 -31 -7 -62.5t-32 -66.5q-20 -29 -57 -53t-97 -24q-55 0 -98 24q-35 18 -53.5 45t-28.5 52.5t-12 49t-2 40.5z" />
<glyph unicode="l" horiz-adv-x="555" d="M84 209v1032q2 37 10 83t49 89q25 25 61 41t77 16q51 0 89 -22.5t62 -54.5q29 -41 34 -78t5 -72v-1034q-2 -37 -7 -73t-32 -75q-33 -49 -76 -64t-80 -15q-39 0 -68.5 11t-49.5 27q-55 43 -64.5 96.5t-9.5 92.5z" />
<glyph unicode="m" horiz-adv-x="1835" d="M82 211v637q0 23 3 51.5t12 58t27.5 56t51.5 45.5q39 20 86 20q45 0 86 -22q33 -18 52.5 -44t28.5 -51.5t12 -48t3 -34.5q4 8 8.5 16t8.5 16q6 12 25.5 40t58.5 56.5t98 51t145 22.5q59 0 114.5 -16t103.5 -53q35 -31 51 -59.5t28 -57.5q12 23 27.5 46.5t50.5 51.5 q37 31 98.5 59.5t165.5 28.5q63 0 123 -18.5t107 -61.5q35 -31 55.5 -66.5t30.5 -74.5t12 -79t2 -83v-499q0 -31 -6 -65t-31 -68q-29 -43 -69.5 -63.5t-85.5 -20.5q-63 0 -113 38q-55 43 -67.5 92.5t-12.5 84.5v417q0 45 -2 59.5t-8 31.5q-12 39 -44 60t-71 21 q-57 0 -94 -38q-29 -31 -35 -68t-6 -80v-395q0 -43 -8 -87t-49 -85q-23 -23 -55.5 -37t-73.5 -14q-33 0 -61.5 10t-51.5 26q-33 25 -50.5 54.5t-25.5 60.5t-9 59.5t-1 51.5v381q0 18 -3 45.5t-16.5 52.5t-38 42t-67.5 17t-70 -18q-23 -16 -36 -35.5t-19 -40t-8 -40t-2 -34.5 v-413q0 -35 -7 -69t-32 -69q-29 -39 -69 -60t-83 -21q-35 0 -69.5 14t-61.5 39q-43 43 -53 91t-10 85z" />
<glyph unicode="n" d="M86 197v671q2 29 4 59.5t19 59.5q23 41 61.5 66.5t91.5 25.5q78 0 129 -55q33 -35 40 -65.5t11 -55.5q16 23 33 42.5t43 41.5q53 47 123 70.5t141 23.5q74 0 142.5 -28.5t115.5 -85.5q47 -55 58.5 -106.5t11.5 -104.5v-553q0 -33 -6 -67t-29 -73q-27 -39 -66.5 -60 t-86.5 -21q-94 0 -148 75q-29 41 -36 77t-7 75v426q0 23 -2 48.5t-16 49.5q-16 31 -44 47.5t-63 16.5q-49 0 -86 -31q-39 -35 -46 -90t-7 -117v-362q0 -27 -6 -63t-31 -71q-27 -39 -67.5 -60t-90.5 -21q-59 2 -102 30.5t-64 69.5q-14 29 -17 58.5t-3 56.5z" />
<glyph unicode="o" d="M33 539q0 150 48 256t128 171.5t183 96.5t212 31q156 0 262.5 -50.5t172 -131.5t94 -182t28.5 -202q0 -145 -44 -251.5t-120.5 -175t-181 -102.5t-225.5 -34q-96 0 -167 17.5t-120 43t-81 53t-50 50.5q-78 88 -108.5 188.5t-30.5 221.5zM418 535q0 -25 4 -73t21.5 -96.5 t53 -83t101.5 -34.5q61 0 97 29.5t54.5 71.5t22.5 88t4 81q0 123 -37 203q-18 37 -49 64.5t-90 27.5q-68 0 -104.5 -35t-54 -81t-20.5 -92t-3 -70z" />
<glyph unicode="p" horiz-adv-x="1236" d="M84 -117v969q0 41 6 82t41 84q39 47 81 58t67 11q35 0 67.5 -12t59.5 -37t36 -47t13 -43q12 14 35.5 39t59.5 47.5t86 39t120 16.5q109 0 192.5 -46.5t134.5 -105.5q70 -84 96.5 -187.5t26.5 -213.5q0 -133 -35.5 -238.5t-99 -177.5t-149.5 -110t-185 -38 q-66 0 -112.5 14.5t-78.5 34t-52.5 40t-30.5 32.5v-268q-2 -29 -7 -63.5t-32 -69.5q-23 -31 -61.5 -49.5t-83.5 -18.5q-12 0 -33 3t-44.5 12.5t-46 28t-38.5 48.5q-23 39 -28 79t-5 87zM453 537q0 -45 4 -90.5t14 -79.5q10 -39 28.5 -65t39 -40t42 -20t40.5 -6 q78 0 134 73.5t56 229.5q0 31 -3 69.5t-13 73.5q-16 53 -41 82t-49.5 43t-46 16t-27.5 2q-70 0 -117 -55q-41 -47 -51 -111.5t-10 -121.5z" />
<glyph unicode="q" horiz-adv-x="1236" d="M31 537q0 111 26.5 214t96.5 187q51 59 135 105.5t192 46.5q70 0 120 -16.5t86 -39t59.5 -47t35.5 -39.5q4 20 13.5 43t35.5 47q27 25 60 37t67 12q25 0 67 -11t81 -58q35 -43 41 -83t6 -81v-971q-2 -47 -6 -87t-27 -79q-16 -31 -38.5 -49t-46 -27.5t-44 -12.5t-33.5 -3 q-49 0 -90 21q-33 18 -51 41.5t-27.5 49t-12.5 49.5t-3 40v268q-10 -12 -30.5 -32.5t-52.5 -40t-79 -34t-112 -14.5q-98 0 -184.5 38t-150 110t-99 177t-35.5 239zM426 539q0 -156 56.5 -229.5t133.5 -73.5q37 0 67 17t50 44q6 6 14.5 20.5t16.5 42t14 71t6 106.5 q0 80 -11 124t-23 70q-27 51 -65 72.5t-79 21.5q-6 0 -27.5 -2t-46 -16t-50 -43t-40.5 -82q-10 -35 -13 -74t-3 -69z" />
<glyph unicode="r" horiz-adv-x="854" d="M84 219v633q0 18 2 42t9 49.5t20.5 50t36.5 46.5q43 39 106 39q20 0 39.5 -2t38.5 -10q37 -14 58.5 -37.5t32.5 -48.5t14 -48.5t5 -37.5q4 10 8.5 21.5t10.5 21.5q31 53 91 98t144 45q90 0 133.5 -52t43.5 -126q0 -27 -6.5 -54.5t-23 -51t-44 -41t-68.5 -21.5 q-6 0 -23.5 -1t-37 -2t-38 -2t-24.5 -1q-49 -6 -76.5 -27.5t-42 -49t-17.5 -56.5t-3 -49v-303q-2 -31 -3 -60.5t-11 -58.5q-20 -70 -70.5 -106.5t-112.5 -36.5q-37 0 -72.5 14t-62.5 43q-41 43 -49 93t-8 87z" />
<glyph unicode="s" horiz-adv-x="1067" d="M37 260q0 45 16.5 75t40 47t50 24.5t49.5 7.5q41 0 69.5 -13.5t49 -32t31.5 -37t17 -28.5q10 -18 20.5 -35.5t28 -32t42 -22.5t63.5 -8q18 0 42 3t45.5 11t36.5 23.5t15 40.5q0 20 -13 36.5t-31.5 27.5t-40 18.5t-40.5 13.5q-8 2 -30.5 9t-47 15.5t-48 14.5t-31.5 10 q-37 12 -89.5 31.5t-101.5 56.5t-84 92.5t-35 136.5q0 66 30 131.5t89 116.5q43 35 90 55.5t93.5 31t87.5 12.5t69 2q106 0 192.5 -19.5t147 -53.5t93 -80t32.5 -97q0 -66 -48 -111t-110 -45q-31 0 -55 11.5t-42.5 26.5t-30 30.5t-17.5 25.5q-8 12 -17.5 24.5t-24.5 23 t-38.5 16.5t-60.5 6q-51 0 -84 -17.5t-33 -50.5q0 -14 6 -25t27 -22q12 -6 45 -17t71.5 -23.5t72.5 -23.5t48 -16q37 -12 92.5 -34.5t108.5 -62.5t91 -100.5t38 -146.5q0 -10 -2 -38.5t-15.5 -67.5t-42 -82t-81 -78t-133 -58.5t-199.5 -23.5q-66 0 -124 5t-112 20 q-78 18 -127 47t-75 53q-41 37 -58.5 81t-17.5 89z" />
<glyph unicode="t" horiz-adv-x="768" d="M-25 938v19.5t5 21.5q8 29 23 45t32.5 24.5t35 10.5t29.5 2h76v108q2 41 10.5 84t42.5 84q14 16 46 39t90 23q35 0 68.5 -12.5t59 -37t42 -63.5t16.5 -92v-131h82q63 -2 98 -34t37 -95q0 -68 -43 -100q-27 -23 -67 -26q-24 -2 -58 -2q-22 0 -49 1v-420q0 -25 6 -46.5 t41 -29.5q8 -2 38 -4t40 -6q29 -10 57.5 -44t28.5 -93q0 -66 -30 -100.5t-68.5 -51t-74.5 -19.5t-48 -3q-41 0 -80 3t-78 13q-78 20 -123 57t-66.5 83.5t-26.5 96.5t-5 97q0 49 1 109.5t2 123t3 123t2 109.5q-26 -1 -44 -1q-20 0 -32 1q-24 2 -41 6q-41 14 -59.5 50 t-18.5 77z" />
<glyph unicode="u" d="M84 426v412q0 29 3 60.5t19 68.5q16 39 40 61.5t48.5 33.5t47 14t34.5 3q6 0 22.5 -1t38 -8t45.5 -22.5t44 -41.5q14 -18 28.5 -54.5t14.5 -124.5v-419q0 -23 4 -46.5t23 -46.5q12 -16 35.5 -30.5t56.5 -14.5q59 0 94 41q31 35 37 81t6 128v318q0 35 4 74.5t25 76.5 q23 41 63.5 65.5t95.5 24.5q59 0 91 -22.5t45 -34.5q43 -43 52 -90t9 -82v-666q0 -23 -3 -45t-13 -51q-27 -61 -74 -83.5t-88 -22.5q-33 0 -60.5 10t-50.5 26q-47 39 -57 87.5t-12 82.5q-18 -53 -52 -92t-77 -64.5t-92.5 -38.5t-98.5 -13q-55 0 -120.5 20t-118.5 68 q-39 35 -60.5 74.5t-33 84.5t-13.5 95.5t-2 103.5z" />
<glyph unicode="v" horiz-adv-x="1024" d="M0 897q0 78 52 130t130 52q43 0 72 -14t47 -33q33 -29 48.5 -64.5t31.5 -93.5q41 -133 68.5 -229t37.5 -151l23 -111l35 141l119 398q6 20 16 46.5t29.5 51t51.5 42t79 17.5q31 0 63.5 -11t58 -33.5t43 -56.5t17.5 -77q0 -23 -3 -40t-11 -40l-248 -680 q-12 -31 -26.5 -58.5t-42 -48t-72 -32.5t-111.5 -12q-59 0 -96 9t-63.5 30.5t-45 54.5t-37.5 82l-237 610q-12 33 -20.5 60.5t-8.5 60.5z" />
<glyph unicode="w" horiz-adv-x="1536" d="M0 899q0 72 45 126t129 54q45 0 78 -16t55.5 -41t34.5 -55.5t18 -59.5q4 -20 12.5 -61t18.5 -91t21.5 -105.5t20.5 -104.5t16.5 -88t11.5 -56l26 154l66 334q4 23 14.5 55.5t32 62t59 51t99.5 21.5q61 0 101 -18.5t62.5 -46t34 -60t17.5 -61.5q20 -102 33.5 -169 t23.5 -123t18.5 -112.5t20.5 -134.5q4 29 6 49.5t5 38t6.5 37t7.5 45.5l77 381q4 20 13.5 50t30 57.5t54.5 47t87 19.5q74 0 125 -53t51 -133q0 -27 -5 -49.5t-11 -48.5l-185 -611q-14 -45 -29.5 -85t-50.5 -68q-35 -31 -72.5 -37t-86.5 -6q-66 0 -106 10t-65.5 32.5 t-40 59.5t-26.5 92q-25 119 -47.5 237t-44.5 236q-8 -41 -25.5 -121.5t-37 -167.5t-37 -161t-27.5 -99q-25 -63 -76 -90.5t-137 -27.5q-57 0 -95 14t-61.5 35.5t-36 48.5t-18.5 49l-191 656q-10 31 -15 55t-5 53z" />
<glyph unicode="x" horiz-adv-x="1024" d="M0 162q0 23 5 41t18.5 39.5t37 51.5t60.5 75l153 178l-129 141q-33 39 -56 68.5t-38.5 54.5t-23 48.5t-7.5 51.5q0 35 15.5 66t41 53.5t57.5 35.5t67 13q39 0 69.5 -14t55 -37.5t45 -52.5t39.5 -55l92 -142l121 178q33 47 69.5 85t102.5 38q37 0 69.5 -13t57 -36.5 t39 -55.5t14.5 -69q0 -55 -27.5 -100t-64.5 -92l-142 -162l185 -205q33 -37 66.5 -84t33.5 -102q0 -37 -15.5 -70t-41 -56.5t-59 -37.5t-68.5 -14q-37 0 -65.5 13t-53.5 34.5t-44.5 48t-37.5 51.5l-139 201l-140 -219q-29 -43 -70.5 -86t-111.5 -43q-35 0 -66.5 13t-57 37.5 t-41 57.5t-15.5 72z" />
<glyph unicode="y" horiz-adv-x="1024" d="M-2 897q0 39 14.5 73t39 58.5t58 37.5t70.5 13q43 0 73 -14t49.5 -34.5t29.5 -44t16 -42.5q27 -90 45.5 -154.5t35.5 -124t35.5 -124t43.5 -154.5l53 209l92 313q6 23 18.5 52.5t34 55t54.5 44t82 18.5q37 0 69.5 -13t57 -35.5t39 -55.5t14.5 -70q0 -33 -9 -60.5 t-20 -56.5l-370 -938q-14 -37 -37 -76.5t-61 -73.5t-96 -55.5t-146 -21.5q-119 0 -198 50.5t-79 125.5q0 47 33 90t92 43q23 0 42.5 -6t37.5 -14q18 -6 39 -6q35 0 61.5 19.5t26.5 54.5q0 12 -4 23t-10 26q-35 86 -63 152.5t-50.5 123.5t-43 110.5t-43 113t-50 131 t-62.5 167.5q-6 18 -10 35t-4 35z" />
<glyph unicode="z" horiz-adv-x="1024" d="M-2 156q0 59 35 106t92 107l381 405h-320q-20 0 -38.5 3t-41.5 16q-23 12 -36 29.5t-20 34.5t-9 32.5t-2 25.5q0 18 5 43t22 48q31 41 75.5 49t83.5 8h580q35 0 67.5 -6t67.5 -31q6 -4 17.5 -13t21.5 -26.5t18.5 -42t8.5 -59.5q0 -57 -22.5 -93t-53.5 -69l-420 -432h332 q29 0 60.5 -4t62.5 -25q37 -27 47 -59.5t10 -55.5q0 -29 -10.5 -55t-30.5 -47q-33 -31 -75 -38t-91 -7h-612q-37 0 -78 7t-76 36q-51 41 -51 113z" />
<glyph unicode="{" horiz-adv-x="724" d="M6 541q0 37 8.5 60.5t21.5 39.5t29.5 25.5t34.5 17.5q14 6 32 15.5t31 27.5t22.5 51t9.5 86q0 8 -1 33t-1 29v161q0 57 6 123t39.5 122.5t104.5 93t202 36.5q53 0 87 -6t58 -29q12 -14 23.5 -37.5t11.5 -62.5q0 -23 -6 -44t-25 -44q-18 -23 -36.5 -31t-39.5 -12 q-31 -8 -56 -23.5t-25 -68.5v-24.5t2 -24.5v-74q0 -66 -1 -113t-4.5 -80.5t-10.5 -59.5t-17 -48q-29 -59 -81 -90t-89 -35q-4 -2 -14.5 -4t-10.5 -6q0 -6 10.5 -8t14.5 -5q18 -4 45 -12t55 -31q51 -41 73.5 -92t27.5 -129q0 -6 1 -19t1 -29.5v-31v-20.5v-105q0 -45 1 -74.5 t8 -49t21.5 -30.5t40.5 -20q18 -6 39 -14t37 -22.5t27.5 -35t11.5 -53.5q0 -31 -6 -56t-23.5 -43.5t-50.5 -29t-88 -10.5q-16 0 -40.5 1t-57.5 5q-68 10 -113 30t-80 60q-27 31 -41 62t-21 65.5t-9 73.5t-2 82v133q0 72 -3.5 118t-12.5 73.5t-26.5 44t-48.5 30.5 q-45 20 -70.5 49t-25.5 89z" />
<glyph unicode="}" horiz-adv-x="724" d="M6 -238q0 20 6 43t25 45q18 23 36.5 30t39.5 11q31 8 56.5 23.5t25.5 69.5v25.5t-2 25.5v69q0 66 1 113t4 81t10 59.5t17 50.5q27 57 80 88.5t90 35.5q4 0 14.5 2.5t10.5 6.5q0 6 -10.5 9t-14.5 3q-18 4 -44.5 12t-55.5 33q-51 39 -73.5 91t-26.5 130q0 6 -1 19.5t-1 30 v29.5v20v106q0 45 -1.5 74.5t-8.5 49t-21.5 31t-40.5 19.5q-18 6 -39 14.5t-37 21.5t-27.5 34.5t-11.5 54.5q0 31 6 56.5t23.5 44t50.5 28.5t88 10q16 0 41 -2t57 -6q68 -10 113 -29.5t80 -58.5q27 -31 41 -62.5t21.5 -66.5t9.5 -73t2 -81v-133q0 -74 3 -119t12 -73.5 t26.5 -45t48.5 -30.5q43 -20 69.5 -48t26.5 -89q0 -72 -29.5 -99.5t-64.5 -42.5q-16 -6 -32.5 -16t-30 -28.5t-22.5 -51.5t-9 -86q0 -8 1 -32.5t1 -28.5v-160q0 -57 -6.5 -122.5t-40 -122t-104.5 -93.5t-202 -37q-53 0 -86.5 7.5t-58.5 29.5q-12 12 -23.5 35.5t-11.5 64.5z " />
<glyph unicode="&#xa1;" horiz-adv-x="555" d="M41 207v211q0 23 1 39t3 31.5t4 32t6 38.5l39 281q4 20 9.5 41.5t21.5 44.5q18 27 48 38t58 11q14 0 35 -4t42.5 -17.5t37.5 -38t23 -65.5l39 -307q4 -39 6 -59.5t2 -65.5v-205q0 -27 -3 -56.5t-14 -60.5q-16 -43 -41.5 -67.5t-52 -35.5t-49.5 -13.5t-33 -2.5 q-63 0 -98 28t-51 58q-23 37 -28 75t-5 69zM41 1274q0 39 15.5 74.5t41 61.5t61.5 41t77 15q39 0 74.5 -15t61 -41t41 -61.5t15.5 -74.5q0 -41 -15.5 -77t-41 -61.5t-61.5 -41t-74 -15.5q-82 0 -138.5 56.5t-56.5 138.5z" />
<glyph unicode="&#xa2;" horiz-adv-x="1150" d="M41 516q0 129 30.5 217t70.5 145.5t81 87t64 42.5q70 41 124 56t81 19q-6 57 -7 97q0 14 2 37.5t12.5 45t35 37t67.5 15.5t67.5 -15.5t35 -36t12.5 -42t2 -33.5q0 -37 -6 -101q106 -14 178 -48.5t117 -77.5t64.5 -90.5t19.5 -86.5q0 -72 -45.5 -120t-128.5 -48 q-29 0 -50.5 8.5t-36 18.5t-22.5 20.5t-10 14.5q-10 14 -16.5 29.5t-14.5 29.5q-4 6 -13.5 19.5t-25.5 26t-41.5 22.5t-62.5 10q-66 0 -106 -27.5t-61.5 -69.5t-27.5 -93.5t-6 -96.5q0 -14 1 -35.5t4 -46t10 -51t18 -51.5q29 -59 70.5 -78.5t88.5 -19.5q72 0 105 30.5 t53 69.5q8 14 14.5 27.5t16.5 27.5q45 68 137 68q70 0 113 -44t43 -122q0 -47 -20.5 -100t-67.5 -99.5t-122 -82t-181 -50.5q4 -35 5 -56t1 -36q0 -18 -2 -41.5t-14.5 -44t-36 -35t-66.5 -14.5t-66.5 13.5t-34 31.5t-12.5 37.5t-2 32.5q0 12 1 33.5t7 80.5q-27 4 -57.5 11.5 t-65 19.5t-73.5 34.5t-78 57.5q-61 53 -95 111.5t-51.5 115t-21.5 106.5t-4 87z" />
<glyph unicode="&#xa3;" horiz-adv-x="1323" d="M35 248q0 59 21.5 109.5t60.5 86t89 56t109 20.5q49 0 78 -10t51 -21q-8 23 -15 39.5t-14 30.5t-17.5 28.5t-26.5 37.5h-135q-18 2 -40 7t-44 21q-10 8 -21.5 25.5t-11.5 46.5q0 23 14 52.5t55 41.5q33 8 91 6q-14 29 -34 84.5t-20 141.5q0 115 45 194.5t117 128.5 t161 71.5t177 22.5q123 0 214 -32.5t149.5 -84t87 -111.5t28.5 -116q0 -45 -14 -78.5t-39 -56t-55.5 -34t-61.5 -11.5q-39 0 -65.5 13.5t-45 31t-28.5 34.5t-14 26q-4 10 -9.5 22t-11.5 23q-14 27 -32.5 41t-37 21t-34 8t-23.5 1q-76 0 -117 -36.5t-41 -98.5 q0 -53 21.5 -105.5t46.5 -99.5h162q23 -2 45 -4t45 -16q45 -29 45 -82q0 -27 -12 -47q-20 -35 -52 -42t-61 -9h-84q14 -31 25.5 -67t11.5 -103q0 -37 -5 -63.5t-9 -53.5q23 -10 47 -19.5t53 -9.5q49 0 67.5 25.5t32.5 60.5q2 8 11.5 27.5t27 39t45 35t66.5 15.5 q76 0 123 -52t47 -128q0 -35 -17.5 -93.5t-56.5 -115.5t-102.5 -98t-155.5 -41q-49 0 -97 12t-89 31q-47 20 -74 38.5t-53 40.5q-16 -16 -42 -38.5t-60.5 -43t-82 -34t-106.5 -13.5q-61 0 -116.5 20.5t-97.5 56.5t-65.5 85t-23.5 109zM274 248q0 -37 27 -52.5t49 -15.5 q45 0 67 27.5t34 50.5q-10 14 -35 35.5t-66 21.5q-35 0 -55.5 -19.5t-20.5 -47.5z" />
<glyph unicode="&#xa5;" d="M4 1270q0 31 11.5 64.5t35 61t59 46t87.5 18.5q41 0 71.5 -14t52 -34.5t36 -42t22.5 -36.5l221 -432l186 387q12 25 28.5 54.5t40.5 54t56.5 42t77.5 17.5t82 -16.5t61.5 -43t38 -60t13.5 -68.5q0 -39 -10.5 -64.5t-22.5 -48.5l-150 -256q57 0 99 -20q45 -23 56 -59 t11 -50q0 -16 -5 -30.5t-9 -24.5q-27 -47 -66.5 -55.5t-68.5 -10.5h-160l-45 -78v-20h188q29 -2 52.5 -5t46.5 -14q25 -12 39 -30.5t20 -34.5t7 -29.5t1 -15.5q0 -23 -14 -55q-27 -47 -66.5 -55.5t-68.5 -10.5h-205v-100q-2 -31 -7 -60.5t-26 -64.5q-27 -41 -70.5 -67.5 t-99.5 -26.5q-72 0 -129 45q-29 23 -45 48t-23 52t-9.5 52.5t-2.5 47.5v74h-196q-27 2 -52.5 4t-48.5 12q-74 33 -73 109q0 35 15 60.5t38 37.5q27 16 58.5 20.5t62.5 6.5h196v14l-53 84h-143q-29 2 -53.5 4t-47.5 13q-74 33 -73 108q0 35 15 59.5t38 38.5t51.5 19.5 t61.5 7.5l-158 258q-14 25 -24.5 50.5t-10.5 62.5z" />
<glyph unicode="&#xa8;" horiz-adv-x="598" d="M-100 1382q0 70 49 120t121 50q37 0 67.5 -13t54 -36.5t37 -54.5t13.5 -66q0 -37 -13.5 -67.5t-37 -54t-55 -37t-66.5 -13.5q-70 0 -120 50.5t-50 121.5zM358 1382q0 70 49.5 120t120.5 50q37 0 68 -13t54.5 -36.5t36.5 -54.5t13 -66q0 -37 -13 -67.5t-36.5 -54 t-55.5 -37t-67 -13.5q-70 0 -120 50.5t-50 121.5z" />
<glyph unicode="&#xa9;" horiz-adv-x="1705" d="M125 723q0 156 58.5 290t158.5 231t232.5 152.5t279.5 55.5q158 0 291 -58.5t230.5 -157.5t152.5 -231.5t55 -279.5q0 -152 -56.5 -285t-154.5 -232t-231 -156.5t-289 -57.5q-141 0 -273.5 53t-232.5 149.5t-160.5 230.5t-60.5 296zM190 723q0 -139 52.5 -261t142.5 -211 t211 -140.5t258 -51.5q141 0 262 52.5t210 142.5t140.5 211t51.5 258q0 135 -50.5 256t-138.5 212t-209 143t-262 52t-263 -52t-212 -142t-141.5 -211t-51.5 -258zM358 723q0 104 35 197.5t100.5 164t161 111.5t215.5 41q84 0 148.5 -18.5t113 -45t83 -56.5t57.5 -54 l-178 -172q-47 47 -100.5 73.5t-125.5 26.5q-68 0 -117 -23.5t-79.5 -60.5t-45 -85t-14.5 -97q0 -119 70 -191.5t190 -72.5q45 0 81 10t63.5 24.5t46 30t31.5 27.5l178 -164q-98 -102 -198.5 -137t-203.5 -35q-127 0 -222 41t-159.5 110.5t-97.5 161t-33 193.5z" />
<glyph unicode="&#xaa;" horiz-adv-x="811" d="M45 936q0 70 24.5 106.5t51.5 59.5q47 35 117.5 52t179.5 36q23 4 48.5 14t25.5 41q0 12 -5 21q-12 23 -36.5 28.5t-47.5 5.5q-45 0 -66.5 -11t-37.5 -29q-8 -6 -20 -23q-8 -8 -27 -21.5t-57 -13.5q-49 0 -78 25.5t-29 62.5q0 27 17.5 56.5t55.5 55t97 42t143 16.5 q121 0 188.5 -30.5t99.5 -74.5t39 -90t7 -77l4 -318q0 -18 -1 -42.5t-12 -47t-34.5 -38t-66.5 -15.5q-59 0 -82 29.5t-35 60.5q-16 -16 -34.5 -31.5t-45.5 -30t-62.5 -22.5t-84.5 -8q-14 0 -39 1t-52.5 9t-56.5 23.5t-49 44.5q-39 51 -39 133zM291 956q0 -29 21.5 -42 t49.5 -13q47 0 80 20.5t56 39.5v100q-18 -6 -42 -13.5t-73 -21.5q-35 -8 -63.5 -21.5t-28.5 -48.5z" />
<glyph unicode="&#xab;" horiz-adv-x="1110" d="M70 606q0 31 9 55.5t27.5 49t48 52.5t72.5 64q49 43 83 70t57.5 40t42 18.5t36.5 5.5q57 0 88 -38t31 -83q0 -47 -28.5 -76t-63.5 -55q-37 -27 -74.5 -52.5t-74.5 -52.5q51 -35 79.5 -53.5t44 -29.5t22.5 -16t15 -11q29 -23 55.5 -51.5t26.5 -73.5q0 -61 -40 -90t-85 -29 q-12 0 -27.5 2t-41 16.5t-66.5 45t-104 87.5q-37 33 -62.5 59.5t-41 49t-22.5 45.5t-7 51zM565 606q0 31 9.5 55.5t28 49t48 52.5t72.5 64q49 43 83 70t57.5 40t42 18.5t36.5 5.5q57 0 88 -38t31 -83q0 -47 -28.5 -76t-63.5 -55q-39 -27 -76 -52.5t-74 -52.5 q51 -35 80 -53.5t44 -29.5t22.5 -16t15.5 -11q29 -23 54.5 -51.5t25.5 -73.5q0 -61 -39 -90t-84 -29q-12 0 -27.5 2t-41 16.5t-66.5 45t-105 87.5q-37 33 -62.5 59.5t-40.5 49t-22.5 45.5t-7.5 51z" />
<glyph unicode="&#xad;" horiz-adv-x="768" d="M45 598q0 39 21 72q14 25 35.5 38t44 20t44 10t35.5 3h320q25 0 52.5 -5t47.5 -15q41 -20 58.5 -56t17.5 -73q0 -25 -8 -45.5t-19 -36.5q-33 -41 -73.5 -49t-63.5 -8h-336q-23 2 -46 5t-48 13q-27 14 -54.5 44t-27.5 83z" />
<glyph unicode="&#xae;" horiz-adv-x="1705" d="M125 723q0 158 58.5 291t157.5 230t231.5 152.5t279.5 55.5q158 0 292 -58.5t231.5 -157.5t152.5 -231.5t55 -279.5q0 -152 -56.5 -285t-154.5 -232t-232 -156.5t-290 -57.5q-141 0 -272.5 53t-231.5 149.5t-160.5 230.5t-60.5 296zM190 723q0 -139 52.5 -261t142.5 -211 t210 -140.5t257 -51.5q141 0 263 52.5t211 142.5t140.5 211t51.5 260q0 135 -50.5 255t-139.5 211t-210 143t-262 52t-262 -52t-211 -142t-141.5 -211t-51.5 -258zM512 262v938h334q59 0 116.5 -3t104.5 -19q90 -29 128 -97.5t38 -134.5q0 -53 -17.5 -89t-42 -60.5t-53 -40 t-51.5 -25.5q20 -14 36.5 -26.5t29 -31t21.5 -47t18 -71.5q14 -96 29.5 -162.5t49.5 -130.5h-258q-23 43 -32 92t-19 111q-10 70 -18 107.5t-28.5 56t-57.5 22.5t-103 4v-393h-225zM737 834h99q51 0 80.5 3t50.5 15q23 12 32 35.5t9 46.5t-10.5 47.5t-39.5 36.5q-10 4 -20 6 t-26.5 3t-42 1h-64.5h-68v-194z" />
<glyph unicode="&#xaf;" horiz-adv-x="598" d="M-86 1341q0 43 15.5 69t39 38t50 15t49.5 5h458q16 0 43 -3t52.5 -15t44 -39t18.5 -72t-18.5 -70.5t-44 -37.5t-52 -16.5t-43.5 -4.5h-458q-35 0 -71 11.5t-58 38.5q-10 12 -17.5 32.5t-7.5 48.5z" />
<glyph unicode="&#xb2;" horiz-adv-x="811" d="M63 645q0 23 6.5 40t23 35.5t45 43t73.5 61.5q127 100 199.5 173t72.5 157q0 45 -25.5 70.5t-66.5 25.5q-25 0 -42 -7t-27.5 -18.5t-15.5 -22.5t-7 -17l-9 -22.5t-9 -24.5q-4 -10 -11.5 -21.5t-17.5 -19.5q-16 -16 -34.5 -22.5t-37.5 -6.5q-43 0 -72.5 28.5t-29.5 80.5 q0 39 18.5 87t57.5 90t99 70.5t144 28.5q72 0 130.5 -21.5t100.5 -60.5t64.5 -90t22.5 -113q0 -55 -17.5 -106t-55.5 -104.5t-100.5 -110.5t-152.5 -125h207q27 0 52.5 -3t47.5 -20q14 -12 23.5 -32.5t9.5 -42.5q0 -23 -9 -40.5t-22 -27.5q-25 -20 -55.5 -23.5t-58.5 -3.5 h-357q-18 0 -46.5 2.5t-54.5 13.5t-44.5 33.5t-18.5 65.5z" />
<glyph unicode="&#xb3;" horiz-adv-x="811" d="M63 713q0 43 29 73.5t78 30.5q35 0 55.5 -17.5t40.5 -43.5q16 -20 34.5 -34.5t66.5 -14.5q59 0 94 25.5t35 72.5q0 49 -32 71.5t-79 26.5q-18 2 -35.5 5t-32 11.5t-23.5 23.5t-9 44q0 51 28.5 65.5t61.5 18.5q35 6 63.5 24.5t28.5 71.5t-30.5 73t-63.5 20 q-47 0 -63.5 -18.5t-26.5 -35.5q-12 -23 -32 -44t-65 -21q-39 0 -72.5 25.5t-33.5 78.5q0 25 9 46.5t21.5 38t24.5 28.5t19 18q61 51 126.5 64.5t110.5 13.5q102 0 158.5 -28.5t87.5 -65.5q33 -39 44 -80t11 -76q0 -55 -23.5 -99t-70.5 -71q-12 -6 -24.5 -11t-24.5 -9 q8 -4 16 -6t19 -7q12 -4 35.5 -15t47 -34.5t41 -61.5t17.5 -93q0 -68 -26.5 -120t-72.5 -88t-109.5 -53.5t-137.5 -17.5q-86 0 -145.5 20.5t-97.5 49t-55.5 62.5t-17.5 63z" />
<glyph unicode="&#xb4;" horiz-adv-x="598" d="M76 1239q0 10 3 21.5t7 21.5l49 154q6 20 15.5 37.5t23.5 31t36.5 21.5t57.5 8h162q16 0 33.5 -4t34.5 -14q25 -25 24 -54q0 -14 -5 -24.5t-15 -20.5l-144 -178q-31 -39 -52 -49t-62 -10h-86q-10 0 -24.5 1t-27 7t-21.5 17.5t-9 33.5z" />
<glyph unicode="&#xb5;" d="M84 -147v985q0 31 3 62.5t19 68.5q18 39 43 62.5t49.5 33.5t46 13t31.5 3q49 0 86 -19.5t64 -53.5q29 -39 35 -79t8 -102v-419q2 -23 5 -46.5t22 -46.5q10 -16 33.5 -30.5t58.5 -14.5q57 0 94 41q31 35 36 81t7 128v320q0 35 4 74.5t25 76.5q23 39 62.5 64.5t96.5 25.5 q59 0 92 -22.5t44 -32.5q43 -45 51 -93t10 -83v-666q-2 -23 -4 -45t-12 -51q-14 -35 -35 -55.5t-43.5 -31.5t-45 -15t-36.5 -4q-66 0 -113 36q-41 31 -53 76t-16 94q-18 -45 -38 -75.5t-32 -46.5q-33 -41 -60.5 -52.5t-54.5 -11.5q-35 0 -55 11.5t-43 27.5v-176 q-2 -37 -5 -76t-26 -78q-23 -37 -61.5 -62.5t-95.5 -25.5q-59 0 -92 22.5t-44 32.5q-43 45 -51 92.5t-10 82.5z" />
<glyph unicode="&#xb7;" horiz-adv-x="468" d="M41 522q0 39 15.5 75t41 61.5t61.5 41t77 15.5q39 0 74.5 -15.5t61 -41t41 -61.5t15.5 -75q0 -41 -15.5 -76.5t-41 -61.5t-61 -41t-74.5 -15q-82 0 -138.5 56t-56.5 138z" />
<glyph unicode="&#xb8;" horiz-adv-x="598" d="M145 -225q0 25 8.5 50t27 47t47 36t69.5 14q66 0 110 -47t44 -133q0 -59 -18.5 -108.5t-39.5 -88.5q-35 -70 -64.5 -104.5t-70.5 -34.5q-23 0 -53.5 20.5t-30.5 65.5q0 35 20.5 62.5t61.5 74.5q-12 4 -30.5 14.5t-36 27t-31 42t-13.5 62.5z" />
<glyph unicode="&#xb9;" horiz-adv-x="811" d="M102 1202q0 51 32 66.5t71 21.5q53 10 78.5 28.5t48.5 53.5q18 29 40.5 52.5t71.5 23.5q12 0 32 -4t40 -21q29 -23 34 -52.5t5 -57.5v-641q0 -29 -4 -59.5t-27 -59.5q-10 -12 -31.5 -23.5t-52.5 -11.5q-29 0 -50 10.5t-36 26.5q-23 25 -25.5 56.5t-2.5 60.5v440h-107 q-12 0 -32.5 1t-39 10.5t-32 26.5t-13.5 52z" />
<glyph unicode="&#xba;" horiz-adv-x="854" d="M53 1092q0 98 31 168.5t84 115.5t122.5 65.5t147.5 20.5q14 0 42 -1t61.5 -10t72.5 -27.5t76 -51.5q57 -51 84 -120.5t27 -170.5q0 -16 -2 -48t-12.5 -70.5t-32 -80.5t-62.5 -79q-53 -47 -123.5 -67.5t-142.5 -20.5q-106 0 -178 33.5t-115 87t-61.5 121t-18.5 135.5z M309 1090q0 -37 6.5 -71t20.5 -60.5t37.5 -42t58.5 -15.5q43 0 66.5 23.5t34 53.5t12.5 58.5t2 38.5q0 37 -5 74t-20 65q-2 4 -8 14.5t-16.5 21t-26.5 18.5t-41 8q-45 0 -69.5 -23.5t-36 -55.5t-13.5 -62.5t-2 -44.5z" />
<glyph unicode="&#xbb;" horiz-adv-x="1110" d="M45 365q0 49 28.5 77.5t65.5 53.5q37 27 74 53t74 53q-49 33 -78 52.5t-44 29.5t-22.5 15.5t-15.5 11.5q-31 23 -56.5 51.5t-25.5 73.5q0 61 39 89.5t86 28.5q10 0 25.5 -2t41 -16t66.5 -45t105 -88q37 -35 62.5 -60.5t40.5 -48t22.5 -46t7.5 -50.5q0 -31 -8.5 -55.5 t-28 -49t-49 -51t-72.5 -63.5q-49 -43 -83 -69.5t-57.5 -41t-42 -19.5t-36.5 -5q-57 0 -88 37.5t-31 83.5zM541 365q0 49 28.5 77.5t65.5 53.5q37 27 73.5 53t73.5 53q-49 33 -77.5 52.5t-44 29.5t-23.5 15.5t-16 11.5q-29 23 -54.5 51.5t-25.5 73.5q0 61 38.5 89.5 t86.5 28.5q10 0 25.5 -2t41 -16t66.5 -45t104 -88q37 -35 62.5 -60.5t41 -48t22.5 -46t7 -50.5q0 -31 -9 -55.5t-27.5 -49t-48 -51t-72.5 -63.5q-49 -43 -83 -69.5t-57.5 -41t-42 -19.5t-37.5 -5q-57 0 -87.5 37.5t-30.5 83.5z" />
<glyph unicode="&#xbf;" d="M27 410q0 80 24.5 141t61.5 109.5t78.5 84t76.5 60.5q41 29 63.5 51.5t45.5 63.5q8 16 20.5 34.5t30.5 35t45 27.5t64 11q74 0 130 -48t56 -132q0 -33 -11.5 -68t-37.5 -69q-10 -12 -19.5 -23.5t-24 -24t-38 -30t-62.5 -43.5q-20 -14 -42.5 -31.5t-42 -39t-32 -46 t-12.5 -55.5t14.5 -53.5t26.5 -32.5q18 -16 49 -29.5t89 -13.5q47 0 92 13t76 48q12 12 18 23.5t25 50.5q6 16 19 36.5t32.5 38t47.5 30t64 12.5q76 0 124 -53.5t48 -131.5q0 -35 -13 -75.5t-38.5 -80.5t-62.5 -78t-84 -65q-68 -41 -162 -64.5t-191 -23.5 q-102 0 -173.5 15.5t-123 39t-84 50t-53.5 49.5q-41 43 -77.5 108.5t-36.5 178.5zM377 1286q0 39 15.5 75t41 61.5t61 41t76.5 15.5q39 0 75 -15.5t61.5 -41t41 -61.5t15.5 -75q0 -41 -15.5 -76.5t-41 -61.5t-61.5 -41t-75 -15q-82 0 -138 56t-56 138z" />
<glyph unicode="&#xc0;" horiz-adv-x="1323" d="M-4 172q0 33 7 61.5t17 59.5l357 1003q16 45 36.5 76t49.5 49.5t68.5 25.5t95.5 9q76 0 127 -4t85.5 -21.5t59.5 -53.5t47 -97l348 -981q10 -33 19.5 -62.5t9.5 -62.5q0 -51 -19.5 -88t-50 -60.5t-65.5 -34.5t-66 -11q-23 0 -53.5 8t-52.5 24q-47 31 -66.5 79t-36.5 97 l-22 80h-467l-31 -106q-8 -29 -20.5 -60.5t-34 -59.5t-55 -45t-84.5 -17q-35 0 -72 12t-65.5 35.5t-47 59.5t-18.5 85zM387 1772q0 37 27.5 48t60.5 13h166q41 0 58.5 -21.5t23.5 -35.5l49 -115q4 -12 9 -26.5t5 -26.5q0 -16 -8 -25.5t-19 -14.5t-21.5 -6t-14.5 -1h-102 q-16 0 -28.5 2t-29.5 12q-12 6 -30.5 22.5t-40 37t-42 43t-38.5 40.5q-8 10 -16.5 21.5t-8.5 32.5zM512 578h289l-146 495z" />
<glyph unicode="&#xc1;" horiz-adv-x="1323" d="M-4 172q0 33 7 61.5t17 59.5l357 1003q16 45 36.5 76t49.5 49.5t68.5 25.5t95.5 9q76 0 127 -4t85.5 -21.5t59.5 -53.5t47 -97l348 -981q10 -33 19.5 -62.5t9.5 -62.5q0 -51 -19.5 -88t-50 -60.5t-65.5 -34.5t-66 -11q-23 0 -53.5 8t-52.5 24q-47 31 -66.5 79t-36.5 97 l-22 80h-467l-31 -106q-8 -29 -20.5 -60.5t-34 -59.5t-55 -45t-84.5 -17q-35 0 -72 12t-65.5 35.5t-47 59.5t-18.5 85zM512 578h289l-146 495zM535 1610q0 12 5 26.5t9 26.5l51 115q6 14 22.5 35.5t57.5 21.5h168q33 -2 60.5 -13.5t27.5 -47.5q0 -20 -14 -41 q-4 -4 -18.5 -19.5t-33 -35t-40 -40t-37.5 -34.5q-31 -29 -49.5 -35t-41.5 -6h-102q-4 0 -15.5 1t-22.5 6t-19 14t-8 26z" />
<glyph unicode="&#xc2;" horiz-adv-x="1323" d="M-4 172q0 33 7 61.5t17 59.5l357 1003q16 45 36.5 76t49.5 49.5t68.5 25.5t95.5 9q76 0 127 -4t85.5 -21.5t59.5 -53.5t47 -97l348 -981q10 -33 19.5 -62.5t9.5 -62.5q0 -51 -19.5 -88t-50 -60.5t-65.5 -34.5t-66 -11q-23 0 -53.5 8t-52.5 24q-47 31 -66.5 79t-36.5 97 l-22 80h-467l-31 -106q-8 -29 -20.5 -60.5t-34 -59.5t-55 -45t-84.5 -17q-35 0 -72 12t-65.5 35.5t-47 59.5t-18.5 85zM348.5 1599.5q-4.5 20.5 0.5 42t17.5 43t24.5 41.5q27 43 52.5 72t51 45.5t54.5 23.5t63 9q45 2 78 1t56.5 -5t41 -11.5t33.5 -17.5q8 -6 34 -30.5 t52.5 -56.5t47 -68.5t20.5 -69.5q0 -49 -40 -72.5t-81 -23.5q-47 0 -86 32q-10 8 -18.5 17.5t-19.5 25t-26 42t-42 71.5q-16 -25 -33 -49.5t-33 -48.5q-23 -31 -52.5 -61.5t-76.5 -30.5q-33 0 -58.5 12t-37.5 27q-18 20 -22.5 40.5zM512 578h289l-146 495z" />
<glyph unicode="&#xc3;" horiz-adv-x="1323" d="M-4 172q0 33 7 61.5t17 59.5l357 1003q16 45 36.5 76t49.5 49.5t68.5 25.5t95.5 9q76 0 127 -4t85.5 -21.5t59.5 -53.5t47 -97l348 -981q10 -33 19.5 -62.5t9.5 -62.5q0 -51 -19.5 -88t-50 -60.5t-65.5 -34.5t-66 -11q-23 0 -53.5 8t-52.5 24q-47 31 -66.5 79t-36.5 97 l-22 80h-467l-31 -106q-8 -29 -20.5 -60.5t-34 -59.5t-55 -45t-84.5 -17q-35 0 -72 12t-65.5 35.5t-47 59.5t-18.5 85zM299 1604q0 23 8 69.5t29 83.5q6 12 17.5 29.5t30.5 33t49 25.5t71 10t76.5 -10t64.5 -20q27 -10 53.5 -21.5t55.5 -21.5q8 -2 23.5 -6t31.5 -4 q6 0 25.5 5t35.5 33q4 10 8.5 19.5t10.5 19.5q10 16 23.5 24.5t37.5 8.5q41 0 60.5 -26.5t19.5 -61.5q0 -29 -10 -66.5t-27 -70.5q-6 -14 -18 -32.5t-30.5 -34t-46.5 -27t-67 -11.5q-41 0 -79.5 10.5t-75.5 22.5q-45 16 -73 25.5t-43 14.5t-24.5 6t-17.5 1q-29 0 -39 -14 t-14 -27q-10 -27 -26.5 -51t-59.5 -24q-10 0 -23.5 4t-26 13t-21.5 26.5t-9 44.5zM512 578h289l-146 495z" />
<glyph unicode="&#xc4;" horiz-adv-x="1323" d="M-4 172q0 33 7 61.5t17 59.5l357 1003q16 45 36.5 76t49.5 49.5t68.5 25.5t95.5 9q76 0 127 -4t85.5 -21.5t59.5 -53.5t47 -97l348 -981q10 -33 19.5 -62.5t9.5 -62.5q0 -51 -19.5 -88t-50 -60.5t-65.5 -34.5t-66 -11q-23 0 -53.5 8t-52.5 24q-47 31 -66.5 79t-36.5 97 l-22 80h-467l-31 -106q-8 -29 -20.5 -60.5t-34 -59.5t-55 -45t-84.5 -17q-35 0 -72 12t-65.5 35.5t-47 59.5t-18.5 85zM256 1702q0 70 49 120t121 50q37 0 67.5 -13.5t54 -37t37 -54t13.5 -65.5q0 -37 -13.5 -67.5t-37 -54.5t-55 -37t-66.5 -13q-70 0 -120 50t-50 122z M512 578h289l-146 495zM715 1702q0 70 49 120t121 50q37 0 67.5 -13.5t54 -37t37 -54t13.5 -65.5q0 -37 -13.5 -67.5t-37 -54.5t-55 -37t-66.5 -13q-70 0 -120 50t-50 122z" />
<glyph unicode="&#xc5;" horiz-adv-x="1323" d="M-4 172q0 33 7 61.5t17 59.5l357 1003q16 45 36.5 76t49.5 49.5t68.5 25.5t95.5 9q76 0 127 -4t85.5 -21.5t59.5 -53.5t47 -97l348 -981q10 -33 19.5 -62.5t9.5 -62.5q0 -51 -19.5 -88t-50 -60.5t-65.5 -34.5t-66 -11q-23 0 -53.5 8t-52.5 24q-47 31 -66.5 79t-36.5 97 l-22 80h-467l-31 -106q-8 -29 -20.5 -60.5t-34 -59.5t-55 -45t-84.5 -17q-35 0 -72 12t-65.5 35.5t-47 59.5t-18.5 85zM459 1696q0 41 15 76.5t43 63.5t64.5 44t80.5 16q41 0 77.5 -16t64 -44t43 -63.5t15.5 -76.5q0 -86 -58 -144.5t-142 -58.5q-86 0 -144.5 58.5 t-58.5 144.5zM512 578h289l-146 495zM588 1696q0 -31 21.5 -52.5t52.5 -21.5q29 0 50 21.5t21 52.5q0 29 -21.5 50t-49.5 21q-31 0 -52.5 -21t-21.5 -50z" />
<glyph unicode="&#xc6;" horiz-adv-x="1921" d="M0 172q0 29 6 51.5t17 50.5l376 1018q37 98 88.5 127t137.5 29h1048q33 0 62.5 -3t58.5 -13q45 -18 69.5 -57.5t24.5 -88.5q0 -47 -19.5 -73.5t-35.5 -41.5q-39 -29 -84 -35t-68 -6h-452v-223h397q25 0 52.5 -3t54.5 -13q41 -18 63.5 -56t22.5 -81q0 -27 -6.5 -46.5 t-16.5 -33.5q-16 -27 -37.5 -41.5t-45 -20.5t-46 -7t-43.5 -1h-395v-287h495q23 0 50.5 -4t58.5 -20q76 -45 76 -133q0 -39 -17.5 -74t-52.5 -57q-29 -18 -58.5 -22.5t-58.5 -6.5h-665q-35 2 -64.5 5t-64.5 22q-35 16 -53.5 38.5t-28.5 47t-12.5 47t-2.5 41.5q0 16 1.5 32.5 t1.5 32.5h-406l-35 -110q-10 -25 -22.5 -55.5t-35 -56.5t-56 -44t-82.5 -18q-86 0 -141.5 55t-55.5 135zM532 571h299v557h-112z" />
<glyph unicode="&#xc7;" horiz-adv-x="1409" d="M37 713q0 156 40 306t148 265q98 104 233.5 149.5t276.5 45.5q115 0 225.5 -21.5t206.5 -81.5q23 -16 58 -43.5t66.5 -67.5t54 -90.5t22.5 -109.5q0 -35 -11 -68.5t-35 -62.5t-58.5 -46.5t-81.5 -17.5q-43 0 -74 13.5t-51.5 31t-32.5 35t-16 25.5q-4 6 -11.5 19.5 t-14.5 29.5t-15.5 29.5t-10.5 19.5q-37 53 -91 72.5t-101 19.5q-37 0 -68 -8q-68 -16 -112.5 -54t-71.5 -91q-29 -55 -40 -129t-11 -148q0 -47 4 -96t16.5 -97t31.5 -92t50 -77q78 -88 205 -88q68 0 112 17t71.5 41t41 48.5t19.5 40.5q8 20 16 41t19 39q4 10 15 26.5 t29.5 33t46 27.5t66.5 11q76 0 125 -52t49 -144q0 -72 -29.5 -142.5t-82.5 -126.5q-55 -61 -126 -97t-141.5 -54.5t-132 -23.5t-98.5 -5q-145 0 -283.5 41t-244.5 141q-68 63 -108 137t-61.5 149t-27.5 147t-6 133zM551 -225q0 25 8 51.5t26.5 48t47.5 35.5t69 14 q66 0 110 -47t44 -133q0 -59 -18.5 -108.5t-38.5 -88.5q-35 -70 -64.5 -104.5t-70.5 -34.5q-10 0 -24.5 5t-28 15.5t-22.5 26t-9 37.5q0 35 20.5 63.5t61.5 75.5q-12 4 -31 14.5t-36 27t-30.5 42t-13.5 60.5z" />
<glyph unicode="&#xc8;" horiz-adv-x="1236" d="M94 209v1028q0 29 5 65.5t24.5 68.5t61.5 54.5t120 22.5h686q39 -2 77 -4t73 -19q39 -20 62.5 -57t23.5 -84q0 -23 -11.5 -57.5t-46.5 -61.5q-35 -25 -78.5 -28.5t-103.5 -6.5h-483v-227h465q29 -2 57.5 -6t56.5 -20q35 -20 55.5 -52t20.5 -73q0 -43 -20 -74 q-16 -29 -40 -45.5t-48.5 -24.5t-47 -10t-36.5 -2h-463v-279h543q31 -2 68.5 -7t72.5 -31q29 -23 41 -53.5t12 -65.5q0 -41 -16.5 -69t-32.5 -42q-39 -35 -93.5 -41t-119.5 -8h-678q-35 2 -77 8t-77 37q-37 33 -44 78t-9 86zM365 1772q0 37 27.5 48t60.5 13h165 q41 0 58.5 -21.5t23.5 -35.5l50 -115q4 -12 9 -26.5t5 -26.5q0 -16 -8 -25.5t-19.5 -14.5t-21.5 -6t-15 -1h-102q-16 0 -28.5 2t-28.5 12q-12 6 -30.5 22.5t-40 37t-42 43t-39.5 40.5q-8 10 -16 21.5t-8 32.5z" />
<glyph unicode="&#xc9;" horiz-adv-x="1236" d="M94 209v1028q0 29 5 65.5t24.5 68.5t61.5 54.5t120 22.5h686q39 -2 77 -4t73 -19q39 -20 62.5 -57t23.5 -84q0 -23 -11.5 -57.5t-46.5 -61.5q-35 -25 -78.5 -28.5t-103.5 -6.5h-483v-227h465q29 -2 57.5 -6t56.5 -20q35 -20 55.5 -52t20.5 -73q0 -43 -20 -74 q-16 -29 -40 -45.5t-48.5 -24.5t-47 -10t-36.5 -2h-463v-279h543q31 -2 68.5 -7t72.5 -31q29 -23 41 -53.5t12 -65.5q0 -41 -16.5 -69t-32.5 -42q-39 -35 -93.5 -41t-119.5 -8h-678q-35 2 -77 8t-77 37q-37 33 -44 78t-9 86zM512 1610q0 12 5 26.5t9 26.5l52 115 q6 14 22 35.5t57 21.5h168q33 -2 60.5 -13.5t27.5 -47.5q0 -20 -14 -41q-4 -4 -18.5 -19.5t-33 -35t-40 -40t-37.5 -34.5q-31 -29 -49.5 -35t-40.5 -6h-102q-4 0 -15.5 1t-23 6t-19.5 14t-8 26z" />
<glyph unicode="&#xca;" horiz-adv-x="1236" d="M94 209v1028q0 29 5 65.5t24.5 68.5t61.5 54.5t120 22.5h686q39 -2 77 -4t73 -19q39 -20 62.5 -57t23.5 -84q0 -23 -11.5 -57.5t-46.5 -61.5q-35 -25 -78.5 -28.5t-103.5 -6.5h-483v-227h465q29 -2 57.5 -6t56.5 -20q35 -20 55.5 -52t20.5 -73q0 -43 -20 -74 q-16 -29 -40 -45.5t-48.5 -24.5t-47 -10t-36.5 -2h-463v-279h543q31 -2 68.5 -7t72.5 -31q29 -23 41 -53.5t12 -65.5q0 -41 -16.5 -69t-32.5 -42q-39 -35 -93.5 -41t-119.5 -8h-678q-35 2 -77 8t-77 37q-37 33 -44 78t-9 86zM326 1599.5q-4 20.5 1 42t17 43t25 41.5 q27 43 52 72t51 45.5t54.5 23.5t63.5 9q45 2 77.5 1t56.5 -5t41 -11.5t34 -17.5q8 -6 33.5 -30.5t52 -56.5t47 -68.5t20.5 -69.5q0 -49 -40 -72.5t-81 -23.5q-47 0 -86 32q-10 8 -18 17.5t-19.5 25t-26.5 42t-42 71.5q-16 -25 -32.5 -49.5t-33.5 -48.5q-23 -31 -52 -61.5 t-77 -30.5q-33 0 -58.5 12t-37.5 27q-18 20 -22 40.5z" />
<glyph unicode="&#xcb;" horiz-adv-x="1236" d="M94 209v1028q0 29 5 65.5t24.5 68.5t61.5 54.5t120 22.5h686q39 -2 77 -4t73 -19q39 -20 62.5 -57t23.5 -84q0 -23 -11.5 -57.5t-46.5 -61.5q-35 -25 -78.5 -28.5t-103.5 -6.5h-483v-227h465q29 -2 57.5 -6t56.5 -20q35 -20 55.5 -52t20.5 -73q0 -43 -20 -74 q-16 -29 -40 -45.5t-48.5 -24.5t-47 -10t-36.5 -2h-463v-279h543q31 -2 68.5 -7t72.5 -31q29 -23 41 -53.5t12 -65.5q0 -41 -16.5 -69t-32.5 -42q-39 -35 -93.5 -41t-119.5 -8h-678q-35 2 -77 8t-77 37q-37 33 -44 78t-9 86zM240 1702q0 70 49 120t121 50q37 0 67.5 -13.5 t54 -37t37 -54t13.5 -65.5q0 -37 -13.5 -67.5t-37 -54.5t-55 -37t-66.5 -13q-70 0 -120 50t-50 122zM698 1702q0 70 49.5 120t120.5 50q37 0 68 -13.5t54.5 -37t36.5 -54t13 -65.5q0 -37 -13 -67.5t-36.5 -54.5t-55.5 -37t-67 -13q-70 0 -120 50t-50 122z" />
<glyph unicode="&#xcc;" horiz-adv-x="598" d="M25 1772q0 37 27.5 48t60.5 13h166q41 0 58 -21.5t23 -35.5l50 -115q4 -12 9 -26.5t5 -26.5q0 -16 -8 -25.5t-19.5 -14.5t-21.5 -6t-15 -1h-102q-16 0 -28.5 2t-28.5 12q-12 6 -30.5 22.5t-40 37t-42 43t-39.5 40.5q-8 10 -16 21.5t-8 32.5zM90 211v1018q0 43 10.5 95 t63.5 99q23 20 56.5 33.5t72.5 13.5q41 0 79 -16t66.5 -47t46 -77t17.5 -107v-1012q0 -29 -7.5 -65.5t-29.5 -73.5q-29 -43 -72 -66.5t-96 -23.5q-47 0 -91 20.5t-73 60.5q-29 39 -36 76t-7 72z" />
<glyph unicode="&#xcd;" horiz-adv-x="598" d="M90 211v1018q0 43 10.5 95t63.5 99q23 20 56.5 33.5t72.5 13.5q41 0 79 -16t66.5 -47t46 -77t17.5 -107v-1012q0 -29 -7.5 -65.5t-29.5 -73.5q-29 -43 -72 -66.5t-96 -23.5q-47 0 -91 20.5t-73 60.5q-29 39 -36 76t-7 72zM172 1610q0 12 5 26.5t9 26.5l52 115 q6 14 22 35.5t57 21.5h168q33 -2 60.5 -13.5t27.5 -47.5q0 -20 -14 -41q-4 -4 -18.5 -19.5t-33 -35t-40 -40t-37.5 -34.5q-31 -29 -49.5 -35t-40.5 -6h-102q-4 0 -15.5 1t-23 6t-19.5 14t-8 26z" />
<glyph unicode="&#xce;" horiz-adv-x="598" d="M-14 1599.5q-4 20.5 1 42t17 43t25 41.5q27 43 52 72t51 45.5t54.5 23.5t63.5 9q45 2 77.5 1t56.5 -5t41 -11.5t34 -17.5q8 -6 33.5 -30.5t52 -56.5t47 -68.5t20.5 -69.5q0 -49 -40 -72.5t-80 -23.5q-47 0 -86 32q-10 8 -18.5 17.5t-20 25t-26.5 42t-42 71.5 q-16 -25 -32.5 -49.5t-33.5 -48.5q-23 -31 -52 -61.5t-77 -30.5q-33 0 -58.5 12t-37.5 27q-18 20 -22 40.5zM90 211v1018q0 43 10.5 95t63.5 99q23 20 56.5 33.5t72.5 13.5q41 0 79 -16t66.5 -47t46 -77t17.5 -107v-1012q0 -29 -7.5 -65.5t-29.5 -73.5q-29 -43 -72 -66.5 t-96 -23.5q-47 0 -91 20.5t-73 60.5q-29 39 -36 76t-7 72z" />
<glyph unicode="&#xcf;" horiz-adv-x="598" d="M-100 1702q0 70 49 120t121 50q37 0 67.5 -13.5t54 -37t37 -54t13.5 -65.5q0 -37 -13.5 -67.5t-37 -54.5t-55 -37t-66.5 -13q-70 0 -120 50t-50 122zM90 211v1018q0 43 10.5 95t63.5 99q23 20 56.5 33.5t72.5 13.5q41 0 79 -16t66.5 -47t46 -77t17.5 -107v-1012 q0 -29 -7.5 -65.5t-29.5 -73.5q-29 -43 -72 -66.5t-96 -23.5q-47 0 -91 20.5t-73 60.5q-29 39 -36 76t-7 72zM358 1702q0 70 49.5 120t120.5 50q37 0 68 -13.5t54.5 -37t36.5 -54t13 -65.5q0 -37 -13 -67.5t-36.5 -54.5t-55.5 -37t-67 -13q-70 0 -120 50t-50 122z" />
<glyph unicode="&#xd0;" horiz-adv-x="1449" d="M-16 713q0 37 14 61.5t32.5 39.5t38 22.5t29.5 11.5v379q2 35 8.5 74.5t36.5 76.5q20 25 44 38.5t48.5 19.5t49 8t45.5 2h364q31 0 78 -3t101.5 -12.5t112.5 -29t114 -53.5q63 -41 119.5 -100.5t97.5 -138.5t64.5 -175t23.5 -209q0 -106 -20.5 -192.5t-51 -152 t-66.5 -112.5t-65 -78q-68 -70 -138.5 -107.5t-149 -56t-164.5 -22.5t-185 -4h-231q-35 0 -72 4t-74 25q-33 18 -50 42.5t-26.5 51.5t-11.5 51.5t-2 42.5v358q-10 2 -17 4.5t-18 6.5q-29 14 -54 45t-25 82zM510 326h115q47 0 93 4t88 18t77 44t59 81q25 51 35 123t10 131 q0 121 -27.5 197.5t-58.5 111.5q-27 31 -60.5 48.5t-69.5 26.5t-74 11t-72 2h-115v-268h92q25 -2 50.5 -5t49.5 -15q39 -20 57.5 -55.5t18.5 -73.5q0 -27 -8 -46.5t-18 -35.5q-27 -35 -62 -46.5t-76 -11.5h-104v-241z" />
<glyph unicode="&#xd1;" horiz-adv-x="1449" d="M92 227v1035q0 33 9.5 76.5t50.5 82.5q37 35 80.5 42t84.5 7q43 0 74 -7t54.5 -20t41 -35t33.5 -48q55 -92 109.5 -181t107.5 -182q66 -111 127.5 -222t124.5 -222l-16 709q0 31 5 61.5t26 62.5q18 31 40.5 47.5t44 24.5t41 10t29.5 2q37 0 72 -13t65 -44 q41 -45 48.5 -93t9.5 -87v-1026q0 -18 -4 -55t-23.5 -75t-62.5 -65.5t-121 -27.5q-25 0 -53.5 6t-60.5 24.5t-67.5 51t-74.5 88.5q-29 39 -79 121.5t-110.5 186t-124 215t-116.5 206.5l16 -680q-2 -35 -5 -69t-26 -68q-27 -41 -68.5 -63.5t-88.5 -22.5t-90 24 q-37 18 -57.5 45t-31 57.5t-12.5 61.5t-2 59zM362 1604q0 23 8.5 69.5t28.5 83.5q6 12 17.5 29.5t31 33t49 25.5t70.5 10t77 -10t65 -20q27 -10 53 -21.5t55 -21.5q8 -2 23.5 -6t31.5 -4q6 0 26 5t36 33q4 10 8 19.5t10 19.5q10 16 23.5 24.5t38.5 8.5q41 0 60.5 -26.5 t19.5 -61.5q0 -29 -10.5 -66.5t-26.5 -70.5q-6 -14 -18.5 -32.5t-31 -34t-46 -27t-66.5 -11.5q-41 0 -80 10.5t-76 22.5q-45 16 -72.5 25.5t-43 14.5t-24.5 6t-17 1q-29 0 -39.5 -14t-14.5 -27q-10 -27 -26.5 -51t-59.5 -24q-10 0 -23 4t-25.5 13t-22 26.5t-9.5 44.5z" />
<glyph unicode="&#xd2;" horiz-adv-x="1579" d="M33 731q0 111 22.5 205t62.5 173t93 139.5t115 103.5q92 66 214 100.5t253 34.5q78 0 167 -14.5t164 -47.5q86 -35 159 -94t120 -125q63 -90 101 -218t38 -279q0 -53 -7 -124t-30.5 -147t-69.5 -153.5t-124 -145.5q-31 -27 -75 -57.5t-106.5 -56t-147.5 -43t-196 -17.5 q-82 0 -161.5 12.5t-155.5 40.5q-117 45 -208 129t-144 195q-47 90 -65.5 188.5t-18.5 200.5zM449 739q0 -18 1 -36.5t3 -36.5q16 -168 96 -267.5t237 -99.5q172 0 257 120t85 318q0 20 -2 56t-12 81.5t-33.5 94.5t-66.5 94q-49 53 -105.5 71.5t-111.5 18.5q-102 0 -169 -39 t-107 -98.5t-56 -133t-16 -143.5zM514 1772q0 37 27.5 48t60.5 13h166q41 0 58.5 -21.5t23.5 -35.5l49 -115q4 -12 9 -26.5t5 -26.5q0 -16 -8 -25.5t-19.5 -14.5t-21.5 -6t-14 -1h-102q-16 0 -28.5 2t-29.5 12q-12 6 -30.5 22.5t-40 37t-42 43t-38.5 40.5q-8 10 -16.5 21.5 t-8.5 32.5z" />
<glyph unicode="&#xd3;" horiz-adv-x="1579" d="M33 731q0 111 22.5 205t62.5 173t93 139.5t115 103.5q92 66 214 100.5t253 34.5q78 0 167 -14.5t164 -47.5q86 -35 159 -94t120 -125q63 -90 101 -218t38 -279q0 -53 -7 -124t-30.5 -147t-69.5 -153.5t-124 -145.5q-31 -27 -75 -57.5t-106.5 -56t-147.5 -43t-196 -17.5 q-82 0 -161.5 12.5t-155.5 40.5q-117 45 -208 129t-144 195q-47 90 -65.5 188.5t-18.5 200.5zM449 739q0 -18 1 -36.5t3 -36.5q16 -168 96 -267.5t237 -99.5q172 0 257 120t85 318q0 20 -2 56t-12 81.5t-33.5 94.5t-66.5 94q-49 53 -105.5 71.5t-111.5 18.5q-102 0 -169 -39 t-107 -98.5t-56 -133t-16 -143.5zM662 1610q0 12 5 26.5t9 26.5l51 115q6 14 22.5 35.5t57.5 21.5h168q33 -2 60.5 -13.5t27.5 -47.5q0 -20 -14 -41q-4 -4 -18.5 -19.5t-33 -35t-40 -40t-37.5 -34.5q-31 -29 -49.5 -35t-41.5 -6h-102q-4 0 -15.5 1t-22.5 6t-19 14t-8 26z " />
<glyph unicode="&#xd4;" horiz-adv-x="1579" d="M33 731q0 111 22.5 205t62.5 173t93 139.5t115 103.5q92 66 214 100.5t253 34.5q78 0 167 -14.5t164 -47.5q86 -35 159 -94t120 -125q63 -90 101 -218t38 -279q0 -53 -7 -124t-30.5 -147t-69.5 -153.5t-124 -145.5q-31 -27 -75 -57.5t-106.5 -56t-147.5 -43t-196 -17.5 q-82 0 -161.5 12.5t-155.5 40.5q-117 45 -208 129t-144 195q-47 90 -65.5 188.5t-18.5 200.5zM449 739q0 -18 1 -36.5t3 -36.5q16 -168 96 -267.5t237 -99.5q172 0 257 120t85 318q0 20 -2 56t-12 81.5t-33.5 94.5t-66.5 94q-49 53 -105.5 71.5t-111.5 18.5q-102 0 -169 -39 t-107 -98.5t-56 -133t-16 -143.5zM475.5 1599.5q-4.5 20.5 0.5 42t17.5 43t24.5 41.5q27 43 52.5 72t51 45.5t54.5 23.5t63 9q45 2 78 1t56.5 -5t41 -11.5t33.5 -17.5q8 -6 34 -30.5t52.5 -56.5t47 -68.5t20.5 -69.5q0 -49 -40 -72.5t-81 -23.5q-47 0 -86 32 q-10 8 -18.5 17.5t-19.5 25t-26.5 42t-42.5 71.5q-16 -25 -32.5 -49.5t-32.5 -48.5q-23 -31 -52.5 -61.5t-76.5 -30.5q-33 0 -58.5 12t-37.5 27q-18 20 -22.5 40.5z" />
<glyph unicode="&#xd5;" horiz-adv-x="1579" d="M33 731q0 111 22.5 205t62.5 173t93 139.5t115 103.5q92 66 214 100.5t253 34.5q78 0 167 -14.5t164 -47.5q86 -35 159 -94t120 -125q63 -90 101 -218t38 -279q0 -53 -7 -124t-30.5 -147t-69.5 -153.5t-124 -145.5q-31 -27 -75 -57.5t-106.5 -56t-147.5 -43t-196 -17.5 q-82 0 -161.5 12.5t-155.5 40.5q-117 45 -208 129t-144 195q-47 90 -65.5 188.5t-18.5 200.5zM426 1604q0 23 8 69.5t29 83.5q6 12 17.5 29.5t30.5 33t49 25.5t71 10t76.5 -10t64.5 -20q27 -10 53.5 -21.5t55.5 -21.5q8 -2 23.5 -6t31.5 -4q6 0 25.5 5t35.5 33 q4 10 8.5 19.5t10.5 19.5q10 16 23.5 24.5t37.5 8.5q41 0 60.5 -26.5t19.5 -61.5q0 -29 -10 -66.5t-27 -70.5q-6 -14 -18 -32.5t-30.5 -34t-46.5 -27t-67 -11.5q-41 0 -79.5 10.5t-75.5 22.5q-45 16 -73 25.5t-43 14.5t-24.5 6t-17.5 1q-29 0 -39 -14t-14 -27 q-10 -27 -26.5 -51t-59.5 -24q-10 0 -23.5 4t-26 13t-21.5 26.5t-9 44.5zM449 739q0 -18 1 -36.5t3 -36.5q16 -168 96 -267.5t237 -99.5q172 0 257 120t85 318q0 20 -2 56t-12 81.5t-33.5 94.5t-66.5 94q-49 53 -105.5 71.5t-111.5 18.5q-102 0 -169 -39t-107 -98.5 t-56 -133t-16 -143.5z" />
<glyph unicode="&#xd6;" horiz-adv-x="1579" d="M33 731q0 111 22.5 205t62.5 173t93 139.5t115 103.5q92 66 214 100.5t253 34.5q78 0 167 -14.5t164 -47.5q86 -35 159 -94t120 -125q63 -90 101 -218t38 -279q0 -53 -7 -124t-30.5 -147t-69.5 -153.5t-124 -145.5q-31 -27 -75 -57.5t-106.5 -56t-147.5 -43t-196 -17.5 q-82 0 -161.5 12.5t-155.5 40.5q-117 45 -208 129t-144 195q-47 90 -65.5 188.5t-18.5 200.5zM385 1702q0 70 49 120t121 50q37 0 67.5 -13.5t54 -37t37 -54t13.5 -65.5q0 -37 -13.5 -67.5t-37 -54.5t-55 -37t-66.5 -13q-70 0 -120 50t-50 122zM449 739q0 -18 1 -36.5 t3 -36.5q16 -168 96 -267.5t237 -99.5q172 0 257 120t85 318q0 20 -2 56t-12 81.5t-33.5 94.5t-66.5 94q-49 53 -105.5 71.5t-111.5 18.5q-102 0 -169 -39t-107 -98.5t-56 -133t-16 -143.5zM844 1702q0 70 49 120t121 50q37 0 67.5 -13.5t54 -37t37 -54t13.5 -65.5 q0 -37 -13.5 -67.5t-37 -54.5t-55 -37t-66.5 -13q-70 0 -120 50t-50 122z" />
<glyph unicode="&#xd8;" horiz-adv-x="1579" d="M37 713q0 82 13 176t48 180q35 84 97.5 160t149.5 133t199.5 91t250.5 34q102 0 181 -16.5t137 -40t99 -49t66 -44.5l72 84q16 14 33.5 27.5t39.5 13.5q31 0 50.5 -21.5t19.5 -47.5q0 -18 -10 -34t-27 -32l-80 -82q18 -23 36 -47t40 -65q8 -16 23.5 -49t31 -84.5 t26.5 -122t11 -162.5q0 -59 -7 -129t-29.5 -141.5t-62.5 -144.5t-104 -136q-61 -61 -128.5 -100t-137 -60.5t-137.5 -30t-131 -8.5q-84 0 -165 11.5t-159 39.5q-66 23 -103.5 45.5t-76.5 51.5l-84 -93q-10 -10 -22.5 -19t-32.5 -9q-31 0 -51.5 21.5t-20.5 49.5 q0 18 8.5 30.5t18.5 23.5l86 90q-25 27 -50.5 60.5t-54.5 99.5q-35 84 -49 170t-14 176zM442 719q0 -90 12.5 -139.5t24.5 -83.5l545 579q-10 10 -22.5 23.5t-36.5 27.5q-35 20 -76 29.5t-84 9.5q-100 0 -169 -36.5t-112 -99t-62.5 -143.5t-19.5 -167zM559 379 q49 -53 105.5 -74.5t109.5 -21.5q70 0 133.5 22.5t112.5 69.5q70 68 95.5 161t25.5 191q0 84 -11.5 131t-27.5 94z" />
<glyph unicode="&#xd9;" horiz-adv-x="1449" d="M96 524v660q0 59 8.5 117.5t51.5 105.5q55 61 147 61q51 0 81 -15t50 -32q55 -47 66.5 -105.5t11.5 -121.5v-684q0 -27 2 -55.5t12 -55.5q23 -53 76 -81.5t125 -28.5q86 0 125 23.5t57 45.5q12 14 18.5 26.5t9.5 31t4 48.5t1 77v659q2 47 8 101.5t45 99.5q27 31 68 49 t84 18q39 0 78 -15t69 -50q45 -47 53.5 -102.5t8.5 -102.5v-620q0 -70 -3 -133.5t-17.5 -120t-41 -107.5t-75.5 -96q-59 -55 -131 -87t-143 -47.5t-130 -18.5t-94 -3q-111 0 -218.5 21.5t-199.5 81.5q-74 47 -115 107.5t-61.5 123.5t-25.5 121.5t-5 103.5zM451 1772 q0 37 27.5 48t60.5 13h166q41 0 58 -21.5t23 -35.5l50 -115q4 -12 9 -26.5t5 -26.5q0 -16 -8 -25.5t-19.5 -14.5t-21.5 -6t-15 -1h-102q-16 0 -28.5 2t-28.5 12q-12 6 -30.5 22.5t-40 37t-42 43t-39.5 40.5q-8 10 -16 21.5t-8 32.5z" />
<glyph unicode="&#xda;" horiz-adv-x="1449" d="M96 524v660q0 59 8.5 117.5t51.5 105.5q55 61 147 61q51 0 81 -15t50 -32q55 -47 66.5 -105.5t11.5 -121.5v-684q0 -27 2 -55.5t12 -55.5q23 -53 76 -81.5t125 -28.5q86 0 125 23.5t57 45.5q12 14 18.5 26.5t9.5 31t4 48.5t1 77v659q2 47 8 101.5t45 99.5q27 31 68 49 t84 18q39 0 78 -15t69 -50q45 -47 53.5 -102.5t8.5 -102.5v-620q0 -70 -3 -133.5t-17.5 -120t-41 -107.5t-75.5 -96q-59 -55 -131 -87t-143 -47.5t-130 -18.5t-94 -3q-111 0 -218.5 21.5t-199.5 81.5q-74 47 -115 107.5t-61.5 123.5t-25.5 121.5t-5 103.5zM598 1610 q0 12 5 26.5t9 26.5l52 115q6 14 22 35.5t57 21.5h168q33 -2 60.5 -13.5t27.5 -47.5q0 -20 -14 -41q-4 -4 -18.5 -19.5t-33 -35t-40 -40t-37.5 -34.5q-31 -29 -49.5 -35t-40.5 -6h-102q-4 0 -15.5 1t-23 6t-19.5 14t-8 26z" />
<glyph unicode="&#xdb;" horiz-adv-x="1449" d="M96 524v660q0 59 8.5 117.5t51.5 105.5q55 61 147 61q51 0 81 -15t50 -32q55 -47 66.5 -105.5t11.5 -121.5v-684q0 -27 2 -55.5t12 -55.5q23 -53 76 -81.5t125 -28.5q86 0 125 23.5t57 45.5q12 14 18.5 26.5t9.5 31t4 48.5t1 77v659q2 47 8 101.5t45 99.5q27 31 68 49 t84 18q39 0 78 -15t69 -50q45 -47 53.5 -102.5t8.5 -102.5v-620q0 -70 -3 -133.5t-17.5 -120t-41 -107.5t-75.5 -96q-59 -55 -131 -87t-143 -47.5t-130 -18.5t-94 -3q-111 0 -218.5 21.5t-199.5 81.5q-74 47 -115 107.5t-61.5 123.5t-25.5 121.5t-5 103.5zM412 1599.5 q-4 20.5 1 42t17 43t25 41.5q27 43 52 72t51 45.5t54.5 23.5t63.5 9q45 2 77.5 1t56.5 -5t41 -11.5t34 -17.5q8 -6 33.5 -30.5t52 -56.5t47 -68.5t20.5 -69.5q0 -49 -40 -72.5t-80 -23.5q-47 0 -87 32q-10 8 -18 17.5t-19.5 25t-26.5 42t-42 71.5q-16 -25 -32.5 -49.5 t-33.5 -48.5q-23 -31 -52 -61.5t-77 -30.5q-33 0 -58.5 12t-37.5 27q-18 20 -22 40.5z" />
<glyph unicode="&#xdc;" horiz-adv-x="1449" d="M96 524v660q0 59 8.5 117.5t51.5 105.5q55 61 147 61q51 0 81 -15t50 -32q55 -47 66.5 -105.5t11.5 -121.5v-684q0 -27 2 -55.5t12 -55.5q23 -53 76 -81.5t125 -28.5q86 0 125 23.5t57 45.5q12 14 18.5 26.5t9.5 31t4 48.5t1 77v659q2 47 8 101.5t45 99.5q27 31 68 49 t84 18q39 0 78 -15t69 -50q45 -47 53.5 -102.5t8.5 -102.5v-620q0 -70 -3 -133.5t-17.5 -120t-41 -107.5t-75.5 -96q-59 -55 -131 -87t-143 -47.5t-130 -18.5t-94 -3q-111 0 -218.5 21.5t-199.5 81.5q-74 47 -115 107.5t-61.5 123.5t-25.5 121.5t-5 103.5zM322 1702 q0 70 49 120t121 50q37 0 67.5 -13.5t54 -37t37 -54t13.5 -65.5q0 -37 -13.5 -67.5t-37 -54.5t-55 -37t-66.5 -13q-70 0 -120 50t-50 122zM780 1702q0 70 49.5 120t120.5 50q37 0 68 -13.5t54.5 -37t36.5 -54t13 -65.5q0 -37 -13 -67.5t-36.5 -54.5t-55.5 -37t-67 -13 q-70 0 -120 50t-50 122z" />
<glyph unicode="&#xdd;" d="M0 1282q0 43 15.5 78t41 59.5t58 37.5t69.5 13q43 0 74 -13t52.5 -31.5t35.5 -40t25 -39.5l229 -445l193 402q12 23 28.5 52t41 55t57 43t75.5 17q45 0 82 -16t61.5 -43t38 -60.5t13.5 -68.5q0 -41 -10.5 -65.5t-22.5 -47.5l-344 -600v-368q-2 -31 -7 -60.5t-26 -64.5 q-27 -41 -68.5 -67.5t-101.5 -26.5q-70 0 -129 43q-29 23 -45 49t-23 53t-9.5 52.5t-2.5 47.5v336l-370 608q-14 25 -22.5 48.5t-8.5 62.5zM471 1610q0 12 5 26.5t9 26.5l52 115q6 14 22 35.5t57 21.5h168q33 -2 60.5 -13.5t27.5 -47.5q0 -20 -14 -41q-4 -4 -18.5 -19.5 t-33 -35t-40 -40t-37.5 -34.5q-31 -29 -49 -35t-41 -6h-102q-4 0 -15.5 1t-23 6t-19.5 14t-8 26z" />
<glyph unicode="&#xde;" horiz-adv-x="1280" d="M94 215v993q0 41 5 81t30 79q23 35 65 57.5t113 22.5q27 0 51.5 -4t53.5 -23q35 -23 53 -48t27.5 -54t11.5 -58.5t2 -56.5h215q78 -4 161 -11t160 -46q102 -49 172 -153.5t70 -260.5q0 -100 -31.5 -188t-81.5 -146q-47 -53 -102 -82.5t-113.5 -44t-118 -17.5t-114.5 -3 h-219q0 -59 -4 -102.5t-37 -88.5q-41 -55 -88 -68t-76 -13t-71 13t-81 56q-37 41 -44 82t-9 84zM506 563h158q35 0 72.5 3t72.5 22q47 25 64.5 64.5t17.5 74.5q0 33 -12.5 64.5t-40.5 56.5q-37 33 -85 39t-100 6h-147v-330z" />
<glyph unicode="&#xdf;" d="M84 186v834q2 37 5 83t17.5 95t44 97t82.5 89q63 47 162 74t209 27q104 0 203.5 -26.5t171.5 -98.5q63 -63 80.5 -129t17.5 -113q0 -84 -44 -159.5t-140 -102.5q-12 -4 -25.5 -6t-27.5 -6q10 0 18 -1t19 -3q41 -6 89 -30t90 -70t69.5 -116.5t27.5 -170.5q0 -135 -53 -242 t-152 -164q-61 -35 -126.5 -46t-96.5 -11q-51 0 -85 14t-53.5 36.5t-27.5 51.5t-8 58q0 35 9 59t22 41q12 14 33.5 23.5t52.5 19.5q14 6 34.5 16t37 31.5t28.5 55.5t12 87q0 86 -34.5 129t-88.5 66q-16 6 -31.5 11t-29.5 16q-23 14 -35 32.5t-18 36t-7 30.5t-1 17 q0 39 13 65.5t31.5 43t39 26t36.5 15.5q23 10 43.5 28.5t20.5 65.5q0 53 -34 85t-83 32t-76.5 -21.5t-41 -51.5t-16.5 -61.5t-3 -54.5v-762q-2 -35 -4 -69.5t-15 -65.5q-23 -57 -69.5 -85.5t-106.5 -28.5q-66 0 -116 41q-47 41 -57.5 85t-12.5 78z" />
<glyph unicode="&#xe0;" horiz-adv-x="1150" d="M18 297q0 90 32 149.5t81 97.5t106.5 58.5t110.5 32.5q14 2 52 10t81 16.5t81 15.5t54 11q20 4 48 17.5t28 54.5q0 35 -29.5 60.5t-95.5 25.5q-51 0 -91 -11.5t-66 -52.5q-6 -10 -12.5 -19t-12.5 -20q-16 -27 -52 -50t-85 -23q-31 0 -61.5 10t-54 28.5t-39 46t-15.5 62.5 q0 23 10 53.5t34.5 63.5t66.5 63.5t108 53.5t129 29.5t121 6.5q37 0 90 -3t110.5 -15t114 -35.5t100.5 -67.5t71.5 -109.5t27.5 -160.5v-536q0 -20 -4 -51t-20.5 -58.5t-50.5 -48t-93 -20.5q-49 0 -81 15t-50.5 37.5t-27.5 45t-15 39.5q-23 -23 -49.5 -48.5t-67.5 -47 t-97 -35t-136 -13.5q-164 0 -257.5 82t-93.5 240zM277 1460q0 31 26 53q14 10 32 13.5t34 5.5h162q35 0 57.5 -8t36.5 -21.5t23.5 -31t15.5 -37.5l49 -154q10 -25 10 -43q0 -23 -9 -34t-21.5 -16t-26.5 -7t-25 -2h-86q-20 0 -34.5 3t-26.5 9t-24.5 17.5t-26.5 29.5l-146 178 q-8 10 -14 20.5t-6 24.5zM387 332q0 -4 2 -18.5t12.5 -30t33 -26.5t63.5 -11q72 0 121 29.5t83 58.5v158q-37 -12 -60.5 -21.5t-43.5 -15.5t-43 -12.5t-53 -14.5q-16 -4 -36 -10t-37 -17.5t-29.5 -28t-12.5 -40.5z" />
<glyph unicode="&#xe1;" horiz-adv-x="1150" d="M18 297q0 90 32 149.5t81 97.5t106.5 58.5t110.5 32.5q14 2 52 10t81 16.5t81 15.5t54 11q20 4 48 17.5t28 54.5q0 35 -29.5 60.5t-95.5 25.5q-51 0 -91 -11.5t-66 -52.5q-6 -10 -12.5 -19t-12.5 -20q-16 -27 -52 -50t-85 -23q-31 0 -61.5 10t-54 28.5t-39 46t-15.5 62.5 q0 23 10 53.5t34.5 63.5t66.5 63.5t108 53.5t129 29.5t121 6.5q37 0 90 -3t110.5 -15t114 -35.5t100.5 -67.5t71.5 -109.5t27.5 -160.5v-536q0 -20 -4 -51t-20.5 -58.5t-50.5 -48t-93 -20.5q-49 0 -81 15t-50.5 37.5t-27.5 45t-15 39.5q-23 -23 -49.5 -48.5t-67.5 -47 t-97 -35t-136 -13.5q-164 0 -257.5 82t-93.5 240zM387 332q0 -4 2 -18.5t12.5 -30t33 -26.5t63.5 -11q72 0 121 29.5t83 58.5v158q-37 -12 -60.5 -21.5t-43.5 -15.5t-43 -12.5t-53 -14.5q-16 -4 -36 -10t-37 -17.5t-29.5 -28t-12.5 -40.5zM426 1239q0 10 3 21.5t7 21.5 l49 154q6 20 15.5 37.5t23.5 31t36.5 21.5t57.5 8h162q16 0 33.5 -4t34.5 -14q25 -25 24 -54q0 -14 -5 -24.5t-15 -20.5l-144 -178q-31 -39 -52 -49t-62 -10h-86q-10 0 -24.5 1t-27 7t-21.5 17.5t-9 33.5z" />
<glyph unicode="&#xe2;" horiz-adv-x="1150" d="M18 297q0 90 32 149.5t81 97.5t106.5 58.5t110.5 32.5q14 2 52 10t81 16.5t81 15.5t54 11q20 4 48 17.5t28 54.5q0 35 -29.5 60.5t-95.5 25.5q-51 0 -91 -11.5t-66 -52.5q-6 -10 -12.5 -19t-12.5 -20q-16 -27 -52 -50t-85 -23q-31 0 -61.5 10t-54 28.5t-39 46t-15.5 62.5 q0 23 10 53.5t34.5 63.5t66.5 63.5t108 53.5t129 29.5t121 6.5q37 0 90 -3t110.5 -15t114 -35.5t100.5 -67.5t71.5 -109.5t27.5 -160.5v-536q0 -20 -4 -51t-20.5 -58.5t-50.5 -48t-93 -20.5q-49 0 -81 15t-50.5 37.5t-27.5 45t-15 39.5q-23 -23 -49.5 -48.5t-67.5 -47 t-97 -35t-136 -13.5q-164 0 -257.5 82t-93.5 240zM285 1276q0 10 2 21.5t8 25.5t18.5 35.5t32.5 52.5q29 43 50.5 70.5t45 43t52.5 21.5t74 6q61 0 99 -7t65.5 -25.5t52 -50t55.5 -80.5q18 -31 30.5 -54.5t12.5 -54.5q0 -47 -37 -82t-84 -35q-61 0 -99 64t-79 162 q-18 -45 -36.5 -86t-40 -72t-48.5 -49.5t-61 -18.5q-41 0 -77 30t-36 83zM387 332q0 -4 2 -18.5t12.5 -30t33 -26.5t63.5 -11q72 0 121 29.5t83 58.5v158q-37 -12 -60.5 -21.5t-43.5 -15.5t-43 -12.5t-53 -14.5q-16 -4 -36 -10t-37 -17.5t-29.5 -28t-12.5 -40.5z" />
<glyph unicode="&#xe3;" horiz-adv-x="1150" d="M18 297q0 90 32 149.5t81 97.5t106.5 58.5t110.5 32.5q14 2 52 10t81 16.5t81 15.5t54 11q20 4 48 17.5t28 54.5q0 35 -29.5 60.5t-95.5 25.5q-51 0 -91 -11.5t-66 -52.5q-6 -10 -12.5 -19t-12.5 -20q-16 -27 -52 -50t-85 -23q-31 0 -61.5 10t-54 28.5t-39 46t-15.5 62.5 q0 23 10 53.5t34.5 63.5t66.5 63.5t108 53.5t129 29.5t121 6.5q37 0 90 -3t110.5 -15t114 -35.5t100.5 -67.5t71.5 -109.5t27.5 -160.5v-536q0 -20 -4 -51t-20.5 -58.5t-50.5 -48t-93 -20.5q-49 0 -81 15t-50.5 37.5t-27.5 45t-15 39.5q-23 -23 -49.5 -48.5t-67.5 -47 t-97 -35t-136 -13.5q-164 0 -257.5 82t-93.5 240zM210 1260q0 23 9.5 69.5t27.5 81.5q23 43 62 70.5t104 27.5q37 0 79 -11t69 -21q33 -10 63.5 -24.5t65.5 -20.5q20 -5 30 -5q4 0 16.5 2.5t26.5 14.5q10 6 13.5 13t15.5 34q6 14 21.5 30.5t48.5 16.5t56.5 -23.5t23.5 -68.5 q0 -8 -4.5 -37t-16.5 -62.5t-33.5 -67.5t-56.5 -52q-16 -8 -42 -14.5t-50 -6.5q-41 0 -80 11.5t-74 23.5q-45 14 -71.5 23.5t-42 14.5t-24.5 6t-17 1q-18 0 -27.5 -7t-11.5 -9q-4 -4 -12.5 -25.5t-12.5 -27.5q-6 -12 -23.5 -30t-50.5 -18q-18 0 -32 7q-33 12 -41.5 36.5 t-8.5 47.5zM387 332q0 -4 2 -18.5t12.5 -30t33 -26.5t63.5 -11q72 0 121 29.5t83 58.5v158q-37 -12 -60.5 -21.5t-43.5 -15.5t-43 -12.5t-53 -14.5q-16 -4 -36 -10t-37 -17.5t-29.5 -28t-12.5 -40.5z" />
<glyph unicode="&#xe4;" horiz-adv-x="1150" d="M18 297q0 90 32 149.5t81 97.5t106.5 58.5t110.5 32.5q14 2 52 10t81 16.5t81 15.5t54 11q20 4 48 17.5t28 54.5q0 35 -29.5 60.5t-95.5 25.5q-51 0 -91 -11.5t-66 -52.5q-6 -10 -12.5 -19t-12.5 -20q-16 -27 -52 -50t-85 -23q-31 0 -61.5 10t-54 28.5t-39 46t-15.5 62.5 q0 23 10 53.5t34.5 63.5t66.5 63.5t108 53.5t129 29.5t121 6.5q37 0 90 -3t110.5 -15t114 -35.5t100.5 -67.5t71.5 -109.5t27.5 -160.5v-536q0 -20 -4 -51t-20.5 -58.5t-50.5 -48t-93 -20.5q-49 0 -81 15t-50.5 37.5t-27.5 45t-15 39.5q-23 -23 -49.5 -48.5t-67.5 -47 t-97 -35t-136 -13.5q-164 0 -257.5 82t-93.5 240zM160 1382q0 70 49 120t121 50q37 0 67.5 -13t54 -36.5t37 -54.5t13.5 -66q0 -37 -13.5 -67.5t-37 -54t-55 -37t-66.5 -13.5q-70 0 -120 50.5t-50 121.5zM387 332q0 -4 2 -18.5t12.5 -30t33 -26.5t63.5 -11q72 0 121 29.5 t83 58.5v158q-37 -12 -60.5 -21.5t-43.5 -15.5t-43 -12.5t-53 -14.5q-16 -4 -36 -10t-37 -17.5t-29.5 -28t-12.5 -40.5zM618 1382q0 70 49.5 120t120.5 50q37 0 68 -13t54.5 -36.5t36.5 -54.5t13 -66q0 -37 -13 -67.5t-36.5 -54t-55.5 -37t-67 -13.5q-70 0 -120 50.5 t-50 121.5z" />
<glyph unicode="&#xe5;" horiz-adv-x="1150" d="M18 297q0 90 32 149.5t81 97.5t106.5 58.5t110.5 32.5q14 2 52 10t81 16.5t81 15.5t54 11q20 4 48 17.5t28 54.5q0 35 -29.5 60.5t-95.5 25.5q-51 0 -91 -11.5t-66 -52.5q-6 -10 -12.5 -19t-12.5 -20q-16 -27 -52 -50t-85 -23q-31 0 -61.5 10t-54 28.5t-39 46t-15.5 62.5 q0 23 10 53.5t34.5 63.5t66.5 63.5t108 53.5t129 29.5t121 6.5q37 0 90 -3t110.5 -15t114 -35.5t100.5 -67.5t71.5 -109.5t27.5 -160.5v-536q0 -20 -4 -51t-20.5 -58.5t-50.5 -48t-93 -20.5q-49 0 -81 15t-50.5 37.5t-27.5 45t-15 39.5q-23 -23 -49.5 -48.5t-67.5 -47 t-97 -35t-136 -13.5q-164 0 -257.5 82t-93.5 240zM336 1391q0 43 16.5 81.5t46 68.5t68.5 46.5t82 16.5t81 -16.5t67.5 -45.5t46 -67.5t16.5 -83.5q0 -43 -16.5 -82t-45 -68t-67.5 -45t-82 -16q-45 0 -84 16t-67.5 46t-45 68t-16.5 81zM387 332q0 -4 2 -18.5t12.5 -30 t33 -26.5t63.5 -11q72 0 121 29.5t83 58.5v158q-37 -12 -60.5 -21.5t-43.5 -15.5t-43 -12.5t-53 -14.5q-16 -4 -36 -10t-37 -17.5t-29.5 -28t-12.5 -40.5zM463 1393q0 -35 24.5 -60.5t59.5 -25.5q37 0 61.5 25.5t24.5 60.5t-25.5 59.5t-60.5 24.5t-59.5 -24.5t-24.5 -59.5z " />
<glyph unicode="&#xe6;" horiz-adv-x="1792" d="M25 313q0 80 33.5 145.5t93.5 108.5q86 61 217 72.5t325 9.5l-3 67.5t-11 45.5q-16 41 -50 58.5t-75 17.5q-59 0 -86 -21.5t-35 -32.5q-10 -12 -19 -25.5t-20 -25.5q-35 -41 -72.5 -49t-54.5 -8q-68 0 -116 45t-48 113q0 57 35 105t95.5 81t142.5 51.5t176 18.5 q55 0 110.5 -6.5t108.5 -28.5q37 -16 69.5 -40t55.5 -61q51 47 104.5 75t102.5 42t91 18.5t71 4.5q141 0 235 -50.5t150.5 -126t80 -164.5t23.5 -165q0 -51 -14.5 -80t-36 -43t-49 -18.5t-51.5 -4.5h-523q4 -29 14.5 -71.5t47.5 -83.5q27 -29 57.5 -40t61.5 -11 q55 0 91 24.5t68 54.5q16 16 47 37t84 21q55 0 102.5 -38t47.5 -95q0 -53 -38 -101.5t-101.5 -85.5t-146.5 -58.5t-173 -21.5q-66 0 -128 14.5t-122 45.5q-66 35 -98.5 69.5t-48.5 55.5q-31 -33 -61.5 -59.5t-82.5 -53.5q-72 -39 -147.5 -55.5t-144.5 -16.5 q-72 0 -141.5 15.5t-127.5 60.5q-57 47 -86.5 117t-29.5 147zM389 326q0 -43 31 -75t90 -32q43 0 80 21.5t59 58.5q25 39 31 75.5t10 65.5h-68.5t-68.5 -2q-23 0 -45.5 -2t-44.5 -8q-47 -16 -60.5 -50t-13.5 -52zM1077 645h326q0 29 -4 63.5t-31 65.5q-16 23 -46 37t-71 14 q-35 0 -61.5 -11t-46.5 -28q-29 -29 -43.5 -64.5t-22.5 -76.5z" />
<glyph unicode="&#xe7;" horiz-adv-x="1110" d="M33 516q0 135 33.5 229.5t76.5 147.5q25 33 67 68.5t100.5 65.5t133 49.5t166.5 19.5q106 0 194.5 -27t150 -71t95 -99t33.5 -113q0 -72 -46 -120t-128 -48q-29 0 -50 8.5t-35.5 18.5t-22.5 20.5t-10 14.5q-10 14 -16.5 29.5t-16.5 29.5q-4 6 -12.5 19.5t-24.5 26 t-43 22.5t-64 10q-66 0 -104.5 -27.5t-60 -69.5t-27.5 -93.5t-6 -98.5q0 -29 5 -83t28 -101q29 -59 69.5 -78.5t87.5 -19.5q72 0 105.5 30.5t54.5 69.5q8 14 14 28.5t17 26.5q45 68 137 68q70 0 114 -44t44 -122q0 -63 -33 -123.5t-95.5 -108.5t-153.5 -77t-210 -29 q-104 0 -204.5 26.5t-190.5 106.5q-61 51 -95 109.5t-51.5 115t-21.5 106.5t-4 87zM403 -225q0 25 8.5 51.5t27 48t47 35.5t69.5 14q66 0 110 -47t44 -133q0 -59 -18.5 -108.5t-39.5 -90.5q-35 -70 -64.5 -103.5t-70.5 -33.5q-10 0 -24.5 5t-27.5 15.5t-22.5 26t-9.5 37.5 q0 35 20.5 62.5t61.5 74.5q-12 6 -30.5 15.5t-36 27t-31 42t-13.5 61.5z" />
<glyph unicode="&#xe8;" horiz-adv-x="1150" d="M33 541q0 113 33.5 213t102.5 175t172 119t245 44q137 0 237.5 -44t165 -115t95 -160t30.5 -177q0 -68 -28.5 -112t-92.5 -44h-583q2 -16 8 -49t25.5 -65.5t56.5 -57t100 -24.5q66 0 111 32q23 14 41 33t41 35q16 14 40.5 26.5t59.5 12.5q66 0 114 -42t48 -101 q0 -37 -29 -84t-88 -89t-148.5 -71t-207.5 -29q-152 0 -256.5 50.5t-169 131t-94 184t-29.5 208.5zM277 1460q0 31 26 53q14 10 32 13.5t34 5.5h162q35 0 57.5 -8t36.5 -21.5t23.5 -31t15.5 -37.5l49 -154q10 -25 10 -43q0 -23 -9 -34t-21.5 -16t-26.5 -7t-25 -2h-86 q-20 0 -34.5 3t-26.5 9t-24.5 17.5t-26.5 29.5l-146 178q-8 10 -14 20.5t-6 24.5zM408 647h340q-4 25 -8.5 47.5t-16.5 44.5q-4 6 -12.5 19.5t-24.5 26t-42 22.5t-60 10q-49 0 -82 -18q-43 -23 -64.5 -62t-29.5 -90z" />
<glyph unicode="&#xe9;" horiz-adv-x="1150" d="M33 541q0 113 33.5 213t102.5 175t172 119t245 44q137 0 237.5 -44t165 -115t95 -160t30.5 -177q0 -68 -28.5 -112t-92.5 -44h-583q2 -16 8 -49t25.5 -65.5t56.5 -57t100 -24.5q66 0 111 32q23 14 41 33t41 35q16 14 40.5 26.5t59.5 12.5q66 0 114 -42t48 -101 q0 -37 -29 -84t-88 -89t-148.5 -71t-207.5 -29q-152 0 -256.5 50.5t-169 131t-94 184t-29.5 208.5zM408 647h340q-4 25 -8.5 47.5t-16.5 44.5q-4 6 -12.5 19.5t-24.5 26t-42 22.5t-60 10q-49 0 -82 -18q-43 -23 -64.5 -62t-29.5 -90zM426 1239q0 10 3 21.5t7 21.5l49 154 q6 20 15.5 37.5t23.5 31t36.5 21.5t57.5 8h162q16 0 33.5 -4t34.5 -14q25 -25 24 -54q0 -14 -5 -24.5t-15 -20.5l-144 -178q-31 -39 -52 -49t-62 -10h-86q-10 0 -24.5 1t-27 7t-21.5 17.5t-9 33.5z" />
<glyph unicode="&#xea;" horiz-adv-x="1150" d="M33 541q0 113 33.5 213t102.5 175t172 119t245 44q137 0 237.5 -44t165 -115t95 -160t30.5 -177q0 -68 -28.5 -112t-92.5 -44h-583q2 -16 8 -49t25.5 -65.5t56.5 -57t100 -24.5q66 0 111 32q23 14 41 33t41 35q16 14 40.5 26.5t59.5 12.5q66 0 114 -42t48 -101 q0 -37 -29 -84t-88 -89t-148.5 -71t-207.5 -29q-152 0 -256.5 50.5t-169 131t-94 184t-29.5 208.5zM285 1276q0 10 2 21.5t8 25.5t18.5 35.5t32.5 52.5q29 43 50.5 70.5t45 43t52.5 21.5t74 6q61 0 99 -7t65.5 -25.5t52 -50t55.5 -80.5q18 -31 30.5 -54.5t12.5 -54.5 q0 -47 -37 -82t-84 -35q-61 0 -99 64t-79 162q-18 -45 -36.5 -86t-40 -72t-48.5 -49.5t-61 -18.5q-41 0 -77 30t-36 83zM408 647h340q-4 25 -8.5 47.5t-16.5 44.5q-4 6 -12.5 19.5t-24.5 26t-42 22.5t-60 10q-49 0 -82 -18q-43 -23 -64.5 -62t-29.5 -90z" />
<glyph unicode="&#xeb;" horiz-adv-x="1150" d="M33 541q0 113 33.5 213t102.5 175t172 119t245 44q137 0 237.5 -44t165 -115t95 -160t30.5 -177q0 -68 -28.5 -112t-92.5 -44h-583q2 -16 8 -49t25.5 -65.5t56.5 -57t100 -24.5q66 0 111 32q23 14 41 33t41 35q16 14 40.5 26.5t59.5 12.5q66 0 114 -42t48 -101 q0 -37 -29 -84t-88 -89t-148.5 -71t-207.5 -29q-152 0 -256.5 50.5t-169 131t-94 184t-29.5 208.5zM176 1382q0 70 49 120t121 50q37 0 67.5 -13t54 -36.5t37 -54.5t13.5 -66q0 -37 -13.5 -67.5t-37 -54t-55 -37t-66.5 -13.5q-70 0 -120 50.5t-50 121.5zM408 647h340 q-4 25 -8.5 47.5t-16.5 44.5q-4 6 -12.5 19.5t-24.5 26t-42 22.5t-60 10q-49 0 -82 -18q-43 -23 -64.5 -62t-29.5 -90zM634 1382q0 70 49.5 120t120.5 50q37 0 68 -13t54.5 -36.5t36.5 -54.5t13 -66q0 -37 -13 -67.5t-36.5 -54t-55.5 -37t-67 -13.5q-70 0 -120 50.5 t-50 121.5z" />
<glyph unicode="&#xec;" horiz-adv-x="598" d="M-20 1460q0 31 26 53q14 10 32 13.5t34 5.5h162q35 0 57.5 -8t36.5 -21.5t23.5 -31t15.5 -37.5l49 -154q10 -25 10 -43q0 -23 -9 -34t-21.5 -16t-26.5 -7t-25 -2h-86q-20 0 -34.5 3t-26.5 9t-24.5 17.5t-26.5 29.5l-146 178q-8 10 -14 20.5t-6 24.5z" />
<glyph unicode="&#xed;" horiz-adv-x="598" d="M127 1239q0 10 3 21.5t7 21.5l49 154q6 20 15.5 37.5t23.5 31t36.5 21.5t57.5 8h162q16 0 33.5 -4t34.5 -14q25 -25 24 -54q0 -14 -5 -24.5t-15 -20.5l-144 -178q-31 -39 -52 -49t-62 -10h-86q-10 0 -24.5 1t-27 7t-21.5 17.5t-9 33.5z" />
<glyph unicode="&#xee;" horiz-adv-x="598" d="M-12 1276q0 10 2 21.5t8 25.5t18.5 35.5t32.5 52.5q29 43 50.5 70.5t45 43t52.5 21.5t74 6q61 0 99 -7t65.5 -25.5t52 -50t55.5 -80.5q18 -31 30.5 -54.5t12.5 -54.5q0 -47 -37 -82t-84 -35q-61 0 -99 64t-79 162q-18 -45 -36.5 -86t-40 -72t-48.5 -49.5t-61 -18.5 q-41 0 -77 30t-36 83z" />
<glyph unicode="&#xef;" horiz-adv-x="598" d="M-120 1382q0 70 49 120t121 50q37 0 67.5 -13t54 -36.5t37 -54.5t13.5 -66q0 -37 -13.5 -67.5t-37 -54t-55 -37t-66.5 -13.5q-70 0 -120 50.5t-50 121.5zM338 1382q0 70 49.5 120t120.5 50q37 0 68 -13t54.5 -36.5t36.5 -54.5t13 -66q0 -37 -13 -67.5t-36.5 -54 t-55.5 -37t-67 -13.5q-70 0 -120 50.5t-50 121.5z" />
<glyph unicode="&#xf0;" d="M29 547q0 113 27.5 197.5t70.5 145t98.5 100.5t111.5 62.5t106.5 32t86.5 9.5q39 0 66 -6.5t61 -22.5q0 2 -12 17.5t-27.5 35t-29 35.5t-15.5 21l-223 -62q-20 -4 -31 -4q-27 0 -58.5 22.5t-31.5 69.5t23.5 62.5t54.5 25.5l115 33q-6 12 -12.5 28.5t-6.5 39.5 q0 33 15.5 59.5t40 42.5t53.5 25.5t55 9.5q29 0 64 -14.5t80 -57.5q4 -4 21.5 -20.5t23.5 -20.5l159 45q10 2 20.5 4t20.5 2q23 0 39.5 -11t26.5 -27.5t14 -33t4 -28.5q0 -35 -18 -51.5t-39 -22.5l-92 -26q20 -25 34.5 -45.5t41.5 -61.5q37 -57 61.5 -103t43 -85t29.5 -75 t21 -73q16 -70 25.5 -144.5t9.5 -135.5q0 -158 -48 -266.5t-128 -175t-182.5 -96.5t-212.5 -30q-72 0 -124 9.5t-91 21.5q-74 25 -121 59.5t-82 73.5q-78 86 -108.5 187.5t-30.5 222.5zM414 543q0 -25 4 -73t21.5 -96t53 -83t101.5 -35q61 0 97 29.5t54.5 71.5t22.5 88.5 t4 78.5q0 125 -37 205q-18 39 -50 65.5t-89 26.5q-68 0 -104.5 -34.5t-54 -81t-20.5 -92.5t-3 -70z" />
<glyph unicode="&#xf1;" d="M86 197v671q2 29 4 59.5t19 59.5q23 41 61.5 66.5t91.5 25.5q78 0 129 -55q33 -35 40 -65.5t11 -55.5q16 23 33 42.5t43 41.5q53 47 123 70.5t141 23.5q74 0 142.5 -28.5t115.5 -85.5q47 -55 58.5 -106.5t11.5 -104.5v-553q0 -33 -6 -67t-29 -73q-27 -39 -66.5 -60 t-86.5 -21q-94 0 -148 75q-29 41 -36 77t-7 75v426q0 23 -2 48.5t-16 49.5q-16 31 -44 47.5t-63 16.5q-49 0 -86 -31q-39 -35 -46 -90t-7 -117v-362q0 -27 -6 -63t-31 -71q-27 -39 -67.5 -60t-90.5 -21q-59 2 -102 30.5t-64 69.5q-14 29 -17 58.5t-3 56.5zM235 1260 q0 23 9.5 69.5t27.5 81.5q23 43 62 70.5t104 27.5q37 0 79 -11t69 -21q33 -10 63.5 -24.5t65.5 -20.5q20 -5 30 -5q4 0 16.5 2.5t26.5 14.5q10 6 13.5 13t15.5 34q6 14 21.5 30.5t48.5 16.5t56.5 -23.5t23.5 -68.5q0 -8 -4.5 -37t-16.5 -62.5t-33.5 -67.5t-56.5 -52 q-16 -8 -42 -14.5t-50 -6.5q-41 0 -80 11.5t-74 23.5q-45 14 -71.5 23.5t-42 14.5t-24.5 6t-17 1q-18 0 -27.5 -7t-11.5 -9q-4 -4 -12.5 -25.5t-12.5 -27.5q-6 -12 -23.5 -30t-50.5 -18q-18 0 -32 7q-33 12 -41.5 36.5t-8.5 47.5z" />
<glyph unicode="&#xf2;" d="M33 539q0 150 48 256t128 171.5t183 96.5t212 31q156 0 262.5 -50.5t172 -131.5t94 -182t28.5 -202q0 -145 -44 -251.5t-120.5 -175t-181 -102.5t-225.5 -34q-96 0 -167 17.5t-120 43t-81 53t-50 50.5q-78 88 -108.5 188.5t-30.5 221.5zM301 1460q0 31 26 53 q14 10 32 13.5t34 5.5h162q35 0 57.5 -8t36.5 -21.5t23.5 -31t15.5 -37.5l49 -154q10 -25 10 -43q0 -23 -9 -34t-21.5 -16t-26.5 -7t-25 -2h-86q-20 0 -34.5 3t-26.5 9t-24.5 17.5t-26.5 29.5l-146 178q-8 10 -14 20.5t-6 24.5zM418 535q0 -25 4 -73t21.5 -96.5t53 -83 t101.5 -34.5q61 0 97 29.5t54.5 71.5t22.5 88t4 81q0 123 -37 203q-18 37 -49 64.5t-90 27.5q-68 0 -104.5 -35t-54 -81t-20.5 -92t-3 -70z" />
<glyph unicode="&#xf3;" d="M33 539q0 150 48 256t128 171.5t183 96.5t212 31q156 0 262.5 -50.5t172 -131.5t94 -182t28.5 -202q0 -145 -44 -251.5t-120.5 -175t-181 -102.5t-225.5 -34q-96 0 -167 17.5t-120 43t-81 53t-50 50.5q-78 88 -108.5 188.5t-30.5 221.5zM418 535q0 -25 4 -73t21.5 -96.5 t53 -83t101.5 -34.5q61 0 97 29.5t54.5 71.5t22.5 88t4 81q0 123 -37 203q-18 37 -49 64.5t-90 27.5q-68 0 -104.5 -35t-54 -81t-20.5 -92t-3 -70zM451 1239q0 10 3 21.5t7 21.5l49 154q6 20 15.5 37.5t23.5 31t36.5 21.5t57.5 8h162q16 0 33.5 -4t34.5 -14q25 -25 24 -54 q0 -14 -5 -24.5t-15 -20.5l-144 -178q-31 -39 -52 -49t-62 -10h-86q-10 0 -24.5 1t-27 7t-21.5 17.5t-9 33.5z" />
<glyph unicode="&#xf4;" d="M33 539q0 150 48 256t128 171.5t183 96.5t212 31q156 0 262.5 -50.5t172 -131.5t94 -182t28.5 -202q0 -145 -44 -251.5t-120.5 -175t-181 -102.5t-225.5 -34q-96 0 -167 17.5t-120 43t-81 53t-50 50.5q-78 88 -108.5 188.5t-30.5 221.5zM309 1276q0 10 2 21.5t8 25.5 t18.5 35.5t32.5 52.5q29 43 50.5 70.5t45 43t52.5 21.5t74 6q61 0 99 -7t65.5 -25.5t52 -50t55.5 -80.5q18 -31 30.5 -54.5t12.5 -54.5q0 -47 -37 -82t-84 -35q-61 0 -99 64t-79 162q-18 -45 -36.5 -86t-40 -72t-48.5 -49.5t-61 -18.5q-41 0 -77 30t-36 83zM418 535 q0 -25 4 -73t21.5 -96.5t53 -83t101.5 -34.5q61 0 97 29.5t54.5 71.5t22.5 88t4 81q0 123 -37 203q-18 37 -49 64.5t-90 27.5q-68 0 -104.5 -35t-54 -81t-20.5 -92t-3 -70z" />
<glyph unicode="&#xf5;" d="M33 539q0 150 48 256t128 171.5t183 96.5t212 31q156 0 262.5 -50.5t172 -131.5t94 -182t28.5 -202q0 -145 -44 -251.5t-120.5 -175t-181 -102.5t-225.5 -34q-96 0 -167 17.5t-120 43t-81 53t-50 50.5q-78 88 -108.5 188.5t-30.5 221.5zM235 1260q0 23 9.5 69.5 t27.5 81.5q23 43 62 70.5t104 27.5q37 0 79 -11t69 -21q33 -10 63.5 -24.5t65.5 -20.5q20 -5 30 -5q4 0 16.5 2.5t26.5 14.5q10 6 13.5 13t15.5 34q6 14 21.5 30.5t48.5 16.5t56.5 -23.5t23.5 -68.5q0 -8 -4.5 -37t-16.5 -62.5t-33.5 -67.5t-56.5 -52q-16 -8 -42 -14.5 t-50 -6.5q-41 0 -80 11.5t-74 23.5q-45 14 -71.5 23.5t-42 14.5t-24.5 6t-17 1q-18 0 -27.5 -7t-11.5 -9q-4 -4 -12.5 -25.5t-12.5 -27.5q-6 -12 -23.5 -30t-50.5 -18q-18 0 -32 7q-33 12 -41.5 36.5t-8.5 47.5zM418 535q0 -25 4 -73t21.5 -96.5t53 -83t101.5 -34.5 q61 0 97 29.5t54.5 71.5t22.5 88t4 81q0 123 -37 203q-18 37 -49 64.5t-90 27.5q-68 0 -104.5 -35t-54 -81t-20.5 -92t-3 -70z" />
<glyph unicode="&#xf6;" d="M33 539q0 150 48 256t128 171.5t183 96.5t212 31q156 0 262.5 -50.5t172 -131.5t94 -182t28.5 -202q0 -145 -44 -251.5t-120.5 -175t-181 -102.5t-225.5 -34q-96 0 -167 17.5t-120 43t-81 53t-50 50.5q-78 88 -108.5 188.5t-30.5 221.5zM219 1382q0 70 49 120t121 50 q37 0 67.5 -13t54 -36.5t37 -54.5t13.5 -66q0 -37 -13.5 -67.5t-37 -54t-55 -37t-66.5 -13.5q-70 0 -120 50.5t-50 121.5zM418 535q0 -25 4 -73t21.5 -96.5t53 -83t101.5 -34.5q61 0 97 29.5t54.5 71.5t22.5 88t4 81q0 123 -37 203q-18 37 -49 64.5t-90 27.5 q-68 0 -104.5 -35t-54 -81t-20.5 -92t-3 -70zM677 1382q0 70 49.5 120t120.5 50q37 0 68 -13t54.5 -36.5t36.5 -54.5t13 -66q0 -37 -13 -67.5t-36.5 -54t-55.5 -37t-67 -13.5q-70 0 -120 50.5t-50 121.5z" />
<glyph unicode="&#xf8;" d="M31 541q0 156 52 261t134 170.5t184.5 94.5t202.5 29q113 0 211 -33q47 -16 72.5 -30.5t54.5 -33.5l72 80q12 10 22.5 16.5t24.5 6.5q31 0 50 -22.5t19 -49.5q0 -16 -6 -25.5t-28 -31.5l-58 -62q66 -82 94.5 -181t28.5 -204q0 -123 -35.5 -225t-107.5 -177t-180.5 -117 t-253.5 -42q-74 0 -129.5 10.5t-96.5 25.5t-69.5 32.5t-48.5 32.5l-72 -76q-10 -10 -19.5 -16.5t-25.5 -6.5q-25 0 -47.5 20.5t-22.5 49.5q0 16 9.5 29.5t21.5 27.5l61 66q-14 18 -33.5 48t-38 76t-30.5 108.5t-12 148.5zM397 549q0 -35 3 -60.5t8 -60.5l313 334 q-14 16 -40 37.5t-89 21.5q-41 0 -77 -13t-62.5 -45t-41 -84t-14.5 -130zM463 307q16 -18 48 -44.5t101 -26.5q98 0 140.5 72.5t42.5 189.5q0 37 -3.5 71.5t-7.5 75.5z" />
<glyph unicode="&#xf9;" d="M84 426v412q0 29 3 60.5t19 68.5q16 39 40 61.5t48.5 33.5t47 14t34.5 3q6 0 22.5 -1t38 -8t45.5 -22.5t44 -41.5q14 -18 28.5 -54.5t14.5 -124.5v-419q0 -23 4 -46.5t23 -46.5q12 -16 35.5 -30.5t56.5 -14.5q59 0 94 41q31 35 37 81t6 128v318q0 35 4 74.5t25 76.5 q23 41 63.5 65.5t95.5 24.5q59 0 91 -22.5t45 -34.5q43 -43 52 -90t9 -82v-666q0 -23 -3 -45t-13 -51q-27 -61 -74 -83.5t-88 -22.5q-33 0 -60.5 10t-50.5 26q-47 39 -57 87.5t-12 82.5q-18 -53 -52 -92t-77 -64.5t-92.5 -38.5t-98.5 -13q-55 0 -120.5 20t-118.5 68 q-39 35 -60.5 74.5t-33 84.5t-13.5 95.5t-2 103.5zM301 1460q0 31 26 53q14 10 32 13.5t34 5.5h162q35 0 57.5 -8t36.5 -21.5t23.5 -31t15.5 -37.5l49 -154q10 -25 10 -43q0 -23 -9 -34t-21.5 -16t-26.5 -7t-25 -2h-86q-20 0 -34.5 3t-26.5 9t-24.5 17.5t-26.5 29.5 l-146 178q-8 10 -14 20.5t-6 24.5z" />
<glyph unicode="&#xfa;" d="M84 426v412q0 29 3 60.5t19 68.5q16 39 40 61.5t48.5 33.5t47 14t34.5 3q6 0 22.5 -1t38 -8t45.5 -22.5t44 -41.5q14 -18 28.5 -54.5t14.5 -124.5v-419q0 -23 4 -46.5t23 -46.5q12 -16 35.5 -30.5t56.5 -14.5q59 0 94 41q31 35 37 81t6 128v318q0 35 4 74.5t25 76.5 q23 41 63.5 65.5t95.5 24.5q59 0 91 -22.5t45 -34.5q43 -43 52 -90t9 -82v-666q0 -23 -3 -45t-13 -51q-27 -61 -74 -83.5t-88 -22.5q-33 0 -60.5 10t-50.5 26q-47 39 -57 87.5t-12 82.5q-18 -53 -52 -92t-77 -64.5t-92.5 -38.5t-98.5 -13q-55 0 -120.5 20t-118.5 68 q-39 35 -60.5 74.5t-33 84.5t-13.5 95.5t-2 103.5zM451 1239q0 10 3 21.5t7 21.5l49 154q6 20 15.5 37.5t23.5 31t36.5 21.5t57.5 8h162q16 0 33.5 -4t34.5 -14q25 -25 24 -54q0 -14 -5 -24.5t-15 -20.5l-144 -178q-31 -39 -52 -49t-62 -10h-86q-10 0 -24.5 1t-27 7 t-21.5 17.5t-9 33.5z" />
<glyph unicode="&#xfb;" d="M84 426v412q0 29 3 60.5t19 68.5q16 39 40 61.5t48.5 33.5t47 14t34.5 3q6 0 22.5 -1t38 -8t45.5 -22.5t44 -41.5q14 -18 28.5 -54.5t14.5 -124.5v-419q0 -23 4 -46.5t23 -46.5q12 -16 35.5 -30.5t56.5 -14.5q59 0 94 41q31 35 37 81t6 128v318q0 35 4 74.5t25 76.5 q23 41 63.5 65.5t95.5 24.5q59 0 91 -22.5t45 -34.5q43 -43 52 -90t9 -82v-666q0 -23 -3 -45t-13 -51q-27 -61 -74 -83.5t-88 -22.5q-33 0 -60.5 10t-50.5 26q-47 39 -57 87.5t-12 82.5q-18 -53 -52 -92t-77 -64.5t-92.5 -38.5t-98.5 -13q-55 0 -120.5 20t-118.5 68 q-39 35 -60.5 74.5t-33 84.5t-13.5 95.5t-2 103.5zM309 1276q0 10 2 21.5t8 25.5t18.5 35.5t32.5 52.5q29 43 50.5 70.5t45 43t52.5 21.5t74 6q61 0 99 -7t65.5 -25.5t52 -50t55.5 -80.5q18 -31 30.5 -54.5t12.5 -54.5q0 -47 -37 -82t-84 -35q-61 0 -99 64t-79 162 q-18 -45 -36.5 -86t-40 -72t-48.5 -49.5t-61 -18.5q-41 0 -77 30t-36 83z" />
<glyph unicode="&#xfc;" d="M84 426v412q0 29 3 60.5t19 68.5q16 39 40 61.5t48.5 33.5t47 14t34.5 3q6 0 22.5 -1t38 -8t45.5 -22.5t44 -41.5q14 -18 28.5 -54.5t14.5 -124.5v-419q0 -23 4 -46.5t23 -46.5q12 -16 35.5 -30.5t56.5 -14.5q59 0 94 41q31 35 37 81t6 128v318q0 35 4 74.5t25 76.5 q23 41 63.5 65.5t95.5 24.5q59 0 91 -22.5t45 -34.5q43 -43 52 -90t9 -82v-666q0 -23 -3 -45t-13 -51q-27 -61 -74 -83.5t-88 -22.5q-33 0 -60.5 10t-50.5 26q-47 39 -57 87.5t-12 82.5q-18 -53 -52 -92t-77 -64.5t-92.5 -38.5t-98.5 -13q-55 0 -120.5 20t-118.5 68 q-39 35 -60.5 74.5t-33 84.5t-13.5 95.5t-2 103.5zM217 1382q0 70 49 120t121 50q37 0 67.5 -13t54 -36.5t37 -54.5t13.5 -66q0 -37 -13.5 -67.5t-37 -54t-55 -37t-66.5 -13.5q-70 0 -120 50.5t-50 121.5zM675 1382q0 70 49.5 120t120.5 50q37 0 68 -13t54.5 -36.5 t36.5 -54.5t13 -66q0 -37 -13 -67.5t-36.5 -54t-55.5 -37t-67 -13.5q-70 0 -120 50.5t-50 121.5z" />
<glyph unicode="&#xfd;" horiz-adv-x="1024" d="M-2 897q0 39 14.5 73t39 58.5t58 37.5t70.5 13q43 0 73 -14t49.5 -34.5t29.5 -44t16 -42.5q27 -90 45.5 -154.5t35.5 -124t35.5 -124t43.5 -154.5l53 209l92 313q6 23 18.5 52.5t34 55t54.5 44t82 18.5q37 0 69.5 -13t57 -35.5t39 -55.5t14.5 -70q0 -33 -9 -60.5 t-20 -56.5l-370 -938q-14 -37 -37 -76.5t-61 -73.5t-96 -55.5t-146 -21.5q-119 0 -198 50.5t-79 125.5q0 47 33 90t92 43q23 0 42.5 -6t37.5 -14q18 -6 39 -6q35 0 61.5 19.5t26.5 54.5q0 12 -4 23t-10 26q-35 86 -63 152.5t-50.5 123.5t-43 110.5t-43 113t-50 131 t-62.5 167.5q-6 18 -10 35t-4 35zM363 1239q0 10 3 21.5t7 21.5l49 154q6 20 15.5 37.5t23.5 31t36.5 21.5t57.5 8h162q16 0 33.5 -4t34.5 -14q25 -25 24 -54q0 -14 -5 -24.5t-15 -20.5l-144 -178q-31 -39 -52 -49t-62 -10h-86q-10 0 -24.5 1t-27 7t-21.5 17.5t-9 33.5z" />
<glyph unicode="&#xfe;" horiz-adv-x="1236" d="M84 -117v1354q0 37 6 80t41 86q27 35 67 52.5t83 17.5q29 0 58.5 -8.5t61.5 -43.5q29 -29 41.5 -66.5t12.5 -117.5v-289q12 14 34.5 39t58.5 47.5t87 39t121 16.5q111 0 193.5 -46.5t133.5 -105.5q70 -84 96.5 -187.5t26.5 -213.5q0 -133 -36.5 -238.5t-99 -177.5 t-148.5 -110t-185 -38q-66 0 -114 14.5t-79.5 34t-52 40t-30.5 32.5v-268q-2 -29 -7 -63.5t-30 -69.5q-55 -68 -145 -68q-29 0 -78 15.5t-84 76.5q-23 39 -27 79t-6 87zM451 537q0 -43 4 -89.5t14 -80.5q12 -39 30.5 -65t39 -40t42 -20t40.5 -6q78 0 134 73.5t56 229.5 q0 31 -3 69.5t-13 73.5q-14 51 -39 81t-50.5 43t-46 16t-28.5 3q-33 0 -63.5 -13t-55.5 -42q-41 -47 -51 -111.5t-10 -121.5z" />
<glyph unicode="&#xff;" horiz-adv-x="1024" d="M-2 897q0 39 14.5 73t39 58.5t58 37.5t70.5 13q43 0 73 -14t49.5 -34.5t29.5 -44t16 -42.5q27 -90 45.5 -154.5t35.5 -124t35.5 -124t43.5 -154.5l53 209l92 313q6 23 18.5 52.5t34 55t54.5 44t82 18.5q37 0 69.5 -13t57 -35.5t39 -55.5t14.5 -70q0 -33 -9 -60.5 t-20 -56.5l-370 -938q-14 -37 -37 -76.5t-61 -73.5t-96 -55.5t-146 -21.5q-119 0 -198 50.5t-79 125.5q0 47 33 90t92 43q23 0 42.5 -6t37.5 -14q18 -6 39 -6q35 0 61.5 19.5t26.5 54.5q0 12 -4 23t-10 26q-35 86 -63 152.5t-50.5 123.5t-43 110.5t-43 113t-50 131 t-62.5 167.5q-6 18 -10 35t-4 35zM113 1382q0 70 49 120t121 50q37 0 67.5 -13t54 -36.5t37 -54.5t13.5 -66q0 -37 -13.5 -67.5t-37 -54t-55 -37t-66.5 -13.5q-70 0 -120 50.5t-50 121.5zM571 1382q0 70 49.5 120t120.5 50q37 0 68 -13t54.5 -36.5t36.5 -54.5t13 -66 q0 -37 -13 -67.5t-36.5 -54t-55.5 -37t-67 -13.5q-70 0 -120 50.5t-50 121.5z" />
<glyph unicode="&#x152;" horiz-adv-x="2217" d="M35 705q0 147 42 284t126 242.5t209 168t290 62.5q86 0 147.5 -14t106.5 -36.5t76 -48.5t53 -46q35 84 93.5 106.5t126.5 22.5h690q59 0 102 -14q57 -18 82 -60.5t25 -87.5q0 -49 -25 -88q-18 -27 -41.5 -41t-48.5 -21.5t-49.5 -8.5t-44.5 -1h-527v-225h486 q29 -2 52.5 -5t47.5 -20q25 -14 39 -33.5t21.5 -38t9.5 -34.5t2 -23q0 -23 -6 -42t-17 -35q-31 -49 -73.5 -58.5t-79.5 -11.5h-482v-281h551q33 -2 65 -6t60 -24q29 -18 48.5 -51t19.5 -76q0 -35 -14.5 -67t-43.5 -54q-37 -29 -81.5 -34t-87.5 -5h-666q-35 0 -71 3t-70 24 q-35 18 -51.5 40.5t-30.5 45.5q-47 -41 -97.5 -68t-102.5 -42t-101.5 -21.5t-92.5 -6.5q-152 0 -275.5 51.5t-210.5 146.5t-134 230.5t-47 301.5zM440 715q0 -41 7.5 -105.5t31.5 -124.5q29 -72 73 -110.5t89 -57t85 -21.5t58 -3q66 0 126.5 18.5t105.5 65.5q12 12 33.5 49 t21.5 121v315q0 41 -5 83t-26 77q-25 45 -87 82t-160 37q-96 0 -163 -33t-109 -91.5t-61.5 -136t-19.5 -165.5z" />
<glyph unicode="&#x153;" horiz-adv-x="1878" d="M33 520q0 119 33.5 222.5t101.5 180t169 122t234 45.5q92 0 154.5 -17.5t105.5 -43t70 -54.5t45 -51q10 16 24.5 33.5t41.5 37.5q117 94 313 95q131 0 228.5 -44.5t161 -115t95 -158.5t31.5 -176q0 -57 -13 -89t-34.5 -48.5t-47.5 -20.5t-52 -4h-545q2 -25 9 -59.5 t27.5 -66.5t57.5 -54.5t100 -22.5q31 0 54.5 7.5t46.5 23.5q20 16 37.5 33.5t38.5 34.5q16 12 40.5 24.5t65.5 12.5q25 0 53.5 -8.5t51 -26t38 -43t15.5 -60.5q0 -49 -35 -96t-97.5 -85t-147.5 -61.5t-185 -23.5q-59 0 -120.5 11.5t-119.5 33.5q-59 23 -91 47.5t-54 42.5 q-16 -16 -30.5 -29.5t-39.5 -27.5q-53 -31 -126.5 -53.5t-170.5 -22.5q-121 0 -219 39t-168.5 111.5t-108.5 175t-38 229.5zM414 524q0 -88 16 -143t43 -87t57.5 -43t59.5 -11q53 0 86 24.5t51 64.5t24.5 90t6.5 99q0 33 -4 83t-21.5 97t-51.5 80t-93 33q-18 0 -41 -5 t-45.5 -21.5t-42 -46t-31.5 -79.5q-10 -35 -12 -72.5t-2 -62.5zM1147 637h330q-2 25 -5.5 50.5t-19.5 53.5q-16 29 -49 52.5t-84 23.5q-78 0 -120 -51t-52 -129z" />
<glyph unicode="&#x178;" d="M0 1282q0 43 15.5 78t41 59.5t58 37.5t69.5 13q43 0 74 -13t52.5 -31.5t35.5 -40t25 -39.5l229 -445l193 402q12 23 28.5 52t41 55t57 43t75.5 17q45 0 82 -16t61.5 -43t38 -60.5t13.5 -68.5q0 -41 -10.5 -65.5t-22.5 -47.5l-344 -600v-368q-2 -31 -7 -60.5t-26 -64.5 q-27 -41 -68.5 -67.5t-101.5 -26.5q-70 0 -129 43q-29 23 -45 49t-23 53t-9.5 52.5t-2.5 47.5v336l-370 608q-14 25 -22.5 48.5t-8.5 62.5zM199 1702q0 70 49 120t121 50q37 0 67.5 -13.5t54 -37t37 -54t13.5 -65.5q0 -37 -13.5 -67.5t-37 -54.5t-55 -37t-66.5 -13 q-70 0 -120 50t-50 122zM657 1702q0 70 49.5 120t120.5 50q37 0 68 -13.5t54.5 -37t36.5 -54t13 -65.5q0 -37 -13 -67.5t-36.5 -54.5t-55.5 -37t-67 -13q-70 0 -120 50t-50 122z" />
<glyph unicode="&#x2c6;" horiz-adv-x="598" d="M0 1276q0 10 2 21.5t8 25.5t18.5 35.5t32.5 52.5q29 43 50.5 70.5t45 43t52.5 21.5t74 6q61 0 99 -7t65.5 -25.5t52 -50t55.5 -80.5q18 -31 30.5 -54.5t12.5 -54.5q0 -47 -37 -82t-84 -35q-61 0 -99 64t-79 162q-18 -45 -36.5 -86t-40 -72t-48.5 -49.5t-61 -18.5 q-41 0 -77 30t-36 83z" />
<glyph unicode="&#x2dc;" horiz-adv-x="598" d="M-66 1260q0 23 9.5 69.5t27.5 81.5q23 43 62 70.5t104 27.5q37 0 79 -11t69 -21q33 -10 63.5 -24.5t65.5 -20.5q20 -5 30 -5q4 0 16.5 2.5t26.5 14.5q10 6 13.5 13t15.5 34q6 14 21.5 30.5t48.5 16.5t56.5 -23.5t23.5 -68.5q0 -8 -4.5 -37t-16.5 -62.5t-33.5 -67.5 t-56.5 -52q-16 -8 -42 -14.5t-50 -6.5q-41 0 -80 11.5t-74 23.5q-45 14 -71.5 23.5t-42 14.5t-24.5 6t-17 1q-18 0 -27.5 -7t-11.5 -9q-4 -4 -12.5 -25.5t-12.5 -27.5q-6 -12 -23.5 -30t-50.5 -18q-18 0 -32 7q-33 12 -41.5 36.5t-8.5 47.5z" />
<glyph unicode="&#x2000;" horiz-adv-x="948" />
<glyph unicode="&#x2001;" horiz-adv-x="1896" />
<glyph unicode="&#x2002;" horiz-adv-x="948" />
<glyph unicode="&#x2003;" horiz-adv-x="1896" />
<glyph unicode="&#x2004;" horiz-adv-x="632" />
<glyph unicode="&#x2005;" horiz-adv-x="474" />
<glyph unicode="&#x2006;" horiz-adv-x="316" />
<glyph unicode="&#x2007;" horiz-adv-x="316" />
<glyph unicode="&#x2008;" horiz-adv-x="237" />
<glyph unicode="&#x2009;" horiz-adv-x="379" />
<glyph unicode="&#x200a;" horiz-adv-x="105" />
<glyph unicode="&#x2010;" horiz-adv-x="768" d="M45 598q0 39 21 72q14 25 35.5 38t44 20t44 10t35.5 3h320q25 0 52.5 -5t47.5 -15q41 -20 58.5 -56t17.5 -73q0 -25 -8 -45.5t-19 -36.5q-33 -41 -73.5 -49t-63.5 -8h-336q-23 2 -46 5t-48 13q-27 14 -54.5 44t-27.5 83z" />
<glyph unicode="&#x2011;" horiz-adv-x="768" d="M45 598q0 39 21 72q14 25 35.5 38t44 20t44 10t35.5 3h320q25 0 52.5 -5t47.5 -15q41 -20 58.5 -56t17.5 -73q0 -25 -8 -45.5t-19 -36.5q-33 -41 -73.5 -49t-63.5 -8h-336q-23 2 -46 5t-48 13q-27 14 -54.5 44t-27.5 83z" />
<glyph unicode="&#x2012;" horiz-adv-x="768" d="M45 598q0 39 21 72q14 25 35.5 38t44 20t44 10t35.5 3h320q25 0 52.5 -5t47.5 -15q41 -20 58.5 -56t17.5 -73q0 -25 -8 -45.5t-19 -36.5q-33 -41 -73.5 -49t-63.5 -8h-336q-23 2 -46 5t-48 13q-27 14 -54.5 44t-27.5 83z" />
<glyph unicode="&#x2013;" horiz-adv-x="1236" d="M51 600q0 61 47 102t129 41h795q23 -2 45.5 -5t46.5 -15q45 -23 60.5 -60.5t15.5 -66.5q0 -39 -19 -72q-23 -39 -56.5 -52t-74.5 -15h-813q-18 2 -43.5 4t-52.5 14q-51 25 -65.5 62.5t-14.5 62.5z" />
<glyph unicode="&#x2014;" horiz-adv-x="1323" d="M47 598q0 68 47 104q35 29 75 34t77 5h827q37 0 79 -4t75 -32q20 -16 34.5 -46t14.5 -65q0 -37 -13.5 -61.5t-29.5 -38.5q-35 -31 -77 -36t-83 -5h-827q-35 0 -72 4t-70 26q-27 18 -42 48t-15 67z" />
<glyph unicode="&#x2018;" horiz-adv-x="468" d="M31 1075q0 90 25.5 162t67.5 123t92 77.5t99 26.5q51 0 79 -29.5t28 -66.5q0 -14 -7 -35.5t-34 -40.5q-12 -10 -25.5 -15t-25.5 -11q-53 -29 -62.5 -61.5t-9.5 -55.5q23 -2 44.5 -6t49.5 -23q23 -12 52.5 -49t29.5 -106q0 -82 -51 -138.5t-131 -56.5q-43 0 -83 18.5 t-70.5 56.5t-49 95t-18.5 135z" />
<glyph unicode="&#x2019;" horiz-adv-x="468" d="M35 1272q0 82 52 138t132 56q43 0 83 -18t70.5 -56t49 -95.5t18.5 -135.5q0 -90 -25.5 -161.5t-67.5 -123t-92 -78t-99 -26.5q-51 0 -79 29.5t-28 66.5q0 14 7 36t34 40q12 10 25.5 15.5t25.5 11.5q53 29 62.5 61t9.5 55q-23 2 -44.5 6.5t-49.5 22.5q-10 6 -24.5 18.5 t-28 31t-22.5 45t-9 61.5z" />
<glyph unicode="&#x201a;" horiz-adv-x="468" d="M29 186q0 41 14 77t38.5 61.5t58.5 41t73 15.5q43 0 83 -18.5t70.5 -56.5t49 -95t18.5 -135q0 -90 -25.5 -162t-67.5 -123t-92 -77.5t-99 -26.5q-53 0 -80 30.5t-27 65.5q0 18 9 38.5t32 37.5q12 10 25.5 15t25.5 11q53 29 62.5 61.5t9.5 55.5q-23 2 -44.5 6t-49.5 23 q-25 16 -54.5 52t-29.5 103z" />
<glyph unicode="&#x201c;" horiz-adv-x="980" d="M33 1075q0 90 25.5 162t67.5 123t92 77.5t99 26.5q51 0 79 -29.5t28 -66.5q0 -14 -6 -35.5t-33 -40.5q-12 -10 -26.5 -15t-26.5 -11q-53 -29 -62.5 -61.5t-9.5 -55.5q23 -2 45.5 -6t50.5 -23q20 -12 51 -49t31 -106q0 -82 -52 -138.5t-132 -56.5q-43 0 -83 18.5 t-70.5 56.5t-49 95t-18.5 135zM549 1075q0 90 25.5 162t67.5 123t92 77.5t100 26.5q51 0 78.5 -29.5t27.5 -66.5q0 -14 -7 -35.5t-34 -40.5q-12 -10 -25.5 -15t-25.5 -11q-53 -29 -62.5 -61.5t-9.5 -55.5q23 -2 44.5 -6t49.5 -23q23 -12 52.5 -49t29.5 -106 q0 -82 -51 -138.5t-131 -56.5q-43 0 -83 18.5t-70.5 56.5t-49 95t-18.5 135z" />
<glyph unicode="&#x201d;" horiz-adv-x="980" d="M27 1274q0 82 52 138t132 56q43 0 83 -18t70.5 -56t49 -95.5t18.5 -135.5q0 -90 -25.5 -161.5t-67.5 -123t-92 -78t-100 -26.5q-51 0 -78.5 30t-27.5 66q0 14 7 36t34 40q12 10 25.5 15.5t25.5 11.5q53 29 62.5 61.5t9.5 55.5q-23 2 -45.5 6t-50.5 22q-20 12 -51 49 t-31 107zM543 1274q0 82 51 138t131 56q43 0 83 -18t70.5 -56t49 -95.5t18.5 -135.5q0 -90 -25.5 -161.5t-67.5 -123t-92 -78t-99 -26.5q-51 0 -79 30t-28 66q0 14 7 36t34 40q12 10 25.5 15.5t25.5 11.5q53 29 62.5 61.5t9.5 55.5q-23 2 -44.5 6t-49.5 22q-23 12 -52.5 49 t-29.5 107z" />
<glyph unicode="&#x201e;" horiz-adv-x="980" d="M27 186q0 82 52 138.5t132 56.5q43 0 83 -18.5t70.5 -56.5t49 -95t18.5 -135q0 -90 -25.5 -162t-67.5 -123t-92 -77.5t-100 -26.5q-51 0 -78.5 29.5t-27.5 66.5q0 14 7 35.5t34 40.5q12 10 25.5 15t25.5 11q53 29 62.5 61.5t9.5 55.5q-23 2 -45.5 6t-50.5 23 q-20 12 -51 49t-31 106zM543 186q0 82 51 138.5t131 56.5q43 0 83 -18.5t70.5 -56.5t49 -95t18.5 -135q0 -90 -25.5 -162t-67.5 -123t-92 -77.5t-99 -26.5q-51 0 -79 29.5t-28 66.5q0 14 7 35.5t34 40.5q12 10 25.5 15t25.5 11q53 29 62.5 61.5t9.5 55.5q-23 2 -44.5 6 t-49.5 23q-23 12 -52.5 49t-29.5 106z" />
<glyph unicode="&#x2022;" horiz-adv-x="681" d="M25 721q0 63 24.5 121.5t67.5 102.5t101 69.5t128 25.5q61 0 117.5 -21.5t99.5 -62.5t69.5 -100t26.5 -135q0 -66 -22.5 -124t-63.5 -101t-98 -68t-127 -25q-76 0 -136 28t-101 73t-63.5 102.5t-22.5 114.5z" />
<glyph unicode="&#x2026;" horiz-adv-x="2048" d="M147 172q0 82 56.5 138.5t138.5 56.5q39 0 75 -15.5t61.5 -41t41 -61.5t15.5 -77q0 -39 -15.5 -74t-41 -61.5t-61.5 -41.5t-75 -15q-41 0 -77 15t-61.5 41.5t-41 61.5t-15.5 74zM829 172q0 82 56.5 138.5t138.5 56.5q39 0 75 -15.5t61.5 -41t41 -61.5t15.5 -77 q0 -39 -15.5 -74t-41 -61.5t-61.5 -41.5t-75 -15q-41 0 -77 15t-61.5 41.5t-41 61.5t-15.5 74zM1511 172q0 82 56.5 138.5t138.5 56.5q39 0 75 -15.5t61.5 -41t40.5 -61.5t15 -77q0 -39 -15 -74t-40.5 -61.5t-61.5 -41.5t-75 -15q-41 0 -77 15t-61.5 41.5t-41 61.5t-15.5 74 z" />
<glyph unicode="&#x202f;" horiz-adv-x="379" />
<glyph unicode="&#x2039;" horiz-adv-x="641" d="M82 606q0 31 9 55.5t27.5 49t48.5 52.5t73 64q49 43 82.5 70t58.5 40t42 18.5t36 5.5q57 0 89 -38t32 -83q0 -47 -30 -76t-65 -55q-37 -27 -73.5 -52.5t-75.5 -52.5q51 -35 79.5 -53.5t44 -29.5t22.5 -16t16 -11q31 -23 56.5 -51.5t25.5 -73.5q0 -61 -40 -90t-85 -29 q-10 0 -25.5 2t-42.5 16.5t-67.5 45t-102.5 87.5q-76 68 -105.5 109t-29.5 96z" />
<glyph unicode="&#x203a;" horiz-adv-x="641" d="M57 365q0 49 29 77.5t66 53.5q37 27 73.5 53t73.5 53q-49 33 -77.5 52.5t-44 29.5t-23 15.5t-15.5 11.5q-31 23 -56.5 51.5t-25.5 73.5q0 61 39 89.5t86 28.5q10 0 25.5 -2t41 -16t66.5 -45t105 -88q37 -35 62.5 -60.5t41 -48t22.5 -46t7 -50.5q0 -31 -8 -55.5t-26.5 -49 t-48.5 -51t-73 -63.5q-51 -43 -84.5 -69.5t-57.5 -41t-42 -19.5t-37 -5q-55 0 -87 37.5t-32 83.5z" />
<glyph unicode="&#x205f;" horiz-adv-x="474" />
<glyph unicode="&#x2122;" horiz-adv-x="1409" d="M2 1309v137h586v-137h-205v-543h-172v543h-209zM643 766v680h217l156 -492l145 492h219v-680h-168l9 362q0 25 2 57t10 83q-10 -43 -15.5 -60.5t-13.5 -50.5l-114 -391h-154l-121 393q-2 6 -6 20.5t-8 31t-8.5 31.5t-6.5 22q4 -25 7.5 -53.5t7.5 -82.5l8 -362h-166z" />
<glyph unicode="&#x25fc;" horiz-adv-x="1075" d="M0 0v1075h1075v-1075h-1075z" />
</font>
</defs>
</svg>
